/* XPM */
static char *result[] = {
/* columns rows colors chars-per-pixel */
"59 60 40 1 ",
"  c #77511D",
". c #77511E",
"X c #77521E",
"o c #78521E",
"O c #79531E",
"+ c #79531F",
"@ c #7A541F",
"# c #7B551F",
"$ c #7C5520",
"% c #7D5620",
"& c #7E5721",
"* c #7F5821",
"= c #815922",
"- c #825A22",
"; c #865D24",
": c #895F25",
"> c #8B6126",
", c #8E6327",
"< c #906528",
"1 c #916528",
"2 c #916628",
"3 c #95682A",
"4 c #96682A",
"5 c #96692A",
"6 c #97692A",
"7 c #9C6D2C",
"8 c #AB7932",
"9 c #AD7A33",
"0 c #AE7B33",
"q c #AF7C34",
"w c #B07C34",
"e c #B27E35",
"r c #B48036",
"t c #B58036",
"y c #B68136",
"u c #B78137",
"i c #B88237",
"p c #B98237",
"a c #B98337",
"s c None",
/* pixels */
"sssssssssssssssssssssssssssX....sssssssssssssssssssssssssss",
"ssssssssssssssssssssssssso@=----*Oossssssssssssssssssssssss",
"sssssssssssssssssssssssso$7qwwww06@ssssssssssssssssssssssss",
"sssssssssssssssssssssssso,yappppae:.sssssssssssssssssssssss",
"sssssssssssssssssssssssso4uiiiiiit2 sssssssssssssssssssssss",
"sssssssssssssssssssssssso4uiiiiiiy2 sssssssssssssssssssssss",
"sssssssssssssssssssssssso4uiiiiiiy2 sssssssssssssssssssssss",
"sssssssssssssssssssssssso4uiiiiiiy2 sssssssssssssssssssssss",
"sssssssssssssssssssssssso4uiiiiiiy2 sssssssssssssssssssssss",
"sssssssssssssssssssssssso4uiiiiiiy2 sssssssssssssssssssssss",
"sssssssssssssssssssssssso4uiiiiiiy2 sssssssssssssssssssssss",
"sssssssssssssssssssssssso4uiiiiiiy2 sssssssssssssssssssssss",
"sssssssssssssssssssssssso4uiiiiiiy2 sssssssssssssssssssssss",
"sssssssssssssssssssssssso4uiiiiiiy2 sssssssssssssssssssssss",
"sssssssssssssssssssssssso4uiiiiiiy2 sssssssssssssssssssssss",
"sssssssssssssssssssssssso4uiiiiiiy2 sssssssssssssssssssssss",
"sssssssssssssssssssssssso4uiiiiiiy2 sssssssssssssssssssssss",
"sssssssssssssssssssssssso4uiiiiiiy2 sssssssssssssssssssssss",
"sssssssssssssssssssssssso4uiiiiiiy2 sssssssssssssssssssssss",
"sssssssssssssssssssssssso4uiiiiiiy2 sssssssssssssssssssssss",
"sssssssssssssssssssssssso4uiiiiiiy2 sssssssssssssssssssssss",
"sssssssssssssssssssssssso4uiiiiiiy2 sssssssssssssssssssssss",
"sssssssssssssssssssssssso4uiiiiiiy2 sssssssssssssssssssssss",
"sssssssssssssssssssssssso4uiiiiiiy2 sssssssssssssssssssssss",
"sssssssssssssssssssssssso4uiiiiiiy2 sssssssssssssssssssssss",
"sssssssssssssssssssssssso4uiiiiiiy2 sssssssssssssssssssssss",
"sssssssssssssssssssssssso4uiiiiiiy2 sssssssssssssssssssssss",
"sssssssssssssssssssssssso4uiiiiiiy2 sssssssssssssssssssssss",
"sssssssssssssssssssssssso4uiiiiiiy2 sssssssssssssssssssssss",
"sssssssssssssssssssssssso4uiiiiiiy2 sssssssssssssssssssssss",
"sssssssssssssssssssssssso4uiiiiiiy2 sssssssssssssssssssssss",
"sssssssssssssssssssssssso4uiiiiiiy2 sssssssssssssssssssssss",
"sssssssssssssssssssssssso4uiiiiiiy2 sssssssssssssssssssssss",
"sssssssssssssssssssssssso4uiiiiiiy2 sssssssssssssssssssssss",
"sssssssssssssssssssssssso4uiiiiiiy2 sssssssssssssssssssssss",
"sssssssssssssssssssssssso4uiiiiiiy2 sssssssssssssssssssssss",
"sssssssssssssssssssssssso4uiiiiiiy2 sssssssssssssssssssssss",
"sssssssssssssssssssssssso4uiiiiiiy2 sssssssssssssssssssssss",
"sssssssssssssssssssssssso4uiiiiiiy2 sssssssssssssssssssssss",
"sssssssssssssssssssssssso4uiiiiiiy2 sssssssssssssssssssssss",
"sssssssssssssssssssssssso4uiiiiiiy2 sssssssssssssssssssssss",
"sssssssssssssssssssssssso4uiiiiiiy2 sssssssssssssssssssssss",
"sssssssssssssssssssssssso4uiiiiiiy2 sssssssssssssssssssssss",
"sssssssssssssssssssssssso4uiiiiiiy2 sssssssssssssssssssssss",
"sssssssssssssssssssssssso4uiiiiiiy2 sssssssssssssssssssssss",
"sssssssssssssssssssssssso4uiiiiiiy2 sssssssssssssssssssssss",
"sssssssssssssssssssssssso4uiiiiiiy2 sssssssssssssssssssssss",
"sssssssssssssssssssssssso4uiiiiiiy2 sssssssssssssssssssssss",
"sssssssssssssssssssssssso4uiiiiiiy2 sssssssssssssssssssssss",
"sssssssssssssssssssssssso4uiiiiiiy2 sssssssssssssssssssssss",
"sssssssssssssssssssssssso4uiiiiiiy2 sssssssssssssssssssssss",
"sssssssssssssssssssssssso4uiiiiiiy2 sssssssssssssssssssssss",
"sssssssssssssssssssssssso4uiiiiiiy2 sssssssssssssssssssssss",
"sssssssssssssssssssssssso4uiiiiiiy2 sssssssssssssssssssssss",
"sssssssssssssssssssssssso4uiiiiiiy2 sssssssssssssssssssssss",
"sssssssssssssssssssssssso3uiiiiiit< sssssssssssssssssssssss",
"sssssssssssssssssssssssso>rappppaw;.sssssssssssssssssssssss",
"sssssssssssssssssssssssss#59wwww81+ssssssssssssssssssssssss",
"sssssssssssssssssssssssssoo&----%osssssssssssssssssssssssss",
"ssssssssssssssssssssssssssss....sssssssssssssssssssssssssss"
};
