/* XPM */
static char *result[] = {
/* columns rows colors chars-per-pixel */
"59 60 88 1 ",
"  c #AB792A",
". c #B17E2C",
"X c #B5812D",
"o c #B9842F",
"O c #BC8730",
"+ c #BE8931",
"@ c #D28E1C",
"# c #D3911F",
"$ c #C78320",
"% c #C98624",
"& c #CD8D2A",
"* c #CF902B",
"= c #D49223",
"- c #D79826",
"; c #D89824",
": c #D5952C",
"> c #D7992B",
", c #DA9D2B",
"< c #C38D32",
"1 c #CB9335",
"2 c #D19634",
"3 c #D69A35",
"4 c #D89C36",
"5 c #D59B39",
"6 c #D99E3A",
"7 c #DBA02E",
"8 c #DDA333",
"9 c #DBA33C",
"0 c #E0A937",
"q c #E2AD3B",
"w c #E4B03E",
"e c #DBA342",
"r c #DCA549",
"t c #DDA84F",
"y c #DDA952",
"u c #DFAD5A",
"i c #E2AF45",
"p c #E4B146",
"a c #E8B745",
"s c #E9B947",
"d c #E6B649",
"f c #E9BB4B",
"g c #E0AF5C",
"h c #E2B154",
"j c #E3B359",
"k c #E1B364",
"l c #E3B66C",
"z c #E7BE6C",
"x c #E4BB73",
"c c #E5BD7A",
"v c #EDC14E",
"b c #EEC352",
"n c #F0C654",
"m c #F3CB57",
"M c #F0C758",
"N c #F1C95B",
"B c #F6D15A",
"V c #F8D45C",
"C c #EEC564",
"Z c #ECC56E",
"A c #EFC869",
"S c #F1CB63",
"D c #F2CD6A",
"F c #EBC574",
"G c #EFC973",
"H c #E6C07E",
"J c #F2CF72",
"K c #F1CF7D",
"L c #F2D27D",
"P c #E7C284",
"I c #E8C485",
"U c #ECCA84",
"Y c #E9C68A",
"T c #EDCC8D",
"R c #EFD18E",
"E c #F2D383",
"W c #F3D68F",
"Q c #ECCD95",
"! c #EED096",
"~ c #EDD09C",
"^ c #F2D793",
"/ c #F4D993",
"( c #F3D99B",
") c #EFD6A6",
"_ c #F0D7A5",
"` c #F2D9A3",
"' c #F2DBA8",
"] c None",
/* pixels */
"]]]]]]]]]]]]]]]]]]]]]]]]]]]]]]]]]]]]]]]]]]]]]]]]]]]]]]]]]]]",
"]]]]]]]]]]]]]]]]]]]]]]              ]]]]]]]]]]]]]]]]]]]]]]]",
"]]]]]]]]]]]]]]]]]]]   .XO<<11<11<OO.    ]]]]]]]]]]]]]]]]]]]",
"]]]]]]]]]]]]]]]]]  X+<256666696666651<X   ]]]]]]]]]]]]]]]]]",
"]]]]]]]]]]]]]]]  o<566666666669666666651+.  ]]]]]]]]]]]]]]]",
"]]]]]]]]]]]]]  X15666666666666666666666661O. ]]]]]]]]]]]]]]",
"]]]]]]]]]]]  .<56666666666666666666666666661X  ]]]]]]]]]]]]",
"]]]]]]]]]]  X16666666666666966666666666666665<  ]]]]]]]]]]]",
"]]]]]]]]]  <56666666666653::::::,36666666666661. ]]]]]]]]]]",
"]]]]]]]]  <56666666663:=@#;,,,,,##=:336666666631X ]]]]]]]]]",
"]]]]]]]  <5666666663==;0afnnnnnvvfq,##>6666666661X ]]]]]]]]",
"]]]]]]  <569666663=@8abnnnnnnnnnnnnnfq;@3666666661. ]]]]]]]",
"]]]]]] o566666663#8snMnnnnnnnnnnnnnnnmfq#;366666661  ]]]]]]",
"]]]]] X56666666-=wnnnnnnnnnbfafnnnnnnnnnf7=36666666<  ]]]]]",
"]]]]  16666664:,fnnnnnnnnbfip934fnnnnnnnnn0#36666665o ]]]]]",
"]]]] +9666666:,fnnnnnnnnbffmBmf&:fnnnnnnnnnq#36666661. ]]]]",
"]]] .6666666:7fnnnnnnnnnffBBnfp6$3nnnnnnnnnnq=3666665O ]]]]",
"]]] 1666666:,fmnnnnnnnnnpnVf66663%bnnnnnnnnnn0:6666665. ]]]",
"]] .2666664;snnnnnnnnnnnpnni66663$dnnnnnnnnnnn,:666666< ]]]",
"]] <666666>qnnnnnnnnnnnnpfn966663$fnnnnnnnnnnnf>6666661  ]]",
"] .1666666,fnnnnnnnnnnnnp0i666666$dnnnnnnnnnnnn03666665O ]]",
"] X666666:pMnnnnnnnnnnnmp66666663$fnnnnnnnnnnnnf,366666< ]]",
"] <6666667fmnnnnnnnnnnnnp66666663$dnnnnnnnnnnnnn03666692  ]",
"] 166666:qnnnnnnnnnnnnnnp66666666$fnnnnnnnnnnnnnf:666955X ]",
" .5566664pnnnnnnnnnnnnnMp66666663$dnnnnnnnnnnnnnv8466666o ]",
" X5666658nnnnnnnnnnnnnnni66666663$fnnnnnnnnnnnnnnq346666< ]",
" O5666660fnnnnnnnnnnnnnnp66666666$fnnnnnnnnnnnnnmp3966661 ]",
" O666666qnnnnnnnnnnnnnnni66666663$fnnnnnnnnnnnnnnf4666661 ]",
" +666666annnnnnnnnnnnnnnp66666666$dnnnnnnnnnnnnnMf0666691 ]",
" O666666annnnnnnnnnnnnnMp66666663$dnnnnnnnnnnnnnnf0666665 ]",
" O66666eznnnnnnnnnnnnnnMp66666663$dnnnnnnnnnnnnnnSh466665 ]",
" O66666rCnnnnnnnnnnnnnnMi66666666$dnnnnnnnnnnnnnnDj666661 ]",
" O66666rGnnnnnnnnnnnnnnnp66666666$dnnnnnnnnnnnnnnCh466661 ]",
" X56666eZnnnnnnnnnnnnnnnp66666666$fnnnnnnnnnnnnnnAg66666< ]",
" .56666ezSnnnnnnnnnnnnnnp66666663$dnnnnnnnnnnnnnnGy66666+ ]",
"  166666kDnnnnnnnnnnnnnnp66666663$fnnnnnnnnnnnnnNF966666X ]",
"] <66666uGnnnnnnnnnnnnnnp66666666$dnnnnnnnnnnnnnDx466662. ]",
"] O66666eUSnnnnnnnnnnnnni66666663$fnnnnnnnnnnnnnKu666661 ]]",
"] .266666xJbnnnnnnnnnnnnp66666663$dnnnnnnnnnnnnNT966665+ ]]",
"]] 166666rWMnnnnnnnnnnnmi66666666$fnnnnnnnnnnnnEl666665X ]]",
"]] O566666xEnnnnnnnnnnnnp56666666$fnnnnnnnnnnnDTr66666< ]]]",
"]]  166666rTDnnnnnnnnnnnp66666663$fnnnnnnnnnnMWk666665X ]]]",
"]]] O566666k^Snnnnnnnnnni66666663$fnnnnnnnnnnEHe66666< ]]]]",
"]]]  1666666x^Mnnnnnnnnnd66666662%fnnnnnnnnnEQe666962X ]]]]",
"]]]] X566666eY^Nnnnnnnnnfe666666%9nnnnnnnnnK!t666665< ]]]]]",
"]]]]] +666666eI(Snnnnnnnnf96955&:fnnnnnnnMEQg6666661  ]]]]]",
"]]]]]  <666666ec`Jnnnnnnnnfi9339fnnnnnnnS/Qh6666665X ]]]]]]",
"]]]]]] .16666666l_WDnnnnnnnnbfvbnnnnnnNK`Ir6666655o ]]]]]]]",
"]]]]]]] .16666666yY_WDnnnnnnbmbmnnnnSL`~k66666665O  ]]]]]]]",
"]]]]]]]] X196666666gY'(EDNNNnbMNNDL/'Qxr66666665o  ]]]]]]]]",
"]]]]]]]]] .1666666666txQ)_((//((`_~Hge666666665O  ]]]]]]]]]",
"]]]]]]]]]] .<56666666669rulxccclkte66666666661X  ]]]]]]]]]]",
"]]]]]]]]]]]  O166666666666443656666666666665<. ]]]]]]]]]]]]",
"]]]]]]]]]]]]  .<566666666666666666666666651X  ]]]]]]]]]]]]]",
"]]]]]]]]]]]]]]  .<56666666666666666666651O  ]]]]]]]]]]]]]]]",
"]]]]]]]]]]]]]]]]  .O156666666666666652<X   ]]]]]]]]]]]]]]]]",
"]]]]]]]]]]]]]]]]]]   XO<1156665621<<X.   ]]]]]]]]]]]]]]]]]]",
"]]]]]]]]]]]]]]]]]]]]]    ...X.....    ]]]]]]]]]]]]]]]]]]]]]",
"]]]]]]]]]]]]]]]]]]]]]]]]]        ]]]]]]]]]]]]]]]]]]]]]]]]]]",
"]]]]]]]]]]]]]]]]]]]]]]]]]]]]]]]]]]]]]]]]]]]]]]]]]]]]]]]]]]]"
};
