/* XPM */
static char *result[] = {
/* columns rows colors chars-per-pixel */
"59 60 99 2 ",
"   c #77511E",
".  c #79531F",
"X  c #7D5620",
"o  c #BD7415",
"O  c #835B22",
"+  c #885E25",
"@  c #8D6226",
"#  c #8F6328",
"$  c #936724",
"%  c #9A6C26",
"&  c #926629",
"*  c #96692A",
"=  c #9B6D2C",
"-  c #A07127",
";  c #A3732D",
":  c #AC7A2B",
">  c #B17E2D",
",  c #A57430",
"<  c #A97732",
"1  c #AD7A33",
"2  c #B27E33",
"3  c #C07718",
"4  c #C07818",
"5  c #B5812D",
"6  c #BA852F",
"7  c #B68136",
"8  c #B88237",
"9  c #BE8931",
"0  c #C6821F",
"q  c #D28F1D",
"w  c #C88621",
"e  c #CC8B27",
"r  c #CE8E2B",
"t  c #D49224",
"y  c #D89A26",
"u  c #D4952C",
"i  c #D6992F",
"p  c #D89B2B",
"a  c #C48D32",
"s  c #C79034",
"d  c #CB9335",
"f  c #CC9539",
"g  c #D19736",
"h  c #D69935",
"j  c #D99D35",
"k  c #D59B39",
"l  c #D99E3A",
"z  c #DDA334",
"x  c #DCA43D",
"c  c #E2AC3C",
"v  c #DBA345",
"b  c #DFA941",
"n  c #DCA54A",
"m  c #DEA94D",
"M  c #DEAB53",
"N  c #DFAE5B",
"B  c #E3AE41",
"V  c #E5B343",
"C  c #E8B847",
"Z  c #E6B549",
"A  c #EABB4B",
"S  c #E1AD51",
"D  c #ECBF50",
"F  c #E3B35D",
"G  c #E1B364",
"H  c #E5B865",
"J  c #EABE63",
"K  c #E3B66A",
"L  c #E5BA6B",
"P  c #E8BE6A",
"I  c #E6BD73",
"U  c #EDC04E",
"Y  c #EDC151",
"T  c #EEC55F",
"R  c #F0C654",
"E  c #F1C95C",
"W  c #EDC464",
"Q  c #ECC36C",
"!  c #EFC96F",
"~  c #F1CB62",
"^  c #F1CC6B",
"/  c #EAC371",
"(  c #E7C17F",
")  c #E9C47E",
"_  c #ECC87C",
"`  c #F1CD72",
"'  c #F3D27A",
"]  c #E6C081",
"[  c #EFCF86",
"{  c #E9C78C",
"}  c #F2D386",
"|  c #F3D68A",
" . c #EECF93",
".. c #ECCF9A",
"X. c #EDD19D",
"o. c #F0D492",
"O. c #F4DB9E",
"+. c #F1D8A2",
"@. c None",
/* pixels */
"@.@.@.@.@.@.@.@.@.@.@.@.@.@.@.@.@.@.@.@.@.@.@.@.@.@.@.@.@.@.@.@.@.@.@.@.@.@.@.@.@.@.@.@.@.@.@.@.@.@.@.@.@.@.@.@.@.@.@.",
"@.@.@.@.@.@.@.@.@.@.@.@.@.@.@.@.@.@.@.@.@.@.@.@.@.    X X O % ; : : : : @.@.@.@.@.@.@.@.@.@.@.@.@.@.@.@.@.@.@.@.@.@.@.",
"@.@.@.@.@.@.@.@.@.@.@.@.@.@.@.@.@.@.@.@.@.@.@.X X O # = - ; : 5 9 a a 5 : : @.@.@.@.@.@.@.@.@.@.@.@.@.@.@.@.@.@.@.@.@.",
"@.@.@.@.@.@.@.@.@.@.@.@.@.@.@.@.@.@.@.@.@.  X + = 2 2 2 : > a j l l l k s 5 : @.@.@.@.@.@.@.@.@.@.@.@.@.@.@.@.@.@.@.@.",
"@.@.@.@.@.@.@.@.@.@.@.@.@.@.@.@.@.@.@.@.  X * 1 8 8 2 : > d k l l l l l l g 5 @.@.@.@.@.@.@.@.@.@.@.@.@.@.@.@.@.@.@.@.",
"@.@.@.@.@.@.@.@.@.@.@.@.@.@.@.@.@.@.@.. X = 8 8 8 7 : : s l l l l l l l l l f > @.@.@.@.@.@.@.@.@.@.@.@.@.@.@.@.@.@.@.",
"@.@.@.@.@.@.@.@.@.@.@.@.@.@.@.@.@.@.. . = 8 8 8 8 2 : a l l l l l l l l l l l a : @.@.@.@.@.@.@.@.@.@.@.@.@.@.@.@.@.@.",
"@.@.@.@.@.@.@.@.@.@.@.@.@.@.@.@.@.@.  & 7 8 8 8 7 : 5 g l l l l l l l l l l l j 9 @.@.@.@.@.@.@.@.@.@.@.@.@.@.@.@.@.@.",
"@.@.@.@.@.@.@.@.@.@.@.@.@.@.@.@.@.  + 1 8 8 8 8 2 : a l l l l l l l l l l l l l d > @.@.@.@.@.@.@.@.@.@.@.@.@.@.@.@.@.",
"@.@.@.@.@.@.@.@.@.@.@.@.@.@.@.@.@.. = 8 8 8 8 8 : 5 k l l l l l j u q q t h l l k 9 @.@.@.@.@.@.@.@.@.@.@.@.@.@.@.@.@.",
"@.@.@.@.@.@.@.@.@.@.@.@.@.@.@.@.X X 2 8 8 8 8 2 : a l l l l l j q y c V z t p l l d : @.@.@.@.@.@.@.@.@.@.@.@.@.@.@.@.",
"@.@.@.@.@.@.@.@.@.@.@.@.@.@.@.@.X * 2 8 8 8 2 2 > g l l l l l t c Y R R R C p i l k 6 @.@.@.@.@.@.@.@.@.@.@.@.@.@.@.@.",
"@.@.@.@.@.@.@.@.@.@.@.@.@.@.@.. X , 8 8 8 8 8 : 6 k l l l l u z R R R R R R A p h l a @.@.@.@.@.@.@.@.@.@.@.@.@.@.@.@.",
"@.@.@.@.@.@.@.@.@.@.@.@.@.@.@.  O 1 8 8 8 2 2 > s l l l l h y U R R R R R R R V i l d > @.@.@.@.@.@.@.@.@.@.@.@.@.@.@.",
"@.@.@.@.@.@.@.@.@.@.@.@.@.@.@.. * 8 8 8 8 8 2 > d x l l j u c R R R R Y C C R R z h l 5 @.@.@.@.@.@.@.@.@.@.@.@.@.@.@.",
"@.@.@.@.@.@.@.@.@.@.@.@.@.@.@.. = 8 8 2 8 8 > 5 k j l l j z R R R R R Z 4 e A R C i l a @.@.@.@.@.@.@.@.@.@.@.@.@.@.@.",
"@.@.@.@.@.@.@.@.@.@.@.@.@.@.  X , 8 8 8 7 7 : 9 j z l l h c R R R R R h o h D R Y z l d @.@.@.@.@.@.@.@.@.@.@.@.@.@.@.",
"@.@.@.@.@.@.@.@.@.@.@.@.@.@.  O 1 8 8 8 7 7 : s l l l l p U R R R R R e 4 V A Y R V j f @.@.@.@.@.@.@.@.@.@.@.@.@.@.@.",
"@.@.@.@.@.@.@.@.@.@.@.@.@.@.  O 7 8 8 8 7 7 : f l l l k z R R R R R R w 4 B b D R A j g 6 @.@.@.@.@.@.@.@.@.@.@.@.@.@.",
"@.@.@.@.@.@.@.@.@.@.@.@.@.@.  # 7 8 8 8 7 7 : g l l l h c R R R R R R w 4 x b D R Y z h 9 @.@.@.@.@.@.@.@.@.@.@.@.@.@.",
"@.@.@.@.@.@.@.@.@.@.@.@.@.@.X & 7 8 8 8 8 1 5 j l l l i A R R R R R R w 3 h x Y R R c h a @.@.@.@.@.@.@.@.@.@.@.@.@.@.",
"@.@.@.@.@.@.@.@.@.@.@.@.@.@.  * 8 8 8 8 8 1 7 k l l l j U R R R R R R w 3 k x D R R V j d @.@.@.@.@.@.@.@.@.@.@.@.@.@.",
"@.@.@.@.@.@.@.@.@.@.@.@.@.@.X = 8 8 8 8 7 1 8 k l l z x Y R R R R R R w 3 h x Y R R A l d @.@.@.@.@.@.@.@.@.@.@.@.@.@.",
"@.@.@.@.@.@.@.@.@.@.@.@.@.@.X , 8 8 8 8 7 1 a l l l j c R R R R R R R w 3 h x D R R U z d @.@.@.@.@.@.@.@.@.@.@.@.@.@.",
"@.@.@.@.@.@.@.@.@.@.@.@.@.@.X = 8 8 8 8 7 : a l l l h V R R R R R R R w 4 h x Y R R R z d @.@.@.@.@.@.@.@.@.@.@.@.@.@.",
"@.@.@.@.@.@.@.@.@.@.@.@.@.@.X , 8 8 8 8 7 : a l l l h V R R R R R R R w 3 h x D R R R x g @.@.@.@.@.@.@.@.@.@.@.@.@.@.",
"@.@.@.@.@.@.@.@.@.@.@.@.@.@.X 1 8 2 8 8 7 : d j l l j C R R R R R R R w 4 h x Y R R R c g 9 @.@.@.@.@.@.@.@.@.@.@.@.@.",
"@.@.@.@.@.@.@.@.@.@.@.@.@.@.X 1 8 8 8 8 2 : d l l l l A R R R R R R R w 3 k x D R R Y B k 9 @.@.@.@.@.@.@.@.@.@.@.@.@.",
"@.@.@.@.@.@.@.@.@.@.@.@.@.@.X 1 8 8 8 8 7 : d l l l j C R R R R R R R w 3 h x Y R R R c k 9 @.@.@.@.@.@.@.@.@.@.@.@.@.",
"@.@.@.@.@.@.@.@.@.@.@.@.@.@.X 1 8 8 8 8 2 : d l l j x A R R R R R R R w 3 k x D R R R Z k 9 @.@.@.@.@.@.@.@.@.@.@.@.@.",
"@.@.@.@.@.@.@.@.@.@.@.@.@.@.X 1 8 8 8 8 2 : d l l l S T R R R R R R R w 3 h x D R R R J l 9 @.@.@.@.@.@.@.@.@.@.@.@.@.",
"@.@.@.@.@.@.@.@.@.@.@.@.@.@.X 1 8 8 8 8 7 : d l l l F ^ R R R R R R R w 3 h x D R R R W k 9 @.@.@.@.@.@.@.@.@.@.@.@.@.",
"@.@.@.@.@.@.@.@.@.@.@.@.@.@.X 1 8 8 8 8 2 1 d l l l S T R R R R R R R 0 4 h x Y R R R Q k 9 @.@.@.@.@.@.@.@.@.@.@.@.@.",
"@.@.@.@.@.@.@.@.@.@.@.@.@.@.. < 8 8 8 8 8 : a l l l m T R R R R R R R w 3 h x D R R R Q g @.@.@.@.@.@.@.@.@.@.@.@.@.@.",
"@.@.@.@.@.@.@.@.@.@.@.@.@.@.. , 8 8 8 8 8 : a l l k S Q R R R R R R R w 4 h x D R R R J k @.@.@.@.@.@.@.@.@.@.@.@.@.@.",
"@.@.@.@.@.@.@.@.@.@.@.@.@.@.. , 8 2 8 8 2 1 a l l l M W R R R R R R R w 3 k x Y R R R L f @.@.@.@.@.@.@.@.@.@.@.@.@.@.",
"@.@.@.@.@.@.@.@.@.@.@.@.@.@.. , 8 8 8 8 8 : 6 l l l n Q E R R R R R R w 4 j x D R R ~ F f @.@.@.@.@.@.@.@.@.@.@.@.@.@.",
"@.@.@.@.@.@.@.@.@.@.@.@.@.@.X ; 8 7 8 8 8 > 6 l l l l Q E R R R R R R w 4 h x Y R R ^ S a @.@.@.@.@.@.@.@.@.@.@.@.@.@.",
"@.@.@.@.@.@.@.@.@.@.@.@.@.@.  * 8 8 8 8 7 2 > k l l l I E R R R R R R w 4 h x D R R ` n a @.@.@.@.@.@.@.@.@.@.@.@.@.@.",
"@.@.@.@.@.@.@.@.@.@.@.@.@.@.  * 8 8 8 7 8 2 > k l l l L ~ R R R R R R 0 4 h x Y R R / n a @.@.@.@.@.@.@.@.@.@.@.@.@.@.",
"@.@.@.@.@.@.@.@.@.@.@.@.@.@.. # 8 8 8 7 8 2 : g l l l N ` R R R R R R w o h v Y R ~ P k 9 @.@.@.@.@.@.@.@.@.@.@.@.@.@.",
"@.@.@.@.@.@.@.@.@.@.@.@.@.@.  + 8 8 8 8 8 2 : a l l l n } R R R R R R w 4 h x D R ^ H h 2 @.@.@.@.@.@.@.@.@.@.@.@.@.@.",
"@.@.@.@.@.@.@.@.@.@.@.@.@.@.  O 2 8 8 8 8 7 1 a l l l l ) ~ R R R R R w 4 h b Y R ^ N d @.@.@.@.@.@.@.@.@.@.@.@.@.@.@.",
"@.@.@.@.@.@.@.@.@.@.@.@.@.@.. X 1 2 8 8 8 8 1 7 k l l l K ' R R R R R e o h b R E _ l a @.@.@.@.@.@.@.@.@.@.@.@.@.@.@.",
"@.@.@.@.@.@.@.@.@.@.@.@.@.@.@.X , 8 8 8 8 8 > > g l l j M [ E R R R R j o r Z Y ` L k 9 @.@.@.@.@.@.@.@.@.@.@.@.@.@.@.",
"@.@.@.@.@.@.@.@.@.@.@.@.@.@.@.  * 8 8 8 8 8 2 : d l l l l ) ` R R R Y A w u Y R [ m g 5 @.@.@.@.@.@.@.@.@.@.@.@.@.@.@.",
"@.@.@.@.@.@.@.@.@.@.@.@.@.@.@.  + 2 8 8 8 8 7 : a l l l h N o.E R R R Y A A R ` I l a @.@.@.@.@.@.@.@.@.@.@.@.@.@.@.@.",
"@.@.@.@.@.@.@.@.@.@.@.@.@.@.@.  X < 8 8 8 8 8 : > k l l l x ] | R R R E R R ^  .M k 9 @.@.@.@.@.@.@.@.@.@.@.@.@.@.@.@.",
"@.@.@.@.@.@.@.@.@.@.@.@.@.@.@.@.. = 8 8 8 8 8 2 : d l l l l n  .| R R R R ^ o.K l d 5 @.@.@.@.@.@.@.@.@.@.@.@.@.@.@.@.",
"@.@.@.@.@.@.@.@.@.@.@.@.@.@.@.@.. O 2 8 8 8 8 8 : 9 k l l l l M X.O.' ' | +.K l k a @.@.@.@.@.@.@.@.@.@.@.@.@.@.@.@.@.",
"@.@.@.@.@.@.@.@.@.@.@.@.@.@.@.@.@.. = 8 8 8 8 8 > : d l l l l l n ] ....{ N k l g 5 @.@.@.@.@.@.@.@.@.@.@.@.@.@.@.@.@.",
"@.@.@.@.@.@.@.@.@.@.@.@.@.@.@.@.@.  O 1 8 8 8 8 2 : 9 k l l l l z l l l l l l l a @.@.@.@.@.@.@.@.@.@.@.@.@.@.@.@.@.@.",
"@.@.@.@.@.@.@.@.@.@.@.@.@.@.@.@.@.@.  # 2 8 8 8 8 2 : s l l l l l l l l l l l d 5 @.@.@.@.@.@.@.@.@.@.@.@.@.@.@.@.@.@.",
"@.@.@.@.@.@.@.@.@.@.@.@.@.@.@.@.@.@.  X * 2 8 8 8 2 : 5 g l l l l l l l l l k 9 @.@.@.@.@.@.@.@.@.@.@.@.@.@.@.@.@.@.@.",
"@.@.@.@.@.@.@.@.@.@.@.@.@.@.@.@.@.@.@.X X # 1 8 8 8 2 : 6 g l l l l l l l k 9 : @.@.@.@.@.@.@.@.@.@.@.@.@.@.@.@.@.@.@.",
"@.@.@.@.@.@.@.@.@.@.@.@.@.@.@.@.@.@.@.@.X X + , 2 8 8 > : 5 d l l l l l g 9 : @.@.@.@.@.@.@.@.@.@.@.@.@.@.@.@.@.@.@.@.",
"@.@.@.@.@.@.@.@.@.@.@.@.@.@.@.@.@.@.@.@.@.@.X X O * , < : : > a d g g a > : @.@.@.@.@.@.@.@.@.@.@.@.@.@.@.@.@.@.@.@.@.",
"@.@.@.@.@.@.@.@.@.@.@.@.@.@.@.@.@.@.@.@.@.@.@.X     X X O $ - : : 5 : : : @.@.@.@.@.@.@.@.@.@.@.@.@.@.@.@.@.@.@.@.@.@.",
"@.@.@.@.@.@.@.@.@.@.@.@.@.@.@.@.@.@.@.@.@.@.@.@.@.@.@..   . @ - : : : @.@.@.@.@.@.@.@.@.@.@.@.@.@.@.@.@.@.@.@.@.@.@.@.",
"@.@.@.@.@.@.@.@.@.@.@.@.@.@.@.@.@.@.@.@.@.@.@.@.@.@.@.@.@.@.@.@.@.@.@.@.@.@.@.@.@.@.@.@.@.@.@.@.@.@.@.@.@.@.@.@.@.@.@."
};
