/* XPM */
static char *result[] = {
/* columns rows colors chars-per-pixel */
"59 60 99 2 ",
"   c #77511E",
".  c #79531E",
"X  c #7D5620",
"o  c #BE7415",
"O  c #835B23",
"+  c #895F23",
"@  c #8C6226",
"#  c #976A26",
"$  c #9D6E27",
"%  c #926629",
"&  c #96692A",
"*  c #9B6D2C",
"=  c #A3732D",
"-  c #A8772A",
";  c #AC7A2B",
":  c #B17E2D",
">  c #A57430",
",  c #A97732",
"<  c #AE7A33",
"1  c #B27E33",
"2  c #C37D1C",
"3  c #B5812E",
"4  c #BA852F",
"5  c #B68136",
"6  c #B88237",
"7  c #BE8931",
"8  c #C5811E",
"9  c #D28F1D",
"0  c #D2901F",
"q  c #CE8E29",
"w  c #D49324",
"e  c #D5962B",
"r  c #D7982D",
"t  c #D99C2C",
"y  c #C38C32",
"u  c #C79034",
"i  c #CC9435",
"p  c #CD9538",
"a  c #D19736",
"s  c #D59934",
"d  c #D99D35",
"f  c #D59B39",
"g  c #D99E3A",
"h  c #DBA02F",
"j  c #DCA236",
"k  c #DDA43E",
"l  c #DDA83D",
"z  c #E1AB3B",
"x  c #D59E41",
"c  c #DBA343",
"v  c #DEA840",
"b  c #DBA54A",
"n  c #DFAA4C",
"m  c #DEAB55",
"M  c #E2AE45",
"N  c #E6B443",
"B  c #E8B747",
"V  c #E9B847",
"C  c #E6B749",
"Z  c #EABC4D",
"A  c #E1AE53",
"S  c #E0AF5D",
"D  c #E3B253",
"F  c #E1B15B",
"G  c #E7B95C",
"H  c #E8BA5E",
"J  c #E2B362",
"K  c #E6B964",
"L  c #E8BB60",
"P  c #E3B66B",
"I  c #E4B86D",
"U  c #E8BC68",
"Y  c #EDC14F",
"T  c #EFC453",
"R  c #F0C654",
"E  c #F1C95C",
"W  c #EEC664",
"Q  c #EBC36D",
"!  c #EFCA6C",
"~  c #F1CA63",
"^  c #F1CD6C",
"/  c #E7C077",
"(  c #EAC373",
")  c #EDC875",
"_  c #E9C278",
"`  c #F1CF78",
"'  c #F2D073",
"]  c #F2D27B",
"[  c #E8C487",
"{  c #ECCA83",
"}  c #EBCA8B",
"|  c #F1D183",
" . c #F2D48C",
".. c #EED192",
"X. c #EED29D",
"o. c #F3D891",
"O. c #F4DA98",
"+. c #EFD5A4",
"@. c None",
/* pixels */
"@.@.@.@.@.@.@.@.@.@.@.@.@.@.@.@.@.@.@.@.@.@.@.@.@.@.@.@.@.@.@.@.@.@.@.@.@.@.@.@.@.@.@.@.@.@.@.@.@.@.@.@.@.@.@.@.@.@.@.",
"@.@.@.@.@.@.@.@.@.@.@.@.@.@.@.@.@.@.@.@.@.@.@.; ; ; ; - $ + . .       @.@.@.@.@.@.@.@.@.@.@.@.@.@.@.@.@.@.@.@.@.@.@.@.",
"@.@.@.@.@.@.@.@.@.@.@.@.@.@.@.@.@.@.@.@.@.@.; 3 7 y y 3 ; - $ * % O .   . @.@.@.@.@.@.@.@.@.@.@.@.@.@.@.@.@.@.@.@.@.@.",
"@.@.@.@.@.@.@.@.@.@.@.@.@.@.@.@.@.@.@.@.@.: y f g g g f u : ; 1 5 1 = @ . . @.@.@.@.@.@.@.@.@.@.@.@.@.@.@.@.@.@.@.@.@.",
"@.@.@.@.@.@.@.@.@.@.@.@.@.@.@.@.@.@.@.@.: i g g g g g g g i 3 ; 5 5 6 5 * X   @.@.@.@.@.@.@.@.@.@.@.@.@.@.@.@.@.@.@.@.",
"@.@.@.@.@.@.@.@.@.@.@.@.@.@.@.@.@.@.@.: u g g g g g g g g g i : ; 5 6 6 6 > X X @.@.@.@.@.@.@.@.@.@.@.@.@.@.@.@.@.@.@.",
"@.@.@.@.@.@.@.@.@.@.@.@.@.@.@.@.@.@.; 7 g g g g g g g g g g g y ; ; 6 6 6 6 > X . @.@.@.@.@.@.@.@.@.@.@.@.@.@.@.@.@.@.",
"@.@.@.@.@.@.@.@.@.@.@.@.@.@.@.@.@.@.3 f g g g g g g g g g g g d 5 ; 5 6 6 6 6 * . . @.@.@.@.@.@.@.@.@.@.@.@.@.@.@.@.@.",
"@.@.@.@.@.@.@.@.@.@.@.@.@.@.@.@.@.; u g g g k j g g g g g g g g i ; : 5 5 6 6 1 @ . @.@.@.@.@.@.@.@.@.@.@.@.@.@.@.@.@.",
"@.@.@.@.@.@.@.@.@.@.@.@.@.@.@.@.@.3 d g g d w 0 9 e d d g g g g g 4 ; 5 6 6 6 6 = . . @.@.@.@.@.@.@.@.@.@.@.@.@.@.@.@.",
"@.@.@.@.@.@.@.@.@.@.@.@.@.@.@.@.@.y g g s w h z z t 0 d g g g g g u ; 5 6 6 6 6 1 + . @.@.@.@.@.@.@.@.@.@.@.@.@.@.@.@.",
"@.@.@.@.@.@.@.@.@.@.@.@.@.@.@.@.3 a g d w N R R R T z 0 d g g g g d 3 < 5 6 6 6 6 * . @.@.@.@.@.@.@.@.@.@.@.@.@.@.@.@.",
"@.@.@.@.@.@.@.@.@.@.@.@.@.@.@.@.7 g d e N R R R R R R z w g g g g g 7 ; 1 6 6 6 6 , O X @.@.@.@.@.@.@.@.@.@.@.@.@.@.@.",
"@.@.@.@.@.@.@.@.@.@.@.@.@.@.@.@.u g d z R R R R R R R Y j r g g g g u ; 1 6 6 6 6 6 @   @.@.@.@.@.@.@.@.@.@.@.@.@.@.@.",
"@.@.@.@.@.@.@.@.@.@.@.@.@.@.@.3 a d t T R Z N Y R R R R B e f g g g f : < 6 6 6 6 6 & X @.@.@.@.@.@.@.@.@.@.@.@.@.@.@.",
"@.@.@.@.@.@.@.@.@.@.@.@.@.@.@.4 g d z R T d 2 l R R R R R z s g g g g 7 ; 5 6 6 6 6 > X @.@.@.@.@.@.@.@.@.@.@.@.@.@.@.",
"@.@.@.@.@.@.@.@.@.@.@.@.@.@.@.y g d Z R R N 2 q T R R R R N d d g g g y < 1 6 6 6 6 < O   @.@.@.@.@.@.@.@.@.@.@.@.@.@.",
"@.@.@.@.@.@.@.@.@.@.@.@.@.@.@.i d l R R Z M 2 2 Z R R R R R d d g g g p ; 1 6 6 6 6 1 O X @.@.@.@.@.@.@.@.@.@.@.@.@.@.",
"@.@.@.@.@.@.@.@.@.@.@.@.@.@.: a r N R R M c 2 8 Z R R R R R z d g g g f : 1 6 6 6 6 6 % X @.@.@.@.@.@.@.@.@.@.@.@.@.@.",
"@.@.@.@.@.@.@.@.@.@.@.@.@.@.3 f j Z R R z g 2 2 Z R R R R R C r g g g f : : 6 6 6 6 1 & X @.@.@.@.@.@.@.@.@.@.@.@.@.@.",
"@.@.@.@.@.@.@.@.@.@.@.@.@.@.y a j R R T l g 2 2 Z R R R R R Z r g g g f 3 1 6 6 6 6 6 * X @.@.@.@.@.@.@.@.@.@.@.@.@.@.",
"@.@.@.@.@.@.@.@.@.@.@.@.@.@.y d z R R T c g 2 2 Z R R R R R R j g g g g y : 1 6 6 6 1 > X @.@.@.@.@.@.@.@.@.@.@.@.@.@.",
"@.@.@.@.@.@.@.@.@.@.@.@.@.@.u g N R R R l g 2 2 Z R R R R R R z d d g g y ; 6 6 6 6 6 , X @.@.@.@.@.@.@.@.@.@.@.@.@.@.",
"@.@.@.@.@.@.@.@.@.@.@.@.@.@.u j V R R R c g 2 2 Z R R R R R R M d g g g y - 6 6 6 6 6 < X @.@.@.@.@.@.@.@.@.@.@.@.@.@.",
"@.@.@.@.@.@.@.@.@.@.@.@.@.@.i g Z R R R c g 2 2 Z R R R R R R V d g g g i ; 1 6 6 6 6 < . @.@.@.@.@.@.@.@.@.@.@.@.@.@.",
"@.@.@.@.@.@.@.@.@.@.@.@.@.@.u j R R R R l g 2 2 Z R R R R R R V d g g g i - 1 6 6 6 6 < X . @.@.@.@.@.@.@.@.@.@.@.@.@.",
"@.@.@.@.@.@.@.@.@.@.@.@.@.@.i j R R R R l d 2 2 Z R R R R R R Z j g g g i ; 1 6 6 6 6 1 O   @.@.@.@.@.@.@.@.@.@.@.@.@.",
"@.@.@.@.@.@.@.@.@.@.@.@.@.@.i z R R R R c g 2 2 Z R R R R R R Z l g g g a : 1 6 6 6 6 1 O   @.@.@.@.@.@.@.@.@.@.@.@.@.",
"@.@.@.@.@.@.@.@.@.@.@.@.@.@.i M Z R R R l g 2 2 Z R R R R R R Z g g g g p : 1 6 6 6 6 1 O . @.@.@.@.@.@.@.@.@.@.@.@.@.",
"@.@.@.@.@.@.@.@.@.@.@.@.@.@.a M R R R R c g 2 2 Z R R R R R R Z l g g g i 1 1 6 6 6 6 1 O   @.@.@.@.@.@.@.@.@.@.@.@.@.",
"@.@.@.@.@.@.@.@.@.@.@.@.@.@.a H R R R R k g 2 8 Z R R R R R R ~ A d g g a : 1 6 6 6 6 < O . @.@.@.@.@.@.@.@.@.@.@.@.@.",
"@.@.@.@.@.@.@.@.@.@.@.@.@.@.a G R R R R l d 2 8 Z R R R R R R ^ H g g g i : 1 6 6 6 6 1 O . @.@.@.@.@.@.@.@.@.@.@.@.@.",
"@.@.@.@.@.@.@.@.@.@.@.@.@.@.p L R R R T c g 2 2 Z R R R R R R W A d g g p : 1 1 6 6 y < O . @.@.@.@.@.@.@.@.@.@.@.@.@.",
"@.@.@.@.@.@.@.@.@.@.@.@.@.@.p U R R R T c g 2 2 Z R R R R R R E A d g g u ; 1 6 6 6 1 < O . @.@.@.@.@.@.@.@.@.@.@.@.@.",
"@.@.@.@.@.@.@.@.@.@.@.@.@.@.p J R R R T l g 2 2 Z R R R R R R ^ S g g g i ; 1 6 6 6 6 1 X X @.@.@.@.@.@.@.@.@.@.@.@.@.",
"@.@.@.@.@.@.@.@.@.@.@.@.@.@.u F ~ R R R l g 2 2 Z R R R R R R W A g g g i : 1 6 6 6 6 1 X @.@.@.@.@.@.@.@.@.@.@.@.@.@.",
"@.@.@.@.@.@.@.@.@.@.@.@.@.@.u M ' R R T k g 2 8 Z R R R R R R W A d g g y ; 6 6 6 6 6 < X @.@.@.@.@.@.@.@.@.@.@.@.@.@.",
"@.@.@.@.@.@.@.@.@.@.@.@.@.@.y n ^ R R T c g 2 2 Z R R R R R R ) n g g g y < 1 6 6 6 6 ,   @.@.@.@.@.@.@.@.@.@.@.@.@.@.",
"@.@.@.@.@.@.@.@.@.@.@.@.@.@.y x Q R R T l g 2 2 Z R R R R R ~ ) x g g f 7 ; 1 6 6 6 6 > X @.@.@.@.@.@.@.@.@.@.@.@.@.@.",
"@.@.@.@.@.@.@.@.@.@.@.@.@.@.7 x U E R R k g 2 2 Z R R R R R E I d g g g : 1 6 6 6 6 6 * X @.@.@.@.@.@.@.@.@.@.@.@.@.@.",
"@.@.@.@.@.@.@.@.@.@.@.@.@.@.1 a J ^ R R j g 2 2 Z R T R R T ^ I g g g f ; 1 6 6 6 1 6 * X @.@.@.@.@.@.@.@.@.@.@.@.@.@.",
"@.@.@.@.@.@.@.@.@.@.@.@.@.@.@.i J ! R R c g 2 8 Z R R R R T ] m g g g a ; 1 6 6 6 6 6 %   @.@.@.@.@.@.@.@.@.@.@.@.@.@.",
"@.@.@.@.@.@.@.@.@.@.@.@.@.@.@.u b ) E T z g 2 2 Z R R R R E { c g g g y < 5 6 6 6 6 6 + X @.@.@.@.@.@.@.@.@.@.@.@.@.@.",
"@.@.@.@.@.@.@.@.@.@.@.@.@.@.@.7 g _ E R M g 2 2 T R R R R ^ / g g g g 7 ; 5 6 6 6 6 1 O   @.@.@.@.@.@.@.@.@.@.@.@.@.@.",
"@.@.@.@.@.@.@.@.@.@.@.@.@.@.@.3 f S ` R Z i o q T R R R T | S g g g g 3 < 6 6 6 6 6 , X   @.@.@.@.@.@.@.@.@.@.@.@.@.@.",
"@.@.@.@.@.@.@.@.@.@.@.@.@.@.@.@.u c { E T j 2 N T R R R ^ [ c g g g i : < 6 6 6 6 6 * X @.@.@.@.@.@.@.@.@.@.@.@.@.@.@.",
"@.@.@.@.@.@.@.@.@.@.@.@.@.@.@.@.y f J | R Z C T R R R R  .P g g g j y ; 1 6 6 6 6 6 %   @.@.@.@.@.@.@.@.@.@.@.@.@.@.@.",
"@.@.@.@.@.@.@.@.@.@.@.@.@.@.@.@.7 f c } ] R R R R R R ] } c g g g g 4 ; 6 6 6 6 6 < O X @.@.@.@.@.@.@.@.@.@.@.@.@.@.@.",
"@.@.@.@.@.@.@.@.@.@.@.@.@.@.@.@.@.i g m ..^ R R T R ] X.m g g g g p ; ; 6 6 6 6 6 > X @.@.@.@.@.@.@.@.@.@.@.@.@.@.@.@.",
"@.@.@.@.@.@.@.@.@.@.@.@.@.@.@.@.@.y f g S X.o.] ` O.+.J g g g g g y ; 5 6 6 6 6 1 @   @.@.@.@.@.@.@.@.@.@.@.@.@.@.@.@.",
"@.@.@.@.@.@.@.@.@.@.@.@.@.@.@.@.@.: i g g m [ X.X.[ m g g g g g a 3 < 5 6 6 6 6 > X . @.@.@.@.@.@.@.@.@.@.@.@.@.@.@.@.",
"@.@.@.@.@.@.@.@.@.@.@.@.@.@.@.@.@.@.7 g g g g g g g g g g g g g 7 ; 1 5 6 6 6 1 @ . @.@.@.@.@.@.@.@.@.@.@.@.@.@.@.@.@.",
"@.@.@.@.@.@.@.@.@.@.@.@.@.@.@.@.@.@.: u g g g g g g g g g g j i ; < 6 6 6 6 6 & . . @.@.@.@.@.@.@.@.@.@.@.@.@.@.@.@.@.",
"@.@.@.@.@.@.@.@.@.@.@.@.@.@.@.@.@.@.@.3 a g g g g g g g g g f 3 ; 1 6 6 6 6 * X . @.@.@.@.@.@.@.@.@.@.@.@.@.@.@.@.@.@.",
"@.@.@.@.@.@.@.@.@.@.@.@.@.@.@.@.@.@.@.; 4 f g g g g g g g f 4 ; : 6 6 6 1 & X X @.@.@.@.@.@.@.@.@.@.@.@.@.@.@.@.@.@.@.",
"@.@.@.@.@.@.@.@.@.@.@.@.@.@.@.@.@.@.@.@.; 4 a g g g g g a 7 ; : 5 6 1 > @ X   @.@.@.@.@.@.@.@.@.@.@.@.@.@.@.@.@.@.@.@.",
"@.@.@.@.@.@.@.@.@.@.@.@.@.@.@.@.@.@.@.@.@.; : 7 i a a y 3 ; ; < > & @ X . . @.@.@.@.@.@.@.@.@.@.@.@.@.@.@.@.@.@.@.@.@.",
"@.@.@.@.@.@.@.@.@.@.@.@.@.@.@.@.@.@.@.@.@.@.; ; ; : ; ; - $ O . X X   X @.@.@.@.@.@.@.@.@.@.@.@.@.@.@.@.@.@.@.@.@.@.@.",
"@.@.@.@.@.@.@.@.@.@.@.@.@.@.@.@.@.@.@.@.@.@.@.@.; ; ; = @ .     @.@.@.@.@.@.@.@.@.@.@.@.@.@.@.@.@.@.@.@.@.@.@.@.@.@.@.",
"@.@.@.@.@.@.@.@.@.@.@.@.@.@.@.@.@.@.@.@.@.@.@.@.@.@.@.@.@.@.@.@.@.@.@.@.@.@.@.@.@.@.@.@.@.@.@.@.@.@.@.@.@.@.@.@.@.@.@."
};
