/* XPM */
static char *result[] = {
/* columns rows colors chars-per-pixel */
"59 60 113 2 ",
"   c #77511E",
".  c #79531E",
"X  c #7D5620",
"o  c #7F5821",
"O  c #835A22",
"+  c #895F25",
"@  c #8C6225",
"#  c #8E6328",
"$  c #916525",
"%  c #976A26",
"&  c #9B6D27",
"*  c #916528",
"=  c #96692B",
"-  c #9B6D2C",
";  c #9F7027",
":  c #9F702E",
">  c #A3732C",
",  c #A9772A",
"<  c #AC7A2B",
"1  c #B17E2D",
"2  c #A97732",
"3  c #AD7A33",
"4  c #B27E33",
"5  c #C17A19",
"6  c #B5812D",
"7  c #B9852F",
"8  c #B68136",
"9  c #B98336",
"0  c #BE8931",
"q  c #D28E1A",
"w  c #D4911F",
"e  c #C98625",
"r  c #CB8A27",
"t  c #CC8A29",
"y  c #D49324",
"u  c #D79927",
"i  c #D89A26",
"p  c #D5962C",
"a  c #D7992D",
"s  c #D99C2D",
"d  c #C28C32",
"f  c #C79034",
"g  c #CC9335",
"h  c #D09737",
"j  c #D59934",
"k  c #D89C35",
"l  c #D59B39",
"z  c #D99E3A",
"x  c #DCA22F",
"c  c #DDA434",
"v  c #DBA23D",
"b  c #DFAA3C",
"n  c #E0A937",
"m  c #E2AC3B",
"M  c #E5B13F",
"N  c #DBA242",
"B  c #DCA64A",
"V  c #DEAB52",
"C  c #DFAD5A",
"Z  c #E3AF45",
"A  c #E5B344",
"S  c #E9B946",
"D  c #E6B648",
"F  c #E7B84A",
"G  c #EABC4B",
"H  c #E0AD55",
"J  c #E0AE58",
"K  c #E0B05F",
"L  c #E7B959",
"P  c #E1B263",
"I  c #E5B965",
"U  c #E8BD64",
"Y  c #E2B56B",
"T  c #E5BC74",
"R  c #E5BD7A",
"E  c #EEC14F",
"W  c #EEC452",
"Q  c #EEC458",
"!  c #F0C654",
"~  c #F2CB56",
"^  c #F0C758",
"/  c #F1C95D",
"(  c #F6D15A",
")  c #EFC866",
"_  c #E8C06F",
"`  c #EFC969",
"'  c #F1CA62",
"]  c #F2CD6A",
"[  c #ECC775",
"{  c #EFCA74",
"}  c #F2CF74",
"|  c #F1CE79",
" . c #F2D075",
".. c #F2D27A",
"X. c #E7C180",
"o. c #E9C483",
"O. c #ECCA85",
"+. c #E9C68C",
"@. c #F2D383",
"#. c #F2D58C",
"$. c #ECCD96",
"%. c #ECCD98",
"&. c #EFD190",
"*. c #EED29E",
"=. c #F3D792",
"-. c #F3D890",
";. c #F0D69C",
":. c #F3DA9E",
">. c #EFD5A6",
",. c #F1D7A3",
"<. c #F2D9A3",
"1. c #F3DCA9",
"2. c None",
/* pixels */
"2.2.2.2.2.2.2.2.2.2.2.2.2.2.2.2.2.2.2.2.2.2.2.2.2.2.2.2.2.2.2.2.2.2.2.2.2.2.2.2.2.2.2.2.2.2.2.2.2.2.2.2.2.2.2.2.2.2.2.",
"2.2.2.2.2.2.2.2.2.2.2.2.2.2.2.2.2.2.2.2.2.2.< < < < < < < , > % @ O     2.2.2.2.2.2.2.2.2.2.2.2.2.2.2.2.2.2.2.2.2.2.2.",
"2.2.2.2.2.2.2.2.2.2.2.2.2.2.2.2.2.2.2.< < < 6 0 d f g f d 0 6 < , > $ O .     2.2.2.2.2.2.2.2.2.2.2.2.2.2.2.2.2.2.2.2.",
"2.2.2.2.2.2.2.2.2.2.2.2.2.2.2.2.2.2.< 1 0 g l z z z z z z z k g 0 1 , , - @ O     2.2.2.2.2.2.2.2.2.2.2.2.2.2.2.2.2.2.",
"2.2.2.2.2.2.2.2.2.2.2.2.2.2.2.2.< < 7 g z z z z z z z z z z z z l h 0 < , 1 > + .   2.2.2.2.2.2.2.2.2.2.2.2.2.2.2.2.2.",
"2.2.2.2.2.2.2.2.2.2.2.2.2.2.2.< 1 d z z z z z z z z z z z z z z z z l f 1 < 4 4 > O   2.2.2.2.2.2.2.2.2.2.2.2.2.2.2.2.",
"2.2.2.2.2.2.2.2.2.2.2.2.2.2.< 6 g z z z z z z z z z z z z z z z z z z z h 1 1 4 8 2 +     2.2.2.2.2.2.2.2.2.2.2.2.2.2.",
"2.2.2.2.2.2.2.2.2.2.2.2.2.< 6 g v z z z z z z z z z z z z z z v z z z z z l 1 < 4 8 4 #     2.2.2.2.2.2.2.2.2.2.2.2.2.",
"2.2.2.2.2.2.2.2.2.2.2.2.2.1 g z z z z z z z k j j a k k k z z z z z z z z z j 1 < 4 9 4 + X 2.2.2.2.2.2.2.2.2.2.2.2.2.",
"2.2.2.2.2.2.2.2.2.2.2.2.< g z z z z z l y y q w y y q w y j z z l z z z z z z g 1 < 4 9 4 + X 2.2.2.2.2.2.2.2.2.2.2.2.",
"2.2.2.2.2.2.2.2.2.2.2.< d z z z z z a q u m G E W E G A x w y j z z z z z z z z d < 3 8 9 3 O   2.2.2.2.2.2.2.2.2.2.2.",
"2.2.2.2.2.2.2.2.2.2.2.6 l z z z z y i M W ^ ! W ! ! ! ! ! S x y j z z z z z z z l 6 3 4 9 4 : O . 2.2.2.2.2.2.2.2.2.2.",
"2.2.2.2.2.2.2.2.2.2.1 g z z z k y x G ! ! ! ! ! ! ! ! ! ! ! ! M w y z z z z z z z h 1 < 4 9 4 *   2.2.2.2.2.2.2.2.2.2.",
"2.2.2.2.2.2.2.2.2.< 7 z z z z y c W ! ! ! W ! ! ! ! ! ! ! ! ! ! S i a z z z z z z z d , 4 9 d 3 O   2.2.2.2.2.2.2.2.2.",
"2.2.2.2.2.2.2.2.2.< g z z z y c W ! ! ! W F k t m W ! ! ! ! ! ! ! S y k z z z z z z g 1 3 4 4 9 - . 2.2.2.2.2.2.2.2.2.",
"2.2.2.2.2.2.2.2.2.0 z z z j c G ! ! ! ^ G G D t 5 Z ! ! ! ! ! ! ! ! M y z z z z z z l 7 1 4 9 9 4 O   2.2.2.2.2.2.2.2.",
"2.2.2.2.2.2.2.2.< g z z z i S ! ! ! ! G W ( W v 5 t W ! ! ! ! ! ! ! ! x p z z z z z z g 1 1 4 9 9 = X 2.2.2.2.2.2.2.2.",
"2.2.2.2.2.2.2.2.4 j z z a n ^ ! ! ! ^ G ~ G v v t 5 W ! ! ! ! ! ! ! ! G i k z z z z z j 1 , 4 9 9 2 X   2.2.2.2.2.2.2.",
"2.2.2.2.2.2.2.< d z z z s G ! ! ! ! ! F W N z z t 5 F ! ! ! ! ! ! ! ! ! m p z z z z z z d , 4 9 8 4 #   2.2.2.2.2.2.2.",
"2.2.2.2.2.2.2.1 g z z a A ! ! ! ! ! ! F W v z v t 5 F ! ! ! ! ! ! ! ! ^ G x k z z z z z g < 1 9 9 9 : X 2.2.2.2.2.2.2.",
"2.2.2.2.2.2.2.1 j z z k G ! ! ! ! ! ^ D D v z z r 5 D ! ! ! ! ! ! ! ! ! ! n k z z z z z l 4 < 4 9 9 3 o   2.2.2.2.2.2.",
"2.2.2.2.2.2.2.7 l z k n ! ! ! ! ! ! W Z z z z z r 5 D ! ! ! ! ! ! ! ! ! ! S s z z z z z k 4 1 4 9 9 8 + X 2.2.2.2.2.2.",
"2.2.2.2.2.2.2.d z z k A ! ! ! ! ! ! ! A z z z z r 5 D ! ! ! ! ! ! ! ! ! ! ! k k z z z z z d , 4 9 9 8 = X 2.2.2.2.2.2.",
"2.2.2.2.2.2.< g z k k G ! ! ! ! ! ! ! A z z z z r 5 D ! ! ! ! ! ! ! ! ! ! ! n k z z z z z f , 4 9 8 8 : X 2.2.2.2.2.2.",
"2.2.2.2.2.2.1 h z z n G ^ ! ! ! ! ! ^ Z z z z v r 5 D ! ! ! ! ! ! ! ! ! ! ! S a z z z z l g , 4 8 9 9 2 X 2.2.2.2.2.2.",
"2.2.2.2.2.2.1 h z z n ! ! ! ! ! ! ! ^ Z z z z z r 5 D ! ! ! ! ! ! ! ! ! ! ! G k z z z z z h < 1 8 9 9 3 X   2.2.2.2.2.",
"2.2.2.2.2.2.6 j z z A ! ! ! ^ ! ! ! ! Z z z z z t 5 D ! ! ! ! ! ! ! ! ! ! ! G z z z z z z j 1 3 8 9 9 3 o   2.2.2.2.2.",
"2.2.2.2.2.2.0 l z z A ! ! ! ^ ! ! ! ! Z z z z z t 5 D ! ! ! ! ! ! ! ! ! ! ! G n z z z z z l 1 < 8 9 9 8 # X 2.2.2.2.2.",
"2.2.2.2.2.2.7 l z k S ! ! ! ! ! ! ! ! Z z z z z t 5 D ! ! ! ! ! ! ! ! ! ! ! G n z z z z z l 4 < 8 9 8 8 +   2.2.2.2.2.",
"2.2.2.2.2.2.7 l z z G ^ ! ! ! ! ! ! ! Z z z z z t 5 D ! ! ! ! ! ! ! ! ! ! ! ^ Z z z z z z l 1 3 8 8 9 3 +   2.2.2.2.2.",
"2.2.2.2.2.2.7 l z H ^ ! ! ! ! ! ! ! ! Z l z z z t 5 D ! ! ! ! ! ! ^ ! ! ! ! ^ L l z z z z l 4 3 8 9 9 8 #   2.2.2.2.2.",
"2.2.2.2.2.2.7 h l H ) ! ! ! ! ! ! ! ! Z z z z z e 5 D ! ! ! ! ! ! ! ! ! ! ! ' U z z z z N l 4 3 8 9 8 3 + X 2.2.2.2.2.",
"2.2.2.2.2.2.7 j z N ` ! ! ! ! ! ! ! ^ Z k z z z r 5 D ^ ! ! ! ! ! ! ! ! ! ! / I l z z z z l 1 < 8 9 9 8 O   2.2.2.2.2.",
"2.2.2.2.2.2.6 h z N { ! ! ! ! ! ! ! ! Z z z z z r 5 D ^ ! ! ! ! ! ! ! ! ! ! / I z z z z z h 1 1 8 9 9 3 X X 2.2.2.2.2.",
"2.2.2.2.2.2.< h z v [ ! ! ! ! ! ! ! ^ Z z z z z r 5 D ! ! ! ! ! ! ! ! ! ! ! ' I k z z z l g < 4 8 9 4 2 X 2.2.2.2.2.2.",
"2.2.2.2.2.2.< g z v T ! ! ! ! ^ ! ! ! Z z z z z r 5 D ! ! ! ! ! ! ! ! ! ! ! ) K z z z z z f , 1 9 8 8 2   2.2.2.2.2.2.",
"2.2.2.2.2.2.< d z z I ] ! ! ! ! ! ! ! A z z z v r 5 D ^ ! ! ! ! ! ! ! ! ! ! | B z z z z z d , 4 9 4 9 - X 2.2.2.2.2.2.",
"2.2.2.2.2.2.2.0 z z H } ! ! ! ! ! ! ! Z z z z z r 5 A ! ! ! ! ! ! ! ! ! ! ! O.N z z z z z 0 , 4 9 9 8 # X 2.2.2.2.2.2.",
"2.2.2.2.2.2.2.6 l z B [ ! ! ! ! ! ! ^ Z z z z z r 5 D ^ ! ! ! ! ! ! ! ! ! ] T z z z z z l 1 1 4 9 9 3 O   2.2.2.2.2.2.",
"2.2.2.2.2.2.2.1 g z z _ ] W ! ! ! ! ! Z l z z z t 5 D ^ ! ! ! ! ! ! ! ! ! | J z z z z l g 1 1 9 9 9 > X 2.2.2.2.2.2.2.",
"2.2.2.2.2.2.2.< d z z P } ^ ! ! ! ! ! Z k z z v r 5 S ! ! ! ! ! ! ! ! ! / O.B z z z z z d , 4 9 9 9 *   2.2.2.2.2.2.2.",
"2.2.2.2.2.2.2.2.0 z z N O.' ! ! ! ! ^ Z z z z z r 5 D ! ! ! ! ! ! ! ! ! ..T l z z z z l 0 < 9 4 9 3 +   2.2.2.2.2.2.2.",
"2.2.2.2.2.2.2.2.< g z z P @.! ! ! ! ^ Z z z z z r 5 F ^ ! ! ! ! ! ! ! / =.H z z z z z h < 1 4 9 9 > X 2.2.2.2.2.2.2.2.",
"2.2.2.2.2.2.2.2., d z z N o.] ! ! ! ! D z z z z r 5 G ! ! ! ! ! ! ! ! #.R l z z z z z d < 4 9 9 4 @   2.2.2.2.2.2.2.2.",
"2.2.2.2.2.2.2.2.2.6 h z z J =.' ! ! ! E v z v j 5 t ^ ^ ! ! ! ! ! ! } &.B z z z z z l 1 < 4 9 9 > X   2.2.2.2.2.2.2.2.",
"2.2.2.2.2.2.2.2.2.< d z z z T #.^ ^ ! ! D v j e 5 D ! ^ ! ! ! ! ! ] ,.J l z z z z z d 1 4 4 9 4 @ . 2.2.2.2.2.2.2.2.2.",
"2.2.2.2.2.2.2.2.2.2.4 h z z N X.@.^ ! ! ^ F c j Z ! ! ! ! ! ! ! ] ,.T z z z z z z l 4 < 4 9 9 : .   2.2.2.2.2.2.2.2.2.",
"2.2.2.2.2.2.2.2.2.2., 0 z z z N o.=./ ! ! ! W W ! ! ! ! ! ! ! } ,.R N z z z z z l d < 4 9 4 3 O   2.2.2.2.2.2.2.2.2.2.",
"2.2.2.2.2.2.2.2.2.2.2.< g z z z N [ >...W ! ! ! ^ ! ! ^ ! ' #.,.Y z z z z z z z g 1 < 8 8 4 #   2.2.2.2.2.2.2.2.2.2.2.",
"2.2.2.2.2.2.2.2.2.2.2.2.6 h z z z l Y *.<.@.] ^ / / / ] -.1.$.C v z z z z z z l 6 < 1 9 8 =     2.2.2.2.2.2.2.2.2.2.2.",
"2.2.2.2.2.2.2.2.2.2.2.2.< 7 h z z z z B Y %.<.,.<.<.<.>.+.K N z z z z z z z l 0 < 3 8 9 - X   2.2.2.2.2.2.2.2.2.2.2.2.",
"2.2.2.2.2.2.2.2.2.2.2.2.2.< d z z z z z z v B C P K C B z z z z z z z z z l d < < 8 8 > O X 2.2.2.2.2.2.2.2.2.2.2.2.2.",
"2.2.2.2.2.2.2.2.2.2.2.2.2.2.< 0 j z z z z z z z k k z z z z z z z z z z l d < < 8 8 = .   2.2.2.2.2.2.2.2.2.2.2.2.2.2.",
"2.2.2.2.2.2.2.2.2.2.2.2.2.2.2.< 0 g z z z z z z z z z z z z z z z z z h 0 , < 4 3 * .   2.2.2.2.2.2.2.2.2.2.2.2.2.2.2.",
"2.2.2.2.2.2.2.2.2.2.2.2.2.2.2.2.< 1 f z z z z z z z z z v z z z z z g 1 < < 4 - +   . 2.2.2.2.2.2.2.2.2.2.2.2.2.2.2.2.",
"2.2.2.2.2.2.2.2.2.2.2.2.2.2.2.2.2.< 1 7 g l z z z z z z z z k j g 0 < < , - + X   2.2.2.2.2.2.2.2.2.2.2.2.2.2.2.2.2.2.",
"2.2.2.2.2.2.2.2.2.2.2.2.2.2.2.2.2.2.2.< < 6 d g h j z l h g d 7 < , ; $ + .     2.2.2.2.2.2.2.2.2.2.2.2.2.2.2.2.2.2.2.",
"2.2.2.2.2.2.2.2.2.2.2.2.2.2.2.2.2.2.2.2.2.< < < 1 6 6 1 1 < , > & @ .   . 2.2.2.2.2.2.2.2.2.2.2.2.2.2.2.2.2.2.2.2.2.2.",
"2.2.2.2.2.2.2.2.2.2.2.2.2.2.2.2.2.2.2.2.2.2.2.2., < < , , > % + . . 2.2.2.2.2.2.2.2.2.2.2.2.2.2.2.2.2.2.2.2.2.2.2.2.2.",
"2.2.2.2.2.2.2.2.2.2.2.2.2.2.2.2.2.2.2.2.2.2.2.2.2.2.2.2.2.2.2.2.2.2.2.2.2.2.2.2.2.2.2.2.2.2.2.2.2.2.2.2.2.2.2.2.2.2.2."
};
