/* XPM */
static char *result[] = {
/* columns rows colors chars-per-pixel */
"59 60 106 2 ",
"   c #77511E",
".  c #78521E",
"X  c #7D5620",
"o  c #7F5821",
"O  c #BE7515",
"+  c #BF7817",
"@  c #835B22",
"#  c #895E24",
"$  c #8C6226",
"%  c #926625",
"&  c #976A26",
"*  c #9C6E27",
"=  c #926628",
"-  c #96692A",
";  c #9B6D2C",
":  c #9F7029",
">  c #A4732B",
",  c #A8772B",
"<  c #AC7A2B",
"1  c #B17E2C",
"2  c #A57430",
"3  c #A97731",
"4  c #AC7A33",
"5  c #B27E32",
"6  c #C27B1B",
"7  c #B5812D",
"8  c #BA852F",
"9  c #B68136",
"0  c #B88237",
"q  c #BE8931",
"w  c #C5801E",
"e  c #D28E1C",
"r  c #D3911E",
"t  c #CE8C2B",
"y  c #CF912B",
"u  c #D49424",
"i  c #D89925",
"p  c #D5962D",
"a  c #D7992C",
"s  c #D99C2A",
"d  c #C48D33",
"f  c #C69034",
"g  c #CB9335",
"h  c #D19636",
"j  c #D59934",
"k  c #D99D34",
"l  c #D59B39",
"z  c #D99E3A",
"x  c #DCA32E",
"c  c #DDA334",
"v  c #DCA43B",
"b  c #DFA93B",
"n  c #E1A936",
"m  c #E1AC3C",
"M  c #DBA344",
"N  c #DEA840",
"B  c #DCA54A",
"V  c #DDA84C",
"C  c #DEAB53",
"Z  c #DFAE5B",
"A  c #E1AC42",
"S  c #E5B343",
"D  c #E8B744",
"F  c #E6B448",
"G  c #E7B849",
"H  c #EABB4C",
"J  c #E0AF58",
"K  c #ECBF50",
"L  c #E9BD5E",
"P  c #E1B262",
"I  c #E9BF62",
"U  c #E2B569",
"Y  c #E5BA6C",
"T  c #E8BE68",
"R  c #E5BB71",
"E  c #E6BF7C",
"W  c #EDC14F",
"Q  c #EEC351",
"!  c #F0C654",
"~  c #F0C759",
"^  c #F1C95C",
"/  c #F6D15B",
"(  c #EEC565",
")  c #F1CA63",
"_  c #F2CD6C",
"`  c #ECC572",
"'  c #EEC972",
"]  c #EDC97C",
"[  c #F2CE71",
"{  c #F1CF7C",
"}  c #F2D17E",
"|  c #EECE87",
" . c #E8C689",
".. c #EBCA8C",
"X. c #F3D485",
"o. c #F3D68C",
"O. c #EDCD91",
"+. c #ECCE99",
"@. c #EFD293",
"#. c #EFD59F",
"$. c #F2D695",
"%. c #F2D89B",
"&. c #EFD4A3",
"*. c #F1D7A4",
"=. c #F2DAA3",
"-. c None",
/* pixels */
"-.-.-.-.-.-.-.-.-.-.-.-.-.-.-.-.-.-.-.-.-.-.-.-.-.-.-.-.-.-.-.-.-.-.-.-.-.-.-.-.-.-.-.-.-.-.-.-.-.-.-.-.-.-.-.-.-.-.-.",
"-.-.-.-.-.-.-.-.-.-.-.-.-.-.-.-.-.-.-.-.-.-.-.  . . @ % * > < < < < < < < < -.-.-.-.-.-.-.-.-.-.-.-.-.-.-.-.-.-.-.-.-.",
"-.-.-.-.-.-.-.-.-.-.-.-.-.-.-.-.-.-.-.-.-.. . . @ & > < 1 7 q d f f f d 8 < < < -.-.-.-.-.-.-.-.-.-.-.-.-.-.-.-.-.-.-.",
"-.-.-.-.-.-.-.-.-.-.-.-.-.-.-.-.-.-.-.X . @ = : < < 7 d h l z v z z z z z l f 8 < < -.-.-.-.-.-.-.-.-.-.-.-.-.-.-.-.-.",
"-.-.-.-.-.-.-.-.-.-.-.-.-.-.-.-.-.X X X = 3 < < < d l z z z z z z z z z z z z z f 7 < -.-.-.-.-.-.-.-.-.-.-.-.-.-.-.-.",
"-.-.-.-.-.-.-.-.-.-.-.-.-.-.-.-.    $ 3 5 < < 9 g z z z z z z z z z z z z z z z z l q < -.-.-.-.-.-.-.-.-.-.-.-.-.-.-.",
"-.-.-.-.-.-.-.-.-.-.-.-.-.-.-.X X - 5 9 < < q l v z z z z z z z z z z z z z z z z z z d < -.-.-.-.-.-.-.-.-.-.-.-.-.-.",
"-.-.-.-.-.-.-.-.-.-.-.-.-.-.X X - 9 9 < < q l z z z z z z z z z z z z z z z z z z z z z f 1 -.-.-.-.-.-.-.-.-.-.-.-.-.",
"-.-.-.-.-.-.-.-.-.-.-.-.-.X X ; 9 9 < < q l z z z z z z z z z z l p j p z z z z z z z z z d 1 -.-.-.-.-.-.-.-.-.-.-.-.",
"-.-.-.-.-.-.-.-.-.-.-.-.  X - 5 9 1 < 8 l z z z z z z z z l p u r r i u r e u k z z z z z z 8 < -.-.-.-.-.-.-.-.-.-.-.",
"-.-.-.-.-.-.-.-.-.-.-.-.X $ 5 0 9 < 1 g z z z z z z z z a e u n D W W Q H D x r u j z z z z h 7 < -.-.-.-.-.-.-.-.-.-.",
"-.-.-.-.-.-.-.-.-.-.-.. # 4 0 9 < < d z z z z z z z z u u n H ! ! ! ! ! ! ! ! W n u p z z z z g 1 -.-.-.-.-.-.-.-.-.-.",
"-.-.-.-.-.-.-.-.-.-.  X > 9 0 5 < 8 l z z z z z z z u i H ! ! ! ! ! ! ! ! ! ! ! ! D i u z z z z q < -.-.-.-.-.-.-.-.-.",
"-.-.-.-.-.-.-.-.-.-.  = 5 9 9 < < f z z z z z z z u x W ! ! ! ! ! ! Q ! ! ! ! ! ! ! H a p z z z h 1 -.-.-.-.-.-.-.-.-.",
"-.-.-.-.-.-.-.-.-.  o 3 0 0 5 < q l z z z z z z p s W ! ! ! ! ! ! ! W l p v H ! ! ! ! H a j z z z d < -.-.-.-.-.-.-.-.",
"-.-.-.-.-.-.-.-.-.. = 9 0 0 5 < d z z z z z z j i H ! ! ! ! ! ! Q Q p 6 A H A H ! ! ! ! D p k z z g 7 -.-.-.-.-.-.-.-.",
"-.-.-.-.-.-.-.-.X X 3 0 0 5 < 1 l z z z z z l u D ! ! ! ! ! ! ! ! F 6 v / ! N A Q Q ~ ! ! m a z z z q -.-.-.-.-.-.-.-.",
"-.-.-.-.-.-.-.-.  $ 5 0 0 5 < d z z z z z z p c ! ! ! ! ! ! ! ! ! b O H Q v z z K Q ! ! ! W c k z z f < -.-.-.-.-.-.-.",
"-.-.-.-.-.-.-.-.X ; 0 0 9 < < g z z z z z z a W ! ! ! ! ! ! ! ! ! v 6 H A z z z H ! ! ! ! ! S k z z l 7 -.-.-.-.-.-.-.",
"-.-.-.-.-.-.-.  @ 4 0 0 0 < 1 l z z z z z p b Q ! ! ! ! ! ! ! ! ! c t K N z z z H ! ! ! ! ! Q c k z z q -.-.-.-.-.-.-.",
"-.-.-.-.-.-.-.  # 5 0 0 5 < q l z z z z z j D ! ! ! ! ! ! ! ! Q ! v 6 A v z z z H ! ! ! ! ! ! m k z z f < -.-.-.-.-.-.",
"-.-.-.-.-.-.-.X ; 0 0 0 1 < d z z z z z j c Q ! ! ! ! ! ! ! ! ! ! v 6 j z z z z H ! ! ! ! ! ! H k z z h 1 -.-.-.-.-.-.",
"-.-.-.-.-.-.-.X 2 0 0 0 < 1 g z z z z z k n ! ! ! ! ! ! ! ! ! ! ! v 6 j z z z z H ! ! ! ! ! ! ! c z z l 8 -.-.-.-.-.-.",
"-.-.-.-.-.-.X o 4 0 0 0 < 7 g z z z z z k S ! ! ! ! ! ! ! ! ! ! ! v 6 l z z z z H ~ ! ! ! ! ! ! S k z z q -.-.-.-.-.-.",
"-.-.-.-.-.-.X @ 0 0 0 0 4 9 l z z z z z k Q ! ! ! ! ! ! ! ! ! ! ! v 6 j z z z z H ! ! ! ! ! ! ! H j z z d -.-.-.-.-.-.",
"-.-.-.-.-.-.X # 5 0 0 5 < 7 l z z z z z c Q ! ! ! ! ! ! ! ! ! ! ! z 6 j z z z z H ! ! ! ! ! ! ! W k z v d 1 -.-.-.-.-.",
"-.-.-.-.-.-.  = 0 0 0 0 < 9 z z z z z z m Q ! ! ! ! Q ! ! ! ! ! ! m 6 j z z z z H ! ! ! ! ! ! ! Q c z z f < -.-.-.-.-.",
"-.-.-.-.-.-.X = 5 0 0 5 < q z z z z z z m ! ! ! ! ! ! ! ! ! ! ! ! z 6 j z z z z H ! ! ! ! ! ! ! Q m z z h 1 -.-.-.-.-.",
"-.-.-.-.-.-.X - 0 0 0 5 < 8 z z z z z z S ! ! ! ! ! ! ! ! ! ! ! ! v 6 j z z z z H ! ! ! ! ! ! ! ! A z z g 1 -.-.-.-.-.",
"-.-.-.-.-.-.X - 5 0 0 5 < 8 z z z z z z F ! ! ! ! ! ! ! ! ! ! ! ! v 6 j z z z z H ! ! ! ! ! ! ! ! F z z h 7 -.-.-.-.-.",
"-.-.-.-.-.-.  - 0 0 0 9 , 8 z z z z z z ( ! ! ! ! ! ! ! ! ! ! ! ~ v 6 j z z z z H ! ! ! ! ! ! ! ~ L z z g 7 -.-.-.-.-.",
"-.-.-.-.-.-.  - 9 0 0 5 < 8 z z z z z z ( ! ! ! ! ! ! ! ! ! Q ! K m 6 j z z z z H ! ! ! ! ! ! ! ~ L z z g 1 -.-.-.-.-.",
"-.-.-.-.-.-.. - 9 0 0 5 4 8 v z z z z z ' ~ ! ! ! ! ! ! ! ! ! ! ! v 6 j z z z z H ! ! ! ! ! ! ! ~ ( z z f 1 -.-.-.-.-.",
"-.-.-.-.-.-.. $ 9 0 0 9 < 9 l z z z z z ` ~ ! ! ! ! ! ! ! ! ! ! ! v 6 j z z z z H ! ! ! ! ! ! ! ^ T z z f < -.-.-.-.-.",
"-.-.-.-.-.-.  # 5 0 0 5 < 7 l z z z z M ` ! ! ! ! ! ! ! ! ! ! ! ! v 6 j z z z z H ! ! ! ! ! ! ! ~ Y z z d -.-.-.-.-.-.",
"-.-.-.-.-.-.X o 5 0 0 0 < 1 h z z z z z R ^ ! ! ! ! ! ! ! ! ! ! ! v 6 h z z z z H ~ ! ! ! ! ! ! ) P z z d -.-.-.-.-.-.",
"-.-.-.-.-.-.  X 3 0 0 0 < < g v z z z z P _ ! ! ! ! ! ! ! ! ! ! ! v 6 j z z z z H ! ! ! ! ! ! ! ' B z l q -.-.-.-.-.-.",
"-.-.-.-.-.-.-.X ; 0 0 0 5 < f z z z z z J { ! ! ! ! ! ! ! ! ! ! ! c 6 j z z z z G ! ! ! ! ! ! ! ] M z l 1 -.-.-.-.-.-.",
"-.-.-.-.-.-.-.  = 0 0 0 5 < d z z z z z M ] ~ ! ! ! ! ! ! ! ! ! ! v 6 j z z z z H ! ! ! ! ! ! ( Y v z g < -.-.-.-.-.-.",
"-.-.-.-.-.-.-.X # 5 0 0 5 < 1 l z z z z v R [ ! ! ! ! ! ! ! ! ! ! v 6 j z z z z H ! ! ! ! ! ! { J z z d < -.-.-.-.-.-.",
"-.-.-.-.-.-.-.-.X 2 0 0 5 4 5 h z z z z k P { ! ! ! ! ! ! ! ! ! ! v 6 h z z z z H ! ! ! ! ! ^ ] B z l 7 -.-.-.-.-.-.-.",
"-.-.-.-.-.-.-.-.  = 0 0 0 5 < d z z z z z M ..) ! ! ! ! ! Q ! ! ! v 6 l z z z z H ! ! ! ! ! [ R z z h 1 -.-.-.-.-.-.-.",
"-.-.-.-.-.-.-.-.  X 5 0 0 9 < 9 z z z z z z U X.! ! ! ! ! ! ! ! ! v + j z z z z H ! ! ! ! ^ | B z z d < -.-.-.-.-.-.-.",
"-.-.-.-.-.-.-.-.-.X ; 5 0 0 < < g z z z z z M O._ ! ! ! ! ! ! ! ! m O j z z z v K ! ! ! ! X.R z z l 7 -.-.-.-.-.-.-.-.",
"-.-.-.-.-.-.-.-.-.  @ 5 0 0 5 < q l z z z z z P $.) ! ! ! ! ! ! ! G 6 t z z z A ! ! ! ! [ ..M z z d < -.-.-.-.-.-.-.-.",
"-.-.-.-.-.-.-.-.-.-.X ; 9 0 5 < 1 h z z z z z v E $.~ ! ! ! ! ! ! Q j 6 t k N K ! ! ! _ @.J z z l q -.-.-.-.-.-.-.-.-.",
"-.-.-.-.-.-.-.-.-.-.  @ 4 0 0 5 < d l z z z z z M ..o.~ ! ! ! ! ! ! H v j m H ! ! Q ( %.U z z z d < -.-.-.-.-.-.-.-.-.",
"-.-.-.-.-.-.-.-.-.-.-.. = 9 0 5 < < g z z z z z z B ..$.) ! ! ! ! ! ! ! ! ! ! ! ! _ *.R z z z l 7 -.-.-.-.-.-.-.-.-.-.",
"-.-.-.-.-.-.-.-.-.-.-.. X ; 9 9 5 < 9 l z z z z z z M  .*.} ~ ! ! ! ! ! ! ! ! ^ o.#.U z z z z q < -.-.-.-.-.-.-.-.-.-.",
"-.-.-.-.-.-.-.-.-.-.-.-.  @ 3 9 9 < < d z z z z z z z v R &.=.o._ ^ ) ^ ^ _ o.*...C z z z z f 1 -.-.-.-.-.-.-.-.-.-.-.",
"-.-.-.-.-.-.-.-.-.-.-.-.-.. @ 3 0 5 < < f z z z z z z z z M R +.*.*.*.*.*.&...Z z z z z z g 1 -.-.-.-.-.-.-.-.-.-.-.-.",
"-.-.-.-.-.-.-.-.-.-.-.-.-.-.  # 4 0 5 < 1 f z z z z z z z z l z V Z P J Z B z z z z z v g 7 < -.-.-.-.-.-.-.-.-.-.-.-.",
"-.-.-.-.-.-.-.-.-.-.-.-.-.-.-.. @ 2 0 5 < < f z z z z z z z z z z z z z z z z z z z z g 7 < -.-.-.-.-.-.-.-.-.-.-.-.-.",
"-.-.-.-.-.-.-.-.-.-.-.-.-.-.-.-.  @ ; 5 5 < 1 d z z z z z z z z z z z z z z z z z z f 1 < -.-.-.-.-.-.-.-.-.-.-.-.-.-.",
"-.-.-.-.-.-.-.-.-.-.-.-.-.-.-.-.-.. . $ 3 4 < < 8 g z z z z z z z z z z z z z z l d < < -.-.-.-.-.-.-.-.-.-.-.-.-.-.-.",
"-.-.-.-.-.-.-.-.-.-.-.-.-.-.-.-.-.-.  . o = > < < 1 d h l z z z z z z z z z h d 7 < -.-.-.-.-.-.-.-.-.-.-.-.-.-.-.-.-.",
"-.-.-.-.-.-.-.-.-.-.-.-.-.-.-.-.-.-.-.-.. . o # % > < < q d g l k z l g f d 1 < < -.-.-.-.-.-.-.-.-.-.-.-.-.-.-.-.-.-.",
"-.-.-.-.-.-.-.-.-.-.-.-.-.-.-.-.-.-.-.-.-.-.    . @ % > > < 1 1 1 1 1 1 < < , -.-.-.-.-.-.-.-.-.-.-.-.-.-.-.-.-.-.-.-.",
"-.-.-.-.-.-.-.-.-.-.-.-.-.-.-.-.-.-.-.-.-.-.-.-.-.-.  . $ * > < , < , < -.-.-.-.-.-.-.-.-.-.-.-.-.-.-.-.-.-.-.-.-.-.-.",
"-.-.-.-.-.-.-.-.-.-.-.-.-.-.-.-.-.-.-.-.-.-.-.-.-.-.-.-.-.-.-.-.-.-.-.-.-.-.-.-.-.-.-.-.-.-.-.-.-.-.-.-.-.-.-.-.-.-.-."
};
