/* XPM */
static char *result[] = {
/* columns rows colors chars-per-pixel */
"59 60 115 2 ",
"   c #77511E",
".  c #79531E",
"X  c #7D5620",
"o  c #7F5820",
"O  c #BE7415",
"+  c #845B22",
"@  c #895F24",
"#  c #8C6125",
"$  c #8F6328",
"%  c #916625",
"&  c #9C6E27",
"*  c #916528",
"=  c #97692A",
"-  c #9C6D2C",
";  c #9F7027",
":  c #A3732A",
">  c #A8762D",
",  c #AC7A2B",
"<  c #B17E2C",
"1  c #A77531",
"2  c #A87631",
"3  c #AD7A33",
"4  c #B27E32",
"5  c #C47D1C",
"6  c #B5812D",
"7  c #B9852F",
"8  c #B68136",
"9  c #BB8632",
"0  c #BE8831",
"q  c #C5801E",
"w  c #D28F1C",
"e  c #D4911F",
"r  c #C68120",
"t  c #CD8D29",
"y  c #CF912B",
"u  c #D49323",
"i  c #D89924",
"p  c #D5952B",
"a  c #D7992B",
"s  c #DA9D2C",
"d  c #C38C32",
"f  c #C79034",
"g  c #CB9335",
"h  c #D19636",
"j  c #D59933",
"k  c #D89C36",
"l  c #D59B39",
"z  c #D99E3A",
"x  c #DCA22D",
"c  c #DEA434",
"v  c #DBA23D",
"b  c #DFA93D",
"n  c #E0A936",
"m  c #E2AC3A",
"M  c #DBA343",
"N  c #DFA940",
"B  c #DCA64B",
"V  c #DEA94F",
"C  c #DEAA55",
"Z  c #DFAD5A",
"A  c #E2AD43",
"S  c #E5B243",
"D  c #E8B746",
"F  c #E9B946",
"G  c #E6B648",
"H  c #E8B748",
"J  c #E7B849",
"K  c #EABC4C",
"L  c #E0AF5C",
"P  c #E1B25E",
"I  c #E7B95B",
"U  c #E1B264",
"Y  c #E6BA62",
"T  c #E2B76D",
"R  c #E3B86C",
"E  c #E4BA72",
"W  c #E5BE7B",
"Q  c #EDC14F",
"!  c #EFC452",
"~  c #F0C654",
"^  c #F2C956",
"/  c #F0C758",
"(  c #F1C95B",
")  c #F6D15A",
"_  c #F8D45C",
"`  c #EDC460",
"'  c #EEC76D",
"]  c #F1CB65",
"[  c #F2CD6E",
"{  c #EBC572",
"}  c #EFCA70",
"|  c #E7C07E",
" . c #E8C179",
".. c #EDC97B",
"X. c #F2CF72",
"o. c #F2D074",
"O. c #F2D17C",
"+. c #E6C080",
"@. c #E9C686",
"#. c #EDCB80",
"$. c #E9C68A",
"%. c #EDCC8B",
"&. c #F2D384",
"*. c #F3D58A",
"=. c #EBCC92",
"-. c #EDD19D",
";. c #F1D390",
":. c #F4D893",
">. c #F0D59C",
",. c #F3D99A",
"<. c #EFD4A1",
"1. c #F0D7A4",
"2. c #F2DAA2",
"3. c #F2DAA9",
"4. c None",
/* pixels */
"4.4.4.4.4.4.4.4.4.4.4.4.4.4.4.4.4.4.4.4.4.4.4.4.4.4.4.4.4.4.4.4.4.4.4.4.4.4.4.4.4.4.4.4.4.4.4.4.4.4.4.4.4.4.4.4.4.4.4.",
"4.4.4.4.4.4.4.4.4.4.4.4.4.4.4.4.4.4.4.4.4., , , , , , , , , , > ; & % @ . . 4.4.4.4.4.4.4.4.4.4.4.4.4.4.4.4.4.4.4.4.4.",
"4.4.4.4.4.4.4.4.4.4.4.4.4.4.4.4.4.4., , , < 6 7 d f f f f f d d < < , : & # + .   4.4.4.4.4.4.4.4.4.4.4.4.4.4.4.4.4.4.",
"4.4.4.4.4.4.4.4.4.4.4.4.4.4.4.4., , , 7 f h z z z z v z v z z k z l f d 6 , : # X . . 4.4.4.4.4.4.4.4.4.4.4.4.4.4.4.4.",
"4.4.4.4.4.4.4.4.4.4.4.4.4.4., , < 0 g z z z z z z z z z z z z z z z z z h d < , & * . . . 4.4.4.4.4.4.4.4.4.4.4.4.4.4.",
"4.4.4.4.4.4.4.4.4.4.4.4.4., , 7 g z v z z z z z z z z z z z z z z z z z z z l d < , : # . . 4.4.4.4.4.4.4.4.4.4.4.4.4.",
"4.4.4.4.4.4.4.4.4.4.4., , 6 f z z z z z z z z z z z z z z z z z z z z z z z z z g 7 , , - + . 4.4.4.4.4.4.4.4.4.4.4.4.",
"4.4.4.4.4.4.4.4.4.4., , 7 h z z z z z z z z z z z z v z z z z z z z z z z z z z z l d < , 2 @ . . 4.4.4.4.4.4.4.4.4.4.",
"4.4.4.4.4.4.4.4.4., , 0 l z z z z z z z z z z k j p p p p p a k z z z z z z z z z z z f < > 2 * . . 4.4.4.4.4.4.4.4.4.",
"4.4.4.4.4.4.4.4., , 7 l z z z z z z z z k p u w u a s s s s u w w i k z z z z z z z z z f < < 4 * . . 4.4.4.4.4.4.4.4.",
"4.4.4.4.4.4.4., , 7 l z z z z z z z k u e i n H Q Q ~ ~ ~ Q Q K m s e u j z z z z z z z z f , , 4 $ . 4.4.4.4.4.4.4.4.",
"4.4.4.4.4.4.4., 7 l z z z z z z z p w s S ! ~ ~ ~ ~ ~ ~ ~ ~ ~ ~ ~ ~ F n u u k z z z z z z z d , 4 3 @   4.4.4.4.4.4.4.",
"4.4.4.4.4.4., 6 h v z z z z z k u i S ! ~ ~ ~ ~ ~ ~ ~ ~ ~ ~ ~ ~ ~ ~ ~ ~ F x e k z z z z z z z d , 4 2 +   4.4.4.4.4.4.",
"4.4.4.4.4., , f z z z z z z l u c K ~ ~ ~ ~ ~ ~ ~ ~ K G H ~ ~ ~ ~ ~ ~ ~ ~ ~ m u j z z z z z z h 6 , 8 - X . 4.4.4.4.4.",
"4.4.4.4.4., 7 z z z z z z k u n ! ~ ~ ~ ~ ~ ~ ~ ! G A z t t S ~ ~ ~ ~ ~ ~ ~ ~ m u j z z z z z z f , < 4 #   4.4.4.4.4.",
"4.4.4.4., < g z z z z z k u n ! ~ ~ ~ ~ ~ ~ ~ ! G ~ _ ^ v 5 5 S ~ ~ ~ ~ ~ ~ ~ ~ S u a z z z z z l 9 , 8 1 X   4.4.4.4.",
"4.4.4.4., d z z z z z z p x Q ~ ~ ! ~ ~ ~ ~ ~ J K _ ~ G A h 5 t ~ ~ ~ ~ ~ ~ ~ ~ ~ A i k z z z z v f , 4 8 *   4.4.4.4.",
"4.4.4., , h z z z z z a s Q ~ ~ ~ ~ ~ ~ ~ ~ ! G ~ / v z z z 5 5 G ~ ~ ~ ~ ~ ~ ~ ~ ~ m p z z z z z z 9 , 8 2 X   4.4.4.",
"4.4.4., d l z z z z z p F ^ ~ ~ ~ ~ ~ ~ ~ ~ ~ A ^ G z z z z 5 5 G ^ ~ ~ ~ ~ ~ ~ ~ ~ K s j z z z z z f , 4 8 $ X 4.4.4.",
"4.4., , f z z z z z a m ~ ~ ~ ~ ~ ~ ~ ~ ~ ~ ! A ~ A z z z z 5 5 G ~ ~ ~ ~ ~ ~ ~ ~ ^ ^ F p z z z z z l < , 8 : X 4.4.4.",
"4.4., 6 h z z z z k a K ~ ~ ~ ~ ~ ~ ~ ~ ~ ~ ! N A A z z z z 5 5 G ^ ~ ~ ~ ~ ~ ~ ~ ~ ~ ~ n h z z z z z d , 8 3 +   4.4.",
"4.4., d z z z z z k m ^ ~ ~ ~ ~ ~ ~ ~ ~ ! ~ ! N z z z z z z r 5 G ~ ~ ~ ~ ~ ~ ~ ~ ~ ~ ~ D a k z z z z f , 4 8 *   4.4.",
"4.4., d z z z z z p K ~ ~ ~ ~ ~ ~ ~ ~ ~ ~ ~ ! b z z z z z z r 5 G ~ ~ ~ ~ ~ ~ ~ ~ ~ ~ ~ ~ c k z z z z l 6 , 8 - X 4.4.",
"4., < h z z z z k n ~ ~ ~ ~ ~ ~ ~ ~ ~ ~ ~ ~ ! A z z z z z z r 5 G ~ ~ ~ ~ ~ ~ ~ ~ ~ ~ ~ ~ m k z z z z l 9 , 8 1 X   4.",
"4., < l z z z z j A ~ ~ ~ ~ ~ ~ ~ ~ ~ ~ ~ ~ ~ M z z z z z z 5 5 G ^ ~ ~ ~ ~ ~ ~ ~ ~ ~ ~ ~ K a z z z z z d , 8 4 + X 4.",
"4., 6 z z z z z k D ^ ~ ~ ~ ~ ~ ~ ~ ~ ~ ~ ^ K A z z z z z z r 5 G ~ ~ ~ ~ ~ ~ ~ ~ ~ ~ ~ ~ ! c z z z z k d , 4 8 +   4.",
"4., 0 z z z z z v K / ~ ~ ~ ~ ~ ~ ~ ~ ~ ~ ~ / A z z z z z z r 5 G ~ ~ ~ ~ ~ ~ ~ ~ ~ ~ ~ ~ ! m z z z z v f , 4 8 #   4.",
"4., d l z z z z b K ~ ~ ~ ~ ~ ~ ~ ~ ~ ~ ~ ~ K m z z z z z z r 5 G ~ ~ ~ ~ ~ ~ ~ ~ ~ ~ ~ ~ ~ S k z z z z g < 4 8 = . 4.",
"4., d z z z z z m / ! ~ ~ ~ ~ ~ ~ ~ ~ ~ ~ ~ ~ M z z z z z z r 5 G ~ ~ ~ ~ ~ ~ ~ ~ ~ ~ ~ ~ / F k z z z z h < 4 8 = . 4.",
"4., 0 z z z z k m ~ ~ ~ ~ ~ ~ ~ ~ ~ ~ ~ ~ ~ ~ A z z z z z z r 5 G ~ ~ ~ ~ ~ ~ ~ ~ ~ ~ ~ ~ / H z z z z z h < 4 8 = . 4.",
"4., d z z z z z I ~ ~ ~ ~ ~ ~ ~ ~ ~ ~ ~ ~ ~ K A z z z z z z r 5 G ~ ~ ~ ~ ~ ~ ~ ~ ~ ~ ! ~ ~ I V z z z z g < 4 8 = . 4.",
"4., d z z z z M I ~ ~ ~ ~ ~ ~ ~ ~ ~ ~ ~ ~ ~ ~ A z z z z z z r 5 G ~ ~ ~ ~ ~ ~ ~ ~ ~ ~ ~ ~ ^ ` A z z z v g < 4 8 = . 4.",
"4., 0 z z z z M Y / ~ ~ ~ ~ ~ ~ ~ ~ ~ ~ ~ ~ ! N z z z z z z r 5 G / ~ ~ ~ ~ ~ ~ ~ ~ ~ ~ ~ ~ ' B z z z z f < 4 8 * X 4.",
"4., 7 z z z z z Y ] ~ ~ ~ ~ ~ ~ ~ ~ ~ ~ ~ ~ ! N z z z z z z r 5 G / ~ ~ ~ ~ ~ ~ ~ ~ ~ ~ ~ ~ } z z z z z f , 4 8 @ X 4.",
"4., 6 z z z z k P [ ~ ~ ~ ~ ~ ~ ~ ~ ~ ~ ~ ~ ! N z z z z z z r 5 D / ~ ~ ~ ~ ~ ~ ~ ~ ~ ~ ~ / { z z z z z d , 4 8 +   4.",
"4., < h z z z k P X.~ ~ ~ ~ ~ ~ ~ ~ ~ ~ ~ ~ ! N z z z z z z r 5 D ~ ~ ~ ~ ~ ~ ~ ~ ~ ~ ~ ~ ] E z z z z z 0 , 8 3 X   4.",
"4.4., g z z z z B ..( ~ ~ ~ ~ ~ ~ ~ ~ ~ ~ ~ ! N z z z z z z r 5 G ~ ~ ~ ~ ~ ~ ~ ~ ~ ~ ~ ~ O.Z z z z z l 6 4 8 - X 4.4.",
"4.4., d z z z z z W ] ~ ~ ~ ~ ~ ~ ~ ~ ~ ~ ~ ! N z z z z z z r 5 G ~ ~ ~ ~ ~ ~ ~ ~ ~ ~ ~ ~ #.M z z z z g , 4 8 =   4.4.",
"4.4., 7 l z z z k L O.~ ~ ~ ~ ~ ~ ~ ~ ~ ~ ~ ! N z z z z z z r 5 G / ~ ~ ~ ~ ~ ~ ~ ~ ~ ~ X.E z z z z z d , 4 4 @   4.4.",
"4.4., , g v z z z M %.( Q ~ ~ ~ ~ ~ ~ ~ ~ ~ ! N z z z z z z r 5 G / ~ ~ ~ ~ ~ ~ ~ ~ ~ ~ &.P z z z z z 7 < 8 1 X   4.4.",
"4.4.4., d z z z z z R &.~ ~ ~ ~ ~ ~ ~ ~ ~ ~ ! N z z z z z z r 5 G ~ ~ ~ ~ ~ ~ ~ ~ ~ ~ [ @.v z z z z g , 4 8 =   4.4.4.",
"4.4.4., < l z z z z M %.[ ~ ~ ~ ~ ~ ~ ~ ~ ~ ! N z z z z z z r 5 G ~ ~ ~ ~ ~ ~ ~ ~ ~ ( *.L z z z z z d , 4 4 + . 4.4.4.",
"4.4.4.4., d z z z z z U ;.^ ~ ~ ~ ~ ~ ~ ~ ! ! N z z z z z z 5 5 G ~ ~ ~ ~ ~ ~ ~ ~ ~ &.W z z z z z h 6 , 8 - X 4.4.4.4.",
"4.4.4.4., 6 l z z z z z W *./ ~ ~ ~ ~ ~ ~ ~ ! S z z z z v l 5 5 H / ~ ~ ~ ~ ~ ~ ~ X.=.B z z z z l d , 8 3 +   4.4.4.4.",
"4.4.4.4.4., d z z z z z B =.*.~ ~ ~ ~ ~ ~ ~ ! K v z z z z h O p ~ ~ ~ ~ ~ ~ ~ ~ [ >.L z z z z z h < , 8 = . 4.4.4.4.4.",
"4.4.4.4.4., < h z z z z z B =.*./ ~ ~ ~ ~ ~ ~ ! A z z z h 5 q D / ~ ~ ~ ~ ~ ~ X.>.U z z z z z l 7 , 8 2 +   4.4.4.4.4.",
"4.4.4.4.4.4., 9 l z z z z z A =.:.( ~ ~ ~ ~ ~ ~ ! G N h t h G ~ ~ ~ ~ ~ ~ ~ O.1.U z z z z z z d , 4 4 @   4.4.4.4.4.4.",
"4.4.4.4.4.4., > d z z z z z z B $.2.o./ ~ ~ ~ ~ ! ~ ! H K ! ~ ~ ~ ~ ~ ~ ] :.-.L z z z z z z g < 3 4 = . . 4.4.4.4.4.4.",
"4.4.4.4.4.4.4., < d z z z z z z v T 1.,.X.~ ~ ~ ! ~ ~ / / ~ ! ~ ~ ~ ] *.2.@.B z z z z z z h 6 , 8 - X   4.4.4.4.4.4.4.",
"4.4.4.4.4.4.4.4., , g z z z z z z z B +.1.2.*.] ( ( / ~ / / ( ] o.:.3.=.Z M z z z z z z h 6 , 4 - X . 4.4.4.4.4.4.4.4.",
"4.4.4.4.4.4.4.4.4., < f z z z z z z z z B E =.1.2.,.,.:.:.,.,.3.-.| L v z z z z z z v g 6 , 4 : X   4.4.4.4.4.4.4.4.4.",
"4.4.4.4.4.4.4.4.4.4., < d z z z z z z z z z z B U R E W W E U C M z k z z z z z z z g 6 , 3 = . . 4.4.4.4.4.4.4.4.4.4.",
"4.4.4.4.4.4.4.4.4.4.4., , 0 l z z z z z z z z z z k k k k k k z z z z z z z z z l f < , > % . . 4.4.4.4.4.4.4.4.4.4.4.",
"4.4.4.4.4.4.4.4.4.4.4.4., , 6 f l z z z z z z z z z z z z z z z z z z z z z z g 0 , , & + . . 4.4.4.4.4.4.4.4.4.4.4.4.",
"4.4.4.4.4.4.4.4.4.4.4.4.4.4., , 7 g l z z z z z z z z z z z z z z z z z l h d < > & # X X 4.4.4.4.4.4.4.4.4.4.4.4.4.4.",
"4.4.4.4.4.4.4.4.4.4.4.4.4.4.4., , < 9 f h z z z z z z z z z z v z z l g 0 < , & @ .     4.4.4.4.4.4.4.4.4.4.4.4.4.4.4.",
"4.4.4.4.4.4.4.4.4.4.4.4.4.4.4.4.4., , , < 7 d g h h z z z l h g d 0 6 , > & # . . . 4.4.4.4.4.4.4.4.4.4.4.4.4.4.4.4.4.",
"4.4.4.4.4.4.4.4.4.4.4.4.4.4.4.4.4.4.4.4., , , , < 6 6 6 < < < , , > ; % @ .   4.4.4.4.4.4.4.4.4.4.4.4.4.4.4.4.4.4.4.4.",
"4.4.4.4.4.4.4.4.4.4.4.4.4.4.4.4.4.4.4.4.4.4.4.4., , > , , , : & % # . 4.4.4.4.4.4.4.4.4.4.4.4.4.4.4.4.4.4.4.4.4.4.4.4.",
"4.4.4.4.4.4.4.4.4.4.4.4.4.4.4.4.4.4.4.4.4.4.4.4.4.4.4.4.4.4.4.4.4.4.4.4.4.4.4.4.4.4.4.4.4.4.4.4.4.4.4.4.4.4.4.4.4.4.4."
};
