/* XPM */
static char *result[] = {
/* columns rows colors chars-per-pixel */
"59 60 115 2 ",
"   c #77511E",
".  c #79531E",
"X  c #7D5620",
"o  c #7F5820",
"O  c #BF7616",
"+  c #835B22",
"@  c #895F22",
"#  c #8C6125",
"$  c #8F6428",
"%  c #916524",
"&  c #946825",
"*  c #9D6E27",
"=  c #916528",
"-  c #97692A",
";  c #9C6D2B",
":  c #9F702E",
">  c #A3722B",
",  c #A8772B",
"<  c #AC7A2B",
"1  c #B17E2C",
"2  c #A47430",
"3  c #A97731",
"4  c #AD7A33",
"5  c #B27E32",
"6  c #C37C1B",
"7  c #B5812D",
"8  c #B9852F",
"9  c #B68136",
"0  c #BB8632",
"q  c #BE8931",
"w  c #C5801F",
"e  c #D28E1C",
"r  c #D3911F",
"t  c #C98624",
"y  c #CB8A27",
"u  c #CB8A28",
"i  c #D49323",
"p  c #D79823",
"a  c #D89927",
"s  c #D5952C",
"d  c #D7982C",
"f  c #DA9D2C",
"g  c #C38C32",
"h  c #C79034",
"j  c #CC9335",
"k  c #D19736",
"l  c #D59933",
"z  c #D89C36",
"x  c #D59B39",
"c  c #D99E3A",
"v  c #DCA12E",
"b  c #DEA533",
"n  c #DFA837",
"m  c #DBA23D",
"M  c #E0A837",
"N  c #E3AE3D",
"B  c #E5B13E",
"V  c #DBA243",
"C  c #DFA941",
"Z  c #DCA64C",
"A  c #DDA84F",
"S  c #DFAC57",
"D  c #DFAD59",
"F  c #E1AE43",
"G  c #E5B345",
"H  c #E8B744",
"J  c #E9BA47",
"K  c #E7B649",
"L  c #EABB4B",
"P  c #E0AF5E",
"I  c #E2B15C",
"U  c #E6B859",
"Y  c #E1B364",
"T  c #E7BB63",
"R  c #E2B66C",
"E  c #E5BC74",
"W  c #E5BE7B",
"Q  c #EDC14F",
"!  c #EFC452",
"~  c #EDC259",
"^  c #F0C654",
"/  c #F1C855",
"(  c #F0C758",
")  c #F1C85B",
"_  c #F6D05A",
"`  c #F8D45C",
"'  c #EDC667",
"]  c #F1CB63",
"[  c #F1CD6B",
"{  c #EAC376",
"}  c #EEC971",
"|  c #ECC87C",
" . c #F2CF72",
".. c #F1CF7E",
"X. c #F3D174",
"o. c #F2D27B",
"O. c #E7C282",
"+. c #E8C381",
"@. c #EECC85",
"#. c #E8C68A",
"$. c #EBCA8A",
"%. c #F2D384",
"&. c #F3D58B",
"*. c #EBCB93",
"=. c #EED093",
"-. c #EED29F",
";. c #F1D494",
":. c #F4D894",
">. c #F0D69E",
",. c #F3D99A",
"<. c #EFD5A3",
"1. c #F0D7A4",
"2. c #F2D9A3",
"3. c #F2DBA8",
"4. c None",
/* pixels */
"4.4.4.4.4.4.4.4.4.4.4.4.4.4.4.4.4.4.4.4.4.4.4.4.4.4.4.4.4.4.4.4.4.4.4.4.4.4.4.4.4.4.4.4.4.4.4.4.4.4.4.4.4.4.4.4.4.4.4.",
"4.4.4.4.4.4.4.4.4.4.4.4.4.4.4.4.4.4.4.4.4.. . # # * > > , < < < < < < < , , 4.4.4.4.4.4.4.4.4.4.4.4.4.4.4.4.4.4.4.4.4.",
"4.4.4.4.4.4.4.4.4.4.4.4.4.4.4.4.4.4.. . + @ * > < 7 8 q h h j j j h g q 7 1 < , < 4.4.4.4.4.4.4.4.4.4.4.4.4.4.4.4.4.4.",
"4.4.4.4.4.4.4.4.4.4.4.4.4.4.4.4.. . X % > < 7 q j l c c c c c c c c c c c j g 0 1 < < 4.4.4.4.4.4.4.4.4.4.4.4.4.4.4.4.",
"4.4.4.4.4.4.4.4.4.4.4.4.4.4.. . X # > < 7 g k m c c c c c c c c c c c c c c z c j q 1 < , 4.4.4.4.4.4.4.4.4.4.4.4.4.4.",
"4.4.4.4.4.4.4.4.4.4.4.4.4.. . # > , 1 g l c c c c c c c c c c c c c c c c c c c c c j 8 < < 4.4.4.4.4.4.4.4.4.4.4.4.4.",
"4.4.4.4.4.4.4.4.4.4.4.. . + : , < 8 k c c c c c c c c c c c c c c c c c c c c c c c c c h 7 , 4.4.4.4.4.4.4.4.4.4.4.4.",
"4.4.4.4.4.4.4.4.4.4.. . # 3 < 1 g c m c c c c c c c c c c c m c c c c c c c c c c c c c c k 8 , < 4.4.4.4.4.4.4.4.4.4.",
"4.4.4.4.4.4.4.4.4.    = 4 < 7 h c c c c c c c c c c c l d s s s s s l z z c c c c c c c c c x 0 < , 4.4.4.4.4.4.4.4.4.",
"4.4.4.4.4.4.4.4.. X = 4 < 1 h c c c c c c c c c l s e r p f f f f p i e i d z c c c c c c c z c q < < 4.4.4.4.4.4.4.4.",
"4.4.4.4.4.4.4.  . = 5 < < j c c c c c c c c d i r f B L Q Q ^ ^ ^ ^ L H M p i i c z c c c c c c c q < 4.4.4.4.4.4.4.4.",
"4.4.4.4.4.4.4.  # 4 5 < g c c c c c c c l i r M L ! ^ ^ ^ ^ ^ ^ ^ ^ ( ^ ^ L G f e l c c c c c c c k 8 , 4.4.4.4.4.4.4.",
"4.4.4.4.4.4.  + 3 5 , q x c c c c c c l i v J ^ ^ ^ ^ ^ ^ ^ ^ ^ ( ^ ^ ^ ^ ^ ^ ^ B p s z c c c c c c j 7 , 4.4.4.4.4.4.",
"4.4.4.4.4.. X 2 9 < 9 x c c c c c c s i B ! ^ ^ ^ ^ ^ ^ ^ ^ K G L ^ ^ ^ ^ ^ ^ ^ ^ L f i z c c c c c c g < < 4.4.4.4.4.",
"4.4.4.4.4.  $ 5 < < j c c c c c c s p H ^ ^ ^ ^ ^ ^ ^ ^ G u s m F G ! ^ ^ ^ ^ ^ ^ ^ ^ b r z c c c c c x 8 , 4.4.4.4.4.",
"4.4.4.4.  + 3 5 < q c c c c c c l p L ^ ^ ^ ^ ^ ^ ^ ! G 6 y Q ) ^ F F ^ ^ ^ ^ ^ ^ ^ ^ L M i z c c c c c j 7 , 4.4.4.4.",
"4.4.4.4.X - 9 1 1 j c c c c c c i G ^ ^ ^ ^ ^ ^ ^ ^ Q y O K ` ! K F c K ( ( ^ ^ ^ ^ ^ ^ ^ v s c c c c c c q < 4.4.4.4.",
"4.4.4.X X 4 9 < 0 c c c c c c i N ! ^ ^ ^ ^ ^ ^ ^ ^ G 6 t ! / m c c c F ^ ^ ^ ^ ^ ^ ^ ^ ( L a l c c c c c j 1 < 4.4.4.",
"4.4.4.  $ 5 1 < j c c c c c d b ^ ^ ^ ^ ^ ^ ^ ^ ^ ^ F O u ! L m c c c G U / ^ ^ ^ ^ ^ ^ ^ ^ H a z c c c c c 8 < 4.4.4.",
"4.4.X X 2 5 < 9 x c c c c z s J ^ ^ ^ ^ ^ ^ ^ ^ ^ ^ N O u ! F c c c c F / / ^ ^ ^ ^ ^ ^ ^ ^ ^ M l c c c c c h < 4.4.4.",
"4.4.  @ 5 5 < g c c c c c l M ^ ^ ^ ^ ^ ^ ^ ^ ^ ^ / G O u F C c c c c G ^ ^ ^ ^ ^ ^ ^ ^ ^ ^ ^ J d c c c c c k 7 , 4.4.",
"4.4.  = 9 5 < k c c c c c d J ^ ^ ^ ^ ^ ^ ^ ^ ^ ^ / C O u m c c c c c F ^ ^ ^ ^ ^ ^ ^ ^ ^ ^ ^ ^ b z c c c c c 8 , 4.4.",
"4.4.X ; 9 1 1 x c c c c z b ^ ^ ^ ^ ^ ^ ^ ^ ^ ^ ^ / C O u c c c c c c F ^ ^ ^ ^ ^ ^ ^ ^ ^ ^ ^ ^ L s c c c c m h < 4.4.",
"4.X o 3 9 < 0 c c c c c z G ^ ^ ^ ^ ^ ^ ^ ^ ^ ^ ^ / C O u c c c c c c F ^ ^ ^ ^ ^ ^ ^ ^ ^ ^ ^ ^ Q b c c c c c j 1 < 4.",
"4.  + 5 9 < g c c c c c d Q ^ ^ ^ ^ ^ ^ / ! / ! ^ / N O y x m c c c c F ( ( ^ ^ ^ ^ ^ ^ ^ ^ ^ ^ ^ N z c c c c l 7 , 4.",
"4.. # 9 5 < g m c c c c b ! ^ ^ ^ ^ ^ ^ ^ / ! / ^ / F O y m c c c c c F ^ ^ ^ ^ ^ ^ ^ ^ ^ ^ ^ ^ ^ H z c c c c c 7 < 4.",
"4.. = 9 5 < j m c c c c N ! ^ ^ ^ ^ ^ ^ ^ ^ / ! ^ / C O y c c c c c c G ^ ( ^ ^ ^ ^ ^ ^ ^ ^ ^ ^ ^ L m c c c c c 8 , 4.",
"4.. - 9 5 1 k c c c c c G ! ^ ^ ^ ^ ^ ^ ^ ^ ! / ^ / F O y c c c c c c F L ( ^ ^ ^ ^ ^ ^ ^ ^ ^ ^ ^ ! b x c c c c g < 4.",
"4.. - 9 5 1 j c c c c l L / ^ ^ ^ ^ ^ ^ / ! / ! / / C O y c c c c c c G ! ^ ^ ^ ^ ^ ^ ^ ^ ^ ^ ^ ^ ^ m c c c c c g , 4.",
"4.. - 9 5 1 k c c c c z L ( ! ^ ^ ^ ^ ^ ! ! ! ) / ) F O y c c c c c c G ! ^ ^ ^ ^ ^ ^ ^ ^ ^ ^ ^ ^ ^ N x c c c c g , 4.",
"4.. - 9 5 1 j c c c c Z ~ ! ^ ^ ^ ^ ^ ^ ! / ! / ! / C O y c c c c c c F ^ ^ ^ ^ ^ ^ ^ ^ ^ ^ ^ ^ ^ ^ U c c c c c g , 4.",
"4.. - 9 5 1 k c c c c S ~ ! ^ ^ ^ ^ ^ ^ / ! / ! / / C O y c c c c c c F ! ^ ^ ^ ^ ^ ^ ^ ^ ^ ^ ^ ^ ( T V c c c c g < 4.",
"4.. - 9 5 1 j c c c c A ' ^ ^ ^ ^ ^ ^ ^ ^ ! ^ ^ ^ / F O u c c c c c c F ! ^ ^ ^ ^ ^ ^ ^ ^ ^ ^ ^ ^ ] T c c c c c 0 , 4.",
"4.. $ 9 5 < j c c c c V  .^ ^ ^ ^ ^ ^ ^ ^ ^ ^ ^ ^ / C O u c c c c c c F ^ ^ ^ ^ ^ ^ ^ ^ ^ ^ ^ ^ ^ ] U c c c c c 0 , 4.",
"4.  + 5 5 < g c c c c c { ) ^ ^ ^ ^ ^ ^ ^ ^ ^ ^ / / G O u c c c c c c F ! ( ^ ^ ^ ^ ^ ^ ^ ^ ^ ^ ! [ I c c c c c 7 , 4.",
"4.  + 5 9 , g c c c c c E ) ^ ^ ^ ^ ^ ^ ^ ^ ^ ^ ! ) n O u c c c c c c G ! ^ ^ ^ ^ ^ ^ ^ ^ ^ ^ ^ ^ } S c c c c j 1 , 4.",
"4.4.X : 9 4 8 x c c c c I X.^ ^ ^ ^ ^ ^ ^ ^ ^ ^ / / F O y m c c c c c F ! ^ ^ ^ ^ ^ ^ ^ ^ ^ ^ ^ ) | V c c c c h < 4.4.",
"4.4.X - 9 4 < k c c c c Z @.^ ^ ^ ^ ^ ^ ^ ^ ^ / ! / F O y x c c c c V G ! ^ ^ ^ ^ ^ ^ ^ ^ ^ ^ ^ ] E m c c c c g < 4.4.",
"4.4.X @ 9 5 < j c c c c V { [ ^ ^ ^ ^ ^ ^ ^ ^ ! / / C O y c c c c c c F ^ ^ ^ ^ ^ ^ ^ ^ ^ ^ ^ ^ @.S c c c c c 7 , 4.4.",
"4.4.  X 3 9 < 8 c c c c z I %.^ ^ ^ ^ ^ ^ ^ ^ ^ ! / F O y c c c c c c F ! ^ ^ ^ ^ ^ ^ ^ ^ ^ ^ ] @.V c c c c j < < 4.4.",
"4.4.4.X - 9 4 1 k c c c c V $.[ ! / ^ ^ ^ ^ ^ ^ ! / N O y c c c c c c F ^ ^ ^ ^ ^ ^ ^ ^ ^ ^ ^ %.Y c c c c c g , 4.4.4.",
"4.4.4.X @ 5 9 < g c c c c c Y &./ ^ ^ ^ ^ ^ ^ ^ ^ / C O t c c c c c c F ^ ^ ^ ^ ^ ^ ^ ^ ^ ^  .$.V c c c c x 7 < 4.4.4.",
"4.4.4.4.X - 9 < 1 k c c c c c O.o.^ ^ ^ ^ ^ ^ ^ ^ / F 6 y c c c c c c F ^ ^ ^ ^ ^ ^ ^ ^ ^ ) ;.P c c c c c g < 4.4.4.4.",
"4.4.4.4.  @ 5 5 < g c c c c c Z =. .^ ^ ^ ^ ^ ^ ^ / K 6 6 c c c c c c F ^ ^ ^ ^ ^ ^ ^ ^ ( ;.W c c c c c j 7 < 4.4.4.4.",
"4.4.4.4.4.X - 9 < 1 k c c c c c Y -.[ ^ ^ ^ ^ ^ ^ ^ ! u O k c c c c c L ^ ^ ^ ^ ^ ^ ^ ( &.$.V c c c c c g < 4.4.4.4.4.",
"4.4.4.4.4.  + 3 5 < 0 c c c c c c Y <. .^ ^ ^ ^ ^ ^ ! H w 6 k c c m G ( ^ ^ ^ ^ ^ ^ ) &.*.Z c c c c c j < < 4.4.4.4.4.",
"4.4.4.4.4.4.  $ 5 5 1 h c c c c c c R ,.o./ ! ^ / ! ! ) K k u l F K ^ ^ ^ ^ ^ ^ ^ ] :.*.Z c c c c c l 8 < 4.4.4.4.4.4.",
"4.4.4.4.4.4.. X - 9 < 1 j c c c c c c I -.:.[ ^ ^ / ! ! / ! L L L ^ ^ ^ ^ ^ ^ ^ X.2.+.V c c c c c c g < < 4.4.4.4.4.4.",
"4.4.4.4.4.4.4.X X ; 9 , 7 k c c c c c c Z #.1.&.] ! ! ^ ^ ^ / ^ ^ ^ ^ ^ ^ )  .,.1.R m c c c c c c g < < 4.4.4.4.4.4.4.",
"4.4.4.4.4.4.4.4.. X 2 5 < 8 x c c c c c c m D $.3.,.o.] ( ( ^ ^ ( ) ] [ %.,.1.W A c c c c c c m h 1 < 4.4.4.4.4.4.4.4.",
"4.4.4.4.4.4.4.4.4.  X 2 5 < 0 x c c c c c c c V S { -.2.2.,.,.:.,.>.1.1.*.R Z c c c c c c c c g 1 < 4.4.4.4.4.4.4.4.4.",
"4.4.4.4.4.4.4.4.4.4.. X ; < < 8 j c c c c c c c c x m S R R W W E R P A c c c c c c c c c l g < , 4.4.4.4.4.4.4.4.4.4.",
"4.4.4.4.4.4.4.4.4.4.4.  X $ , < 7 h l m c c c c c c c c z x z x z z c c c c c c c c c c k q < , 4.4.4.4.4.4.4.4.4.4.4.",
"4.4.4.4.4.4.4.4.4.4.4.4.  X @ ; , < q k c c c c c c c c m c c c c c c c c c c c c c c g 7 < < 4.4.4.4.4.4.4.4.4.4.4.4.",
"4.4.4.4.4.4.4.4.4.4.4.4.4.4.  X # * , 1 g x c c c c c c c c c c c c c c c c c c c h 8 < , 4.4.4.4.4.4.4.4.4.4.4.4.4.4.",
"4.4.4.4.4.4.4.4.4.4.4.4.4.4.4.  . . # * > 1 q j k c m c c c c c c c c c c c x h 8 1 < < 4.4.4.4.4.4.4.4.4.4.4.4.4.4.4.",
"4.4.4.4.4.4.4.4.4.4.4.4.4.4.4.4.4.. . . # > < < 7 g h j k x c c c x k j g 8 1 < < < 4.4.4.4.4.4.4.4.4.4.4.4.4.4.4.4.4.",
"4.4.4.4.4.4.4.4.4.4.4.4.4.4.4.4.4.4.4.4.. . + & * > < < 7 7 7 7 1 1 1 < < < < 4.4.4.4.4.4.4.4.4.4.4.4.4.4.4.4.4.4.4.4.",
"4.4.4.4.4.4.4.4.4.4.4.4.4.4.4.4.4.4.4.4.4.4.4.4.. # % * > , , < , < , 4.4.4.4.4.4.4.4.4.4.4.4.4.4.4.4.4.4.4.4.4.4.4.4.",
"4.4.4.4.4.4.4.4.4.4.4.4.4.4.4.4.4.4.4.4.4.4.4.4.4.4.4.4.4.4.4.4.4.4.4.4.4.4.4.4.4.4.4.4.4.4.4.4.4.4.4.4.4.4.4.4.4.4.4."
};
