/* XPM */
static char *result[] = {
/* columns rows colors chars-per-pixel */
"60 60 51 1 ",
"  c #746B56",
". c #776E59",
"X c #796F5A",
"o c #7E745D",
"O c #80765F",
"+ c #857A62",
"@ c #887E65",
"# c #8B8167",
"$ c #8E836A",
"% c #91866C",
"& c #95896E",
"* c #988C6F",
"= c #968B70",
"- c #9A8E72",
"; c #9D9175",
": c #9E957C",
"> c #A09477",
", c #A39679",
"< c #A6997B",
"1 c #AA9D7E",
"2 c #A59C81",
"3 c #AC9F80",
"4 c #AEA181",
"5 c #AFA78C",
"6 c #B3A584",
"7 c #B6A887",
"8 c #B8A987",
"9 c #B4A788",
"0 c #B7A989",
"q c #BBAD8B",
"w c #BFB08E",
"e c #B7AE96",
"r c #BFB291",
"t c #BFB798",
"y c #C1B28F",
"u c #C4B592",
"i c #C7B895",
"p c #C9BA96",
"a c #C7BA99",
"s c #CCBD99",
"d c #D0BF9A",
"f c #CFC09C",
"g c #D2C29D",
"h c #D5C6A1",
"j c #D8C7A1",
"k c #D7C8A3",
"l c #D9CAA4",
"z c #DBCEA9",
"x c #DCD1AD",
"c c #E3D4AD",
"v c #E1D4B0",
/* pixels */
"6iii<qy81q881yiiwai69auuuq33usawiiy11ygpyigsiysdq1yg8-<6uu11",
"8yyqipuiqq1y8yfqusur<qwaiq8q8qqhs8yguqpsppgusu1;89yg<y18guy8",
"8qiq6qq9pq>1iiy;zauq:2usy86yy>0as9pcyiqgsisppi*>y1y1qgq18111",
"qqqy86<8q6qyiyygh8u430uuiq6<qicjpakjquqdigydyi8i68q68iq6111y",
"yps8p76y6qi14sgi6aq49qqupii8ysdsuu9su8quqqiiqu9y866,6y6611yy",
"6yyi6117y1><uruwrsrqwuuudpyidgsaug7suuiaspdiqq18q61111>*1yy1",
"1y1q1111116;,,<qqiuqquq9giqisasdgjspisjspyysg86,ypy,;+,,1p8$",
"ffwyyw1qi6<1-;&<rauww32qhsiyuuuypgsiipalsiy,33<iyy,1>@*7yyyy",
"iy1yqy11fw8y7416i11ygy8ypiq4d8yigpiiy84hsui&6611yi111O>11g1y",
"111u8118qwgy1qsi6q11gi4ssuy6-6uyy16ygsfqauqu<>><81661111gg81",
"118py88puqwwigqiq1%68p11q698-h8yi89ydii6sq=48=*61yy61u1ygy*1",
"yy8y111ypiyiiggfp8qlyyy898618q6y9>ssipjgj<%38>,>1py111,p111g",
"1gp881,1w4s<5siq6qyi1yyyy1662>yp67psquisq3u9>%-;1yy<%%1i1<11",
"111y1&-114paxw04,96-<1py6iyq86iii6w12wsi<4y9<1%%>68>OOyp81p1",
"1Op81>1&<4arfi49yy66y8y6yuyqpiugq6<$++,=;419<>%$1<1,<8618yyy",
"ppq>*,8;;40wsw1<668yy8y18y69pausq>2<%+&;1;%88-11y1,11y<yu1yp",
"d118861,<ig8yiiy1yy1yy666yiiggddq;<6><0q9q36>-161>>>688y69ia",
"8q19pupy8gg66y86yipy1y8iy8yiqigys3%-2yqy9uy46<-1>61,,68i1186",
"upipgdsy6ypy11611ud66ui8i1id;sd8a,2@,u39uqss4+<41y111>q8quy8",
"ldgiiu6u8q6y86,q6yy11998iigpijau<,000y0rs0q4@-6yyq1qy1i16yiu",
"lggppyyy0qq-1qyyypi8i88qh820syjiuwwaqwsiay6<->9i8,1yi6811ydd",
"0idljuu8-&-*8p68gui8iguqu86is8ru69qq5qwq443yu<<aqyyyiy811isg",
"2zypuiu1&+@1<spzlu88ppqui6uffqsu==0r6q6upi3<wy93giydp<6ippg6",
"zd<y46q&->,-1idpdpy8ipiyqyuuiuusq3-quuupdh9qsuqapyyq7qsisjjy",
"au<qu4,363>.rugia8qqsdu88sgigsadau60aiusljiigphuqig18fyypgpa",
"uaquh3>8q<,9supyuqqqui4,uuggg96g94rua0sgyyyiudpiiidyip6qgjsg",
"6uisu6606q669qiyuwqquu0quyuis9rh0<qir162,3isipggisddppy1iyq8",
"qsi<2-<u396<qiiisu8190usyuu3uauqu80riu-:4qdiqsjgusigpgy1q98d",
"dqw9<3368u921iiq,-q-39qpauguhiaigu6isu998wsuqiipypuqy8udyiy>",
"d43qq39wuuqu88yu&<y-4qqpfuqu=agpipgisr<368gsid82ipyqiuggyiye",
"y063uyua8uyiiyqy68<16<<ah988wxqyidhuu996qiuasi11iuggyyypgpsp",
"qq3<9ydaispiyu44->4<6qwks8qisy91qsdpijuusuuaysyigggdyyyflpi9",
"9<;=6qipu8yy1q1111>#7uwqqqiry9&=10siisupp4quiaskggs17fyisjsy",
"< 2%<yuqqu9,<,166;%;176;&<uiu1&$;48qqw6quq6pq8asfuw6qgiqsguw",
"2@%%&,68sg61y48y*<1,qu8171ri8w<$<617ui8uuuqgsugsisussfsisuuq",
"2<&%:,>99u11uu,&%<1,67q6w4quyi:,7q19si0iuragasuwiq5sy1yssgu4",
"3;<$0=--@1u8606+%<7q11616uu4;&$,1-<2pyuhysg8u,uzzs1064qq4a42",
",,<<q9t+>,66;>% ;87yi7666wwu6o=<;#6issfqiiygsrvqsiqq:11wqf06",
"099963<%161816q+>w60yy191177<$&;34qqysu6118ysgpy8wiyispiurss",
"-ayq68261y611;8@5wqqyq11w6q400904uw4i71&,qyiiyiigggissqqu6ys",
"sjqiy96&18**1-4y51i96891q6w4uggs6q6683>>66suuq6iyuggsiisfygg",
"qpgs8u8<6,>188iy09w668866ag0usiws4<,699uq6uiay6sssipfgssggfy",
"ygjy186<866601qy0f01up1<<qq6ff7;9<><>3,quauypiqsgifypi87fgqq",
"3yiy94q>8>11-3q60sw7u6<70r1uu4% 2u6q<->6qq2,8yysfygkgiqqfi88",
"6yqiyy68448-+@6q<110q967srqw;4%o0uua9>>10u-,3ypggpgiqysspi11",
"yiyyuyqyiqyy;&<<4*-qw711wjr,9w: ;quu9<<1;<-68sgjfgiiigskiy11",
"yyiy9yy860dq46q114uiq641u<qusf914uyq9i922<9qy8spiususyypq11y",
"66y6yy08>pp841q956<66q7704zqifipuyw8upsuuuuh8iauuwq<qfq1qq81",
"6y1yy8y8ygu6y<6y1O1u,11yqi70wiyqu64usggsagjquaqdsu8qad-2y1pi",
"8y111ypupqy8111111ggy1y86u8uupq54<4qss4jsuqsas2quqi8q3,gfygy",
"8yyq61iyy6uy1y68y1,1y11ysu660666,rqws92vsukkji9uupq966qgw1si",
"%yypy11,18y8y88pu<,,1111w704440:6fufiizhssi6gugwua23689866yy",
"1g8pyu661udp1uy1y1uypyy1ur<-681&4uiuuuisssyua9auup669y1118u8",
"16688168yyudy18y8y1py11p=u054<6839jjkguggyiyugsupiwyyi661qii",
"y666811y18yyyyy81y1>q118wxwfiwffiaggpsykgiigipsgissgyyy16iy8",
"y1686886yyy1<8yy811>gpguggggfw81puspjyupgiipsgjsipdgiiyqyy,q",
"111pyy11yyg11yy8y18gcdifpfgypy11qpfpgiiiiigijssuiiufiyiiq61y",
"18yupy#1ypg1ydd11yy1dfyyuugfgu18wsypiy7yiyigsdyafuruuy86;,86",
"8u1yp><ggpgyyddp8py1u11yfpdp1y18dy18ijsyigsdgjsdkpquy66>61q8",
"yuy11ydyyyp1>yy8pgppyd1pgud18qy8yy19wippgspgjjaijhiqu111yq88"
};
