/* XPM */
static char *result[] = {
/* columns rows colors chars-per-pixel */
"60 60 43 1 ",
"  c #141316",
". c #171518",
"X c #181719",
"o c #1C1A1D",
"O c #201D1F",
"+ c #1E1D21",
"@ c #211E22",
"# c #242125",
"$ c #26252A",
"% c #29272B",
"& c #2C292E",
"* c #302C2F",
"= c #2D2C32",
"- c #2F2E38",
"; c #312E34",
": c #302F38",
"> c #343136",
", c #383337",
"< c #35333A",
"1 c #39363C",
"2 c #3D393E",
"3 c #413B3E",
"4 c #373641",
"5 c #393740",
"6 c #3D3A42",
"7 c #3F3E49",
"8 c #423D43",
"9 c #413F49",
"0 c #464046",
"q c #494246",
"w c #46424A",
"e c #4A454B",
"r c #4F484E",
"t c #51494E",
"y c #4A4650",
"u c #4E4951",
"i c #534C52",
"p c #584F52",
"a c #575056",
"s c #5A5256",
"d c #575158",
"f c #5B5358",
"g c #62585C",
/* pixels */
"5213882806664662600weyeew7w61%w566<1118003<<<2<11,38638088<%",
"1<:23<1861<-<6<<1<1260w0665<=+611<<<<2282<>;>>,<>;<<<<2<12>o",
"8>>11:331<<12<:<122600ww66:<=o8222<<2222<1<<<32<>=;=><<28,>o",
"6><<>182<>212<12226660ew54<5>#6222<2212811<<12<<>==>3,2862>+",
"<<1<<1<<<122212<<1228qw642062#0qw0888186<1<<1<>:;=,3<<1262>o",
"211<1>11<22<<1<<1<118807<286<O086658126151<2<>>:=*,,2<<352*o",
"8211111111<221<2<<11286<:<<1:@2<:51::6121<<2>====><12<,322;O",
"811823322<222222<122222<<112&o5<<612816<:<<<>;==*>>><><<23,+",
"868818865121121211<<11:<15<:$o2166<3638<<<<21<;>>>>,,1<288,+",
"8681182<<<280222211>>::12<<>&@22811866<<<><1:===>>;><<<2131o",
"681<<<<52118152211>22<<><<>-%@6115681<<:;><>====;;==**><23;O",
"65<528082<<<<<<<<<11<11>=>-=&o>:<11<=:<:;<<:;=*;=;=%;,132<,+",
"<<12888<>1132<<1<1<<<12:=:=>&o:%><<:;11>;<<,*;;;>*&=,336<<;X",
"6116866185222>><<<111<=$=&==$X&=<>>=><<*>>,<<;*>*;*,>><>*1;o",
"12288<<685282-<<<,2<<:%&&=%;$ &>,;;;><,1,,11<>>>>,1>,<>>11*o",
"1116<><82268<<1<<12::=>>=&&%@ &:,<,>,1211213<>,<2<,,>>>>12*o",
"112,,2886362<>:;>21<>>;=&&%$o %>>>>,,33<32131<>2>><<><*;,<*X",
",1238222000211<;,2,<<<>&&&$$# &>*,,<13<<13332<>;=,1:;=*>,>&o",
",>>,,*&>>,<;>=%$%&&&&&$$$@ooo %##%***>&&***;*%$$$*$$$##$&&#X",
">@OOOo@oO@++XX..X...X. .      O  XooOoX.oXoo..oX....   .XXXO",
"prttrw0rerqq71&21><12>:=&;&&*&*&>1188222685<&1112<11:;;,383t",
"0rptrwr0rrw06:+:;;>1:&=&&&%%%%%**,,123882<<=+1>><21>*&*<28qq",
"qtsrrurwrww66<X->;>>=;&&&&&%$%%&&*1366686<1*+<<13<>;>*,,38q8",
"rraiduiyw7695-+<<;<>;:;==;%%%%%%&>,38666662*+<03<<<>>,,,,8qq",
"eaauyyuywww66=+<;=>><>&>,>&%&$%&*,3qq388883>+80<222<<>;;38qw",
"0rewwudiiuy66=+<:>>><;>,><>&&&&&>23q0368800,#05<381<<>>33800",
"67wyyuy9ww766=+<>>>>>22<<2,>*>**>>22<<6680w1#6<16211;;><2208",
"60reeyywyw775%o<=>>,2302223,,>,&&,<111260qw1#8412681;<*>1388",
"8teruieaiyw61=o1:><12332<22<<>;%;><11<18eee1#766006<<<<22300",
"qraaduafduw76;@2>>128222061:;;=&*>;**;1qe00<+6550852162380qq",
"qtiaiufduy776<@6<,,22<26221::;=>,**==,800w0>+6120616323q6808",
"eruuyaduuue76>@21212826212<<>>>>===**126808;@818666623088888",
"0riiiauyyy744=+:68>18611661<<:==*&==*,,8086*#81146<580868688",
"erueyddy7w744=@435><<:<236<<>:>>=;***,20885>+5658<<600882888",
"0wwufdayy7466>@5211<;,826<61>>;;&*>,<121<55<o6881<88000e8w89",
"00wtuywy74706>@6611<<8q22261>>:=&*;;*>>,,21*o11<<233qqw88868",
"00r0eerw76745>@621882q88866<:;=*=;,**>13>::$.--=3228w8665618",
"270wwrww71112>@02288886511<::=*>;>>;,,,2:==$.=&:,,8q08446618",
"&>>>2<11-=&==&o<>>>;*>;*=&#%**%%%$%%****%+#+ %%$*,11,;=;;==*",
"oOo#####+.Xooo+%+ooooooooXooo  X.. XXX.X.   .#..ooOo+ooo.oo.",
"0rtaafaw746067608889w88468862$1,,2,21<23<:=*><,>30889868662&",
"000wauw74426622088658<1<2662*+<><11,,<1:=%=>;>;>3632866811*+",
"60errwww64<7262006<661:5031<%o<><<,336<=:&=;;**23128868862,O",
"rrruwwu764662680w8888<<8068<&o2,122866<:>:;=;<,,<221468886<+",
"rrr06ie760056666685682800q86;o323q022<<1<<>=;,2188<2668008<#",
"rqy60ry777641116665888880886>#88qq612><<,<<=*23222<2880w881#",
"ew067rr7786<1260682080868w86,#ww03666,1121;*>,,231,3808808<#",
"w7wwyrw676522326120eqe0err88>#566666612111<>;>,36338088062,#",
"60r7077756526w8620trritsir68;+<25288606286<;=>,28880q881682+",
"0ww7666118566q8288rrtssiyyww=+21888866215<<>><368qew86<186;+",
"076616642663qe660qrriiiryyy5=o1<3w8656<<2<>:*,21280986981<*o",
"612448w82000e00qrrqqwyuwyw71=+66086862<68<>:==><,6868w06<1;+",
"612168066wqww0rrrrri9yywyw78;+8388896<26<<:==*<,>,26886412;o",
"12660261288rrwrrrrwwyrwyryrw1@ww09642<21<>:==*><<<2288612<=o",
"8216668630qwwwrwwwwwww7wwuww1#w868644<22<<=&;>,,222305452<>o",
"616224<<2ew680wyw9weww8eiwww<@6865<<11--=:=>,,,,22266156<2*o",
"6232<<22662<0qq797qww96ww776<+965652<<:;<;;>>><,8321<221<1&o",
"026<<22<2<158w61666878686226<#8<2<52<:<,>>31,>1231<<<<<12<%+",
"<%=$%%=%*;;;;:%==;:>,;;>;>=:%o<=*=*;&%*=%*&$*%**&%&&***&&%#o",
"#. ..XX.oXX+oXX.XXo+o+oo++XX.X$..X... ....         .X....X.."
};
