/* XPM */
static char *result[] = {
/* columns rows colors chars-per-pixel */
"60 60 227 2 ",
"   c #59321F",
".  c #68341E",
"X  c #5A3725",
"o  c #403D3B",
"O  c #6B3B22",
"+  c #653823",
"@  c #713E22",
"#  c #3F403D",
"$  c #52483C",
"%  c #6E4429",
"&  c #6D4025",
"*  c #744325",
"=  c #794727",
"-  c #72492E",
";  c #7C4C2B",
":  c #72462A",
">  c #6B4C3A",
",  c #644838",
"<  c #774D36",
"1  c #6A523D",
"2  c #7C5134",
"3  c #7B533A",
"4  c #7E5C39",
"5  c #755336",
"6  c #7E502F",
"7  c #464845",
"8  c #544D43",
"9  c #53534C",
"0  c #5A5448",
"q  c #595A55",
"w  c #675B48",
"e  c #735D43",
"r  c #5E615A",
"t  c #79684E",
"y  c #7A6348",
"u  c #666357",
"i  c #756956",
"p  c #78715F",
"a  c #626661",
"s  c #6C6D64",
"d  c #6E7269",
"f  c #72736A",
"g  c #7F7B6D",
"h  c #77766A",
"j  c #7B7D74",
"k  c #767C74",
"l  c #736E60",
"z  c #844D2B",
"x  c #864C25",
"c  c #89542E",
"v  c #945B2C",
"b  c #985F2C",
"n  c #935728",
"m  c #845434",
"M  c #8B5B34",
"N  c #8B563A",
"B  c #8C5C3C",
"V  c #855B39",
"C  c #935E32",
"Z  c #905F3E",
"A  c #8E4E34",
"S  c #9A602E",
"D  c #8C633C",
"F  c #956133",
"G  c #9B6533",
"H  c #9E6936",
"J  c #93643C",
"K  c #9A673B",
"L  c #9B6A3C",
"P  c #96693E",
"I  c #9F703C",
"U  c #A26735",
"Y  c #A16A35",
"T  c #A1633D",
"R  c #A26D3B",
"E  c #AE6D3C",
"W  c #A5723C",
"Q  c #AA753E",
"!  c #B3743F",
"~  c #915D41",
"^  c #886643",
"/  c #946542",
"(  c #9B6544",
")  c #946943",
"_  c #9B6C42",
"`  c #9B6B49",
"'  c #976D4C",
"]  c #9E7244",
"[  c #9D7449",
"{  c #9B774A",
"}  c #866A51",
"|  c #87785B",
" . c #997952",
".. c #A26D43",
"X. c #A26D49",
"o. c #A47444",
"O. c #AA7543",
"+. c #A67A46",
"@. c #AB7B44",
"#. c #A4744C",
"$. c #A47B4B",
"%. c #AB7D4A",
"&. c #AA764D",
"*. c #B07D46",
"=. c #B37E49",
"-. c #B67B46",
";. c #A57B53",
":. c #AE7D51",
">. c #A57954",
",. c #887C66",
"<. c #917F64",
"1. c #7E827B",
"2. c #7C8275",
"3. c #93855E",
"4. c #AD814B",
"5. c #AC804A",
"6. c #B2844C",
"7. c #B9854A",
"8. c #B4894E",
"9. c #BC8A4C",
"0. c #B48144",
"q. c #AA8254",
"w. c #AF8856",
"e. c #AB845A",
"r. c #AD8A5A",
"t. c #A48659",
"y. c #B48551",
"u. c #B98752",
"i. c #B58B53",
"p. c #BC8D53",
"a. c #B38C5B",
"s. c #BB8E5A",
"d. c #B0875A",
"f. c #B69156",
"g. c #BD9155",
"h. c #B6915D",
"j. c #BC945C",
"k. c #BE985E",
"l. c #8C8468",
"z. c #93866C",
"x. c #978363",
"c. c #818379",
"v. c #87877A",
"b. c #988C75",
"n. c #9B917C",
"m. c #97937E",
"M. c #969067",
"N. c #AE8C64",
"B. c #AA8E68",
"V. c #B59464",
"C. c #BC9662",
"Z. c #BD9A65",
"A. c #BD9E6B",
"S. c #B18F60",
"D. c #BFA577",
"F. c #BFA16D",
"G. c #C18C4D",
"H. c #C18E52",
"J. c #C29355",
"K. c #C2955A",
"L. c #C49A5D",
"P. c #C99D5C",
"I. c #C9A05E",
"U. c #C49C62",
"Y. c #C89E63",
"T. c #C29F69",
"R. c #C39361",
"E. c #C6A165",
"W. c #CAA364",
"Q. c #C5A26A",
"!. c #CAA66B",
"~. c #CDA96C",
"^. c #CDA866",
"/. c #D2AC6C",
"(. c #D0A866",
"). c #C5A671",
"_. c #C7A976",
"`. c #CCAC73",
"'. c #C6AB7C",
"]. c #CAAE7A",
"[. c #C9A770",
"{. c #D1AF71",
"}. c #CFB176",
"|. c #CEB37C",
" X c #D2B274",
".X c #D2B47A",
"XX c #DBBA7B",
"oX c #888C83",
"OX c #938F81",
"+X c #999688",
"@X c #969589",
"#X c #9A9B93",
"$X c #8D928B",
"%X c #A39C8B",
"&X c #A69B85",
"*X c #A69F90",
"=X c #92A99A",
"-X c #A4A295",
";X c #AAA99E",
":X c #A9A597",
">X c #B7AD9B",
",X c #9FBDAF",
"<X c #B5B3A6",
"1X c #B3B4AB",
"2X c #BAB7AB",
"3X c #BBB9AD",
"4X c #BBB3A3",
"5X c #BCBCB2",
"6X c #B4B7B1",
"7X c #AAAEA6",
"8X c #CEB584",
"9X c #D5B982",
"0X c #C2BFB3",
"qX c #C3C3B9",
"wX c #C8C7BF",
"eX c #CAC5B8",
"rX c #CBC1AF",
"tX c #B8CEC6",
"yX c #CBCBC3",
"uX c #C7C9C2",
"iX c #D4D4CA",
"pX c #CAD8D3",
"aX c #D9DBD3",
"sX c #C1D4CD",
"dX c #DEE0D9",
"fX c #E2E4DB",
"gX c None",
/* pixels */
"gXgXgXgXgXgXgXgXgXgXgXgXgXgXgXgXgXgXgXgXgXgXgXgXgXgXgXgXgXgXgXgXgXgXgXgXgXgXgXgXgXgXgXgXgXgXgXgXgXgXgXgXgXgXgXgXgXgXgXgX",
"gXgXgXgXgXgXgXgXgXgXgXgXgXgXgXgXgXgXgXgXgXgXgXgXgXgXgXgXgXgXgXgXgXgXgXgXgXgXgXgXgXgXgXgXgXgXgXgXgXgXgXgXgXgXgXgXgXgXgXgX",
"gXgXgXgXgXgXgXgXgXgXgXgXgXgXgXgXgXgXgXgXgXgXgXgXgXgXgXgX]._.).).gXgXgXgXgXgXgXgXgXgXgXgXgXgXgXgXgXgXgXgXgXgXgXgXgXgXgXgX",
"gXgXgXgXgXgXgXgXgXgXgXgXgXgXgXgXgXgXgXgXgXgXgXgX8X_.T.A.R.Z.U.K.g.k.Z.Z.gXgXgXgXgXgXgXgXgXgXgXgXgXgXgXgXgXgXgXgXgXgXgXgX",
"gXgXgXgXgXgXgXgXgXgXgXgXgXgXgXgXgXgXgXgXgXQ._.).f.w.5.Z._.).T.j.g.g.g.8.i.k.Q.Q.gXgXgXgXgXgXgXgXgXgXgXgXgXgXgXgXgXgXgXgX",
"gXgXgXgXgXgXgXgXgXgXgXgXgXgXgXgXgXgXgXa.j.Q.j.6.w.f.5.5.#.P - M P +.f.i.j.K.8.i.j.gXgXgXgXgXgXgXgXgXgXgXgXgXgXgXgXgXgXgX",
"gXgXgXgXgXgXgXgXgXgXgXgXgXgXgXgXgXgX4.p.C.i.+.{ q.5.r.] 5.5.2 D D D J J P { Z.j.6.@.gXgXgXgXgXgXgXgXgXgXgXgXgXgXgXgXgXgX",
"gXgXgXgXgXgXgXgXgXgXgXgXgXgXgXgXgX4.u.g.5.L 2 B r.V.D.r.A.k._ w.i.8.r.{ M . X  .g.6.W gXgXgXgXgXgXgXgXgXgXgXgXgXgXgXgXgX",
"gXgXgXgXgXgXgXgXgXgXgXgXgXgXgXgX8.j.g.W P ] J :.A.F.'.k.'.{.+.Z.j.h.F.V.i.D m X P k.6.W gXgXgXgXgXgXgXgXgXgXgXgXgXgXgXgX",
"gXgXgXgXgXgXgXgXgXgXgXgXgXgXgX6.p.g.Q L 5.Q.;.e.].'.8X^.'.| 1 A.!.Q._.Z.h.{ q.{ % V J.6.R gXgXgXgXgXgXgXgXgXgXgXgXgXgXgX",
"gXgXgXgXgXgXgXgXgXgXgXgXgXgX8.7.j.Y $.r.k.|.d.N.}..XD.y 9 q 7 $ 1 ;.9X`.Z.r.V.r.t.& 4 k.6.R gXgXgXgXgXgXgXgXgXgXgXgXgXgX",
"gXgXgXgXgXgXgXgXgXgXgXgXgXgX0.j.W M a.Z.Z.|.d.d.h.t 9 1.;X$X1.-Xd 7 w t.`.a.F.h.f.q.* 4 f.0.W gXgXgXgXgXgXgXgXgXgXgXgXgX",
"gXgXgXgXgXgXgXgXgXgXgXgXgXQ p.5.m ] T.Z.k.|.a. .9 u -XfXwXv.oXwXyXqXf o | Z._.A.Z.S.5.% 4 8.5.gXgXgXgXgXgXgXgXgXgXgXgXgX",
"gXgXgXgXgXgXgXgXgXgXgXgXgX8.p.R ) 6.Q.U.Z.|.j., s &X#XuXaXm.v.wX<XaXeX&Xw S._.).F.h.q.D - 8.Q gXgXgXgXgXgXgXgXgXgXgXgXgX",
"gXgXgXgXgXgXgXgXgXgXgXgXgXg.6.P ;.L.`.Q.E.`.h.8 +Xm.@X3XdX-Xc.yX3XwXyX4Xq ^ |.).).Z.f.I ; 5.0.gXgXgXgXgXgXgXgXgXgXgXgXgX",
"gXgXgXgXgXgXgXgXgXgXgXgXgXp.R _ h.Q.`.`.E.`. .r 5Xm.+X:XaX7X2.qXuX3XiXqX,.$ 9X).`.A.r.5.D I 8.@.gXgXgXgXgXgXgXgXgXgXgXgX",
"gXgXgXgXgXgXgXgXgXgXgXgXj.8.C ;.Z.!.`.}.E.~.e u 2X+Xm.%XyX1X,.1XyX6XyXyX*X8 8X)._.T.s.%.I D f.@.gXgXgXgXgXgXgXgXgXgXgXgX",
"gXgXgXgXgXgXgXgXgXgXgXgXp.Q J a.L.Q._.`.Q.j.8 ,.>X<Xb.+XqX6Xg >XuXuXqXaX0Xu >..X].U.C.+.5.P 8.5.gXgXgXgXgXgXgXgXgXgXgXgX",
"gXgXgXgXgXgXgXgXgXgXgXgXp.H J Q.F.Q.`.).^.{ o i ,.#Xc.v.#X1.a OX#X-X#X-X+Xw w .X|.E.j.L 8.P I 9.*.gXgXgXgXgXgXgXgXgXgXgX",
"gXgXgXgXgXgXgXgXgXgXgXgX8.B _ `.E.!.[.[.W.^ 7 w u k h s f u a j f 1.k h c.9 w XX|.E.s.o.f.] D g.Q gXgXgXgXgXgXgXgXgXgXgX",
"gXgXgXgXgXgXgXgXgXgXgXgX6.M ] !.Z.!.Q.`.L.R u b.x.:X3Xn.;Xv.-XiX&XeXuX5XfXd t.XX.XE.V.@.f.$.D g.W gXgXgXgXgXgXgXgXgXgXgX",
"gXgXgXgXgXgXgXgXgXgXgXgX5.c ` !.U.!.Q.`.I.! t 2.l.b.0Xn.-X2.$XaX&X:XuX1X1Xq 8X`..XT.C.i.g.$.F f.Q gXgXgXgXgXgXgXgXgXgXgX",
"gXgXgXgXgXgXgXgXgXgXgXgX5.M ` Q.k.`.T.`.W.7.t.s z.,.<X:X+XoXoXfX3Xn.3X0Xf t XX`.`.T.s.i.f.$.F 8.W gXgXgXgXgXgXgXgXgXgXgX",
"gXgXgXgXgXgXgXgXgXgXgXgX4.M _ Y.j.!.T.`.W.9.Z.u l.3.%X3Xn.v.oXiXyXb.-XqXq {  X}.W.!.y.i.f.5.V 4.R gXgXgXgXgXgXgXgXgXgXgX",
"gXgXgXgXgXgXgXgXgXgXgXgX4.M _ T.L.!.E.`.!.p.9.e l M.z.qX%Xg 2.qXaX:Xn.+Xw d.!. XI.Q.f.r.f.5.F 5.R gXgXgXgXgXgXgXgXgXgXgX",
"gXgXgXgXgXgXgXgXgXgXgXgX5.m _ U.j.!.U.!.~.J.@.B 9 k l.4X<Xp 2.<XfXqXp 7  .y.!..X).E.j.f.i.+.D 5.R gXgXgXgXgXgXgXgXgXgXgX",
"gXgXgXgXgXgXgXgXgXgXgXgX@.m J L.j.!.U.!.!.U.y.] ] t d $X5Xh 2.-X$Xr w t.u.#.~..X_.L.h.f.i.5.m +.H gXgXgXgXgXgXgXgXgXgXgX",
"gXgXgXgXgXgXgXgXgXgXgXgXQ m D J.j.!.P.).W.W.j.>.G.9.5.p 1.a q 9 w t.`.P.H.#.^. X`.Z.f.4.i.I ; Q U gXgXgXgXgXgXgXgXgXgXgX",
"gXgXgXgXgXgXgXgXgXgXgXgXQ 2 N J.U.Q.L.T.P.!.j.:.L.L.G.9.$.y 1 t.P.9.g.U.P.` ^..X).L.f.+.8.5.: I U gXgXgXgXgXgXgXgXgXgXgX",
"gXgXgXgXgXgXgXgXgXgXgXgXW ; N p.U.E.P.C.P.!.K.r.!.^.I.g.g.9.Y 9.J.9.L.W.P._ W..XQ.k.j.%.4.+.= H W gXgXgXgXgXgXgXgXgXgXgX",
"gXgXgXgXgXgXgXgXgXgXgXgXW 6 m H.T.Q.U.p.P.~.T.;.^.}.^.I.W.u.Y G.P.H.P.W.E.` E.}.E.E.j.4.8.+.: S W gXgXgXgXgXgXgXgXgXgXgX",
"gXgXgXgXgXgXgXgXgXgXgXgXI ; m g.j.i.K.u.P.!.T.#.^..X~.W.W.J.W I.^.J.L.U.W.' L. XZ.E.j.4.4.W * b Q gXgXgXgXgXgXgXgXgXgXgX",
"gXgXgXgXgXgXgXgXgXgXgXgXW 6 m u.y.H k.J.P.!.Q.#.Q.XX`.W.^.K...!.[.Y.Y.P.U.` j. XU.U.j.4.8.B.; S +.gXgXgXgXgXgXgXgXgXgXgX",
"gXgXgXgXgXgXgXgXgXgXgXgXW 6 m u.Z.g.Q.J.P.~.T.#.^.9X`.Y.Q.K.O.!.[.Y.Y.K.L.` s./.Z.E.h.w.r.pX} n O.gXgXgXgXgXgXgXgXgXgXgX",
"gXgXgXgXgXgXgXgXgXgXgXgXR ; B 9.L.E.Q.L.P.^.E.#.`..X XW.^.C.%.L.Y.Q.W.K.J.( u./.L.E.k.4.r.pX} S +.gXgXgXgXgXgXgXgXgXgXgX",
"gXgXgXgXgXgXgXgXgXgXgXgXY ; P u.U.W.!.!.I.^.E.:.~.`..XW.^.R.:.H.K.Q.T.K.K./ :.~.U.E.k.5.h.sXt S @.gXgXgXgXgXgXgXgXgXgXgX",
"gXgXgXgXgXgXgXgXgXgXgXgXY ; J g.L.E.!.~.Y.~.Q.a.{.^. X!.~.W.%.H.K.R.Q.K.H.~ :.(.E.E.h.5.w.tXy S @.gXgXgXgXgXgXgXgXgXgXgX",
"gXgXgXgXgXgXgXgXgXgXgXgXG z _ g.K.!.~.`.W.~.).N.{.!.`.W.^.W.%.J.j.s.Y.K.p.~ :./.T.Z.h.5.q.tXy S o.gXgXgXgXgXgXgXgXgXgXgX",
"gXgXgXgXgXgXgXgXgXgXgXgXG z _ p.p.6.Q.{.W./.).:.{.!.W.W.I.W.$.9.K.K.W.K.u.N :.{.E.g.f.+.t.,Xy n W gXgXgXgXgXgXgXgXgXgXgX",
"gXgXgXgXgXgXgXgXgXgXgXgXG ; o.p.8.Q Q..XY.(.T.r.{.{.P.!.P.E.` G.U.j.T.K.H._ :.{.E.g.w.5.{ =Xy n R gXgXgXgXgXgXgXgXgXgXgX",
"gXgXgXgXgXgXgXgXgXgXgXgXG ; $.K.J.K.!.}.W.~.V.>.{..XE.~.I.U.( 9.W.s.K.L.u...:.{.Q.i.i.4.I l.5 n G gXgXgXgXgXgXgXgXgXgXgX",
"gXgXgXgXgXgXgXgXgXgXgXgXG = [ L.L.P.!.`.^.~.V.e.{..XY.W.I.U.J p.!.j.K.U.H...:.{.[.i.6.5.W H = v b gXgXgXgXgXgXgXgXgXgXgX",
"gXgXgXgXgXgXgXgXgXgXgXgXF * / U.T.P.~.E.`.{.V.:. X.XY.W.P.L.~ j.W.U.K.P.H...&.{.[.y.6.@.+.I = v C gXgXgXgXgXgXgXgXgXgXgX",
"gXgXgXgXgXgXgXgXgXgXgXgXb O ) L.E.Y.`.E.~..XV.>.{..XU.~.W.j.B P.U.U.Y.K.J...#.{.E.8.6.4.+.G : v v gXgXgXgXgXgXgXgXgXgXgX",
"gXgXgXgXgXgXgXgXgXgXgXgXv . ) K.U.!.`.!.~.P.e.>.{.XXW.W.I.J.3 T.Y.U.W.j.H...X.{.E.8.6.5.+.F * n c gXgXgXgXgXgXgXgXgXgXgX",
"gXgXgXgXgXgXgXgXgXgXgXgXC . ) K.K.~.!.!.~.P.r.>./..XW.~.(.J.3 U.P.U.E.J.H.....{.U.8.6.4.+.F = n v gXgXgXgXgXgXgXgXgXgXgX",
"gXgXgXgXgXgXgXgXgXgXgXgXv . ~ K.j.!.~.~.W.W.V.>./.}.W.`.W.J.3 Z.P.Y.L.J.J.O.( }.U.9.@.@.+.F = n v gXgXgXgXgXgXgXgXgXgXgX",
"gXgXgXgXgXgXgXgXgXgXgXgXM . ) K.s.!.!.~.^.I.N.;.(.`.W.!.W.L.3 U.P.T.L.K.L.o.~ }.L.g.@.5.+.C * S b gXgXgXgXgXgXgXgXgXgXgX",
"gXgXgXgXgXgXgXgXgXgXgXgXF . { K.u.W.!.~.W.Y.N.#./.~.^.W.~.Y.3 C.U.W.L.K.J...~ {.E.g.0.4.@.c = S v gXgXgXgXgXgXgXgXgXgXgX",
"gXgXgXgXgXgXgXgXgXgXgXgXG @ [ K.u.W.!.!.K.P.N.J /.~.!.W.^.W.3 Z.P.Q.L.J.G.K N ~.E.p.y.w.6.z . n x gXgXgXgXgXgXgXgXgXgXgX",
"gXgXgXgXgXgXgXgXgXgXgXgXG O [ K.y.W.Q.~.K.P.N.N (.(.W.Y.W.W.< V.P.W.U.u.H.J N ^.T.9.i.6.4.z * n S gXgXgXgXgXgXgXgXgXgXgX",
"gXgXgXgXgXgXgXgXgXgXgXgXF @ [ J.u.W.Q. XH.Y.e.3 W.W.W.P.W.W.< y.W.Y.K.u.H./ ( H.L.6.g.6.5.z @ b H gXgXgXgXgXgXgXgXgXgXgX",
"gXgXgXgXgXgXgXgXgXgXgXgXC O _ p.p.J.U. XJ.W.:.e (.P.P.L.~.Y.O &.Y.Y.K.u.G./ T -.j.=.u.6.=.z @ n H gXgXgXgXgXgXgXgXgXgXgX",
"gXgXgXgXgXgXgXgXgXgXgXgXz @ _ K.p.9.T.{.L.P.d.~ L.P.P.J.~.Y.8 T P.~.K.=.H.( o.G.s.*.g.4.%.z * b H gXgXgXgXgXgXgXgXgXgXgX",
"gXgXgXgXgXgXgXgXgXgXgXgXF * _ J.p.9.W.`.K.K.s.:.H.Y.J.L.Y.L.> T P.Y.K.=.H./ $.J.j.*.j.@.@.z O G G gXgXgXgXgXgXgXgXgXgXgX",
"gXgXgXgXgXgXgXgXgXgXgXgXb @ B K.p.=.R.{.K.K.a.s.P.W.J.Y.H.G.> T J.P.K.-.u.P q.J.K.%.U.%.O.; O R S gXgXgXgXgXgXgXgXgXgXgX",
"gXgXgXgXgXgXgXgXgXgXgXgXb O / J.9.=.K.Q.K.U.d.s.P.P.K.{.H.-.> R J.W.g.O.s./ :.u.L.6.U.O.O.+   R Y gXgXgXgXgXgXgXgXgXgXgX",
"gXgXgXgXgXgXgXgXgXgXgXgXS @ $.g.9.8.L.U.p.W.:.V.W.K.J.`.K.! 5 s.G.Y.H.O.R.~ q.u.K.&.K O.o.c X G Y gXgXgXgXgXgXgXgXgXgXgX",
"gXgXgXgXgXgXgXgXgXgXgXgXU * m H.9.H.W.u.p.W.' C.W.J.J.~.U.E 1 Q.H.Y.=.&.L.m r.u.J.%.A O.O.M % U gXgXgXgXgXgXgXgXgXgXgXgX",
"gXgXgXgXgXgXgXgXgXgXgXgXgXgXgXgXgXgXgXgXgXgXgXgXgXgXgXgXgXgXgXgXgXgXgXgXgXgXgXgXgXgXgXgXgXgXgXgXgXgXgXgXgXgXgXgXgXgXgXgX"
};
