/* XPM */
static char *result[] = {
/* columns rows colors chars-per-pixel */
"60 60 250 2 ",
"   c #010101",
".  c #090600",
"X  c #0C0A00",
"o  c #120D00",
"O  c #151100",
"+  c #1B1600",
"@  c #1E1800",
"#  c #221B01",
"$  c #361D00",
"%  c #2D2403",
"&  c #26220A",
"*  c #3A2D01",
"=  c #342A07",
"-  c #3E3102",
";  c #3A320F",
":  c #352E14",
">  c #3B3417",
",  c #3E3725",
"<  c #443401",
"1  c #463B01",
"2  c #4C3B01",
"3  c #4B3D0B",
"4  c #473807",
"5  c #533E01",
"6  c #453B15",
"7  c #472E00",
"8  c #443D20",
"9  c #4D4204",
"0  c #544201",
"q  c #5B4401",
"w  c #5D4A02",
"e  c #564808",
"r  c #574916",
"t  c #554B13",
"y  c #634B00",
"u  c #664A02",
"i  c #6C5200",
"p  c #695507",
"a  c #745600",
"s  c #7C5D00",
"d  c #765904",
"f  c #6D5614",
"g  c #786700",
"h  c #7A6419",
"j  c #484226",
"k  c #534925",
"l  c #5C5128",
"z  c #544E37",
"x  c #6A5A24",
"c  c #665B31",
"v  c #756733",
"b  c #716C50",
"n  c #7C7A68",
"m  c #4F5245",
"M  c #846300",
"N  c #896902",
"B  c #946D01",
"V  c #9B6B04",
"C  c #9B7401",
"Z  c #977606",
"A  c #876C1B",
"S  c #907818",
"D  c #A47A00",
"F  c #AA7E00",
"G  c #A57804",
"H  c #A67616",
"J  c #8C752C",
"K  c #805F00",
"L  c #D17F00",
"P  c #867B54",
"I  c #847F69",
"U  c #7E8072",
"Y  c #9B8503",
"T  c #9A8214",
"R  c #9E9310",
"E  c #AC8201",
"W  c #A88905",
"Q  c #B38600",
"!  c #B68900",
"~  c #BC8C01",
"^  c #BB8B09",
"/  c #A79802",
"(  c #B69502",
")  c #A99616",
"_  c #B09019",
"`  c #B9A904",
"'  c #B3A607",
"]  c #A58827",
"[  c #B89528",
"{  c #AC9134",
"}  c #A49625",
"|  c #C08F00",
" . c #D98B04",
".. c #C49201",
"X. c #C89807",
"o. c #D79905",
"O. c #D79715",
"+. c #C88A1B",
"@. c #E49C0A",
"#. c #D8AA02",
"$. c #DABA01",
"%. c #D2B010",
"&. c #E6A903",
"*. c #EABC01",
"=. c #E6B400",
"-. c #FABC01",
";. c #F3B804",
":. c #E7A917",
">. c #EAB21C",
",. c #F9B719",
"<. c #C89927",
"1. c #D79524",
"2. c #C59830",
"3. c #DCB724",
"4. c #DAB637",
"5. c #D2AB34",
"6. c #E6B726",
"7. c #E9B634",
"8. c #FBBB36",
"9. c #EAAD2B",
"0. c #E89724",
"q. c #D9C700",
"w. c #D2C805",
"e. c #E6CB01",
"r. c #EACB00",
"t. c #E6C406",
"y. c #F4C302",
"u. c #FBC502",
"i. c #FDCC01",
"p. c #FDCD0B",
"a. c #F9C80C",
"s. c #E8D700",
"d. c #FFD201",
"f. c #FFDA02",
"g. c #FDD40C",
"h. c #EAC418",
"j. c #FBCC17",
"k. c #FED113",
"l. c #FED21C",
"z. c #FCD919",
"x. c #F4EB00",
"c. c #F5E702",
"v. c #FEF500",
"b. c #FFFA00",
"n. c #FAE116",
"m. c #FBCA28",
"M. c #FED424",
"N. c #FED42B",
"B. c #FCD929",
"V. c #F9C83A",
"C. c #EED538",
"Z. c #FFD635",
"A. c #FEDC34",
"S. c #FDD43B",
"D. c #FEDA3C",
"F. c #F3D63B",
"G. c #EBCB2D",
"H. c #FFE329",
"J. c #FFE238",
"K. c #DEC42E",
"L. c #958751",
"P. c #B69B49",
"I. c #A99452",
"U. c #888776",
"Y. c #958E6E",
"T. c #A89C71",
"R. c #B6A978",
"E. c #B9A464",
"W. c #D7B444",
"Q. c #D5B75A",
"!. c #C6AA50",
"~. c #E7BB47",
"^. c #F0B94D",
"/. c #CDB775",
"(. c #F7C848",
"). c #FEDA43",
"_. c #FCD748",
"`. c #F9CB55",
"'. c #FDDC53",
"]. c #FEDE5B",
"[. c #FAD557",
"{. c #E9C955",
"}. c #FEE44A",
"|. c #FEE354",
" X c #FEE35C",
".X c #F3CA65",
"XX c #FBDD6C",
"oX c #FBDA65",
"OX c #F9D875",
"+X c #EECD6F",
"@X c #FEE364",
"#X c #FEE36B",
"$X c #FBE765",
"%X c #FDE47B",
"&X c #FDE678",
"*X c #FFF375",
"=X c #DDC46F",
"-X c #9A9987",
";X c #999891",
":X c #A5A496",
">X c #B8B39A",
",X c #B2AB8D",
"<X c #B7B6AE",
"1X c #A19D8C",
"2X c #CBB989",
"3X c #C2BEA7",
"4X c #D3C18A",
"5X c #FADD84",
"6X c #F8DD94",
"7X c #E8D28F",
"8X c #FEEA83",
"9X c #FEEA8B",
"0X c #FCE587",
"qX c #FEF589",
"wX c #FEED93",
"eX c #FEEC9D",
"rX c #FAE497",
"tX c #FFF598",
"yX c #C8C4AB",
"uX c #C7C5B8",
"iX c #D4CFB3",
"pX c #EEDDB3",
"aX c #FDEBA3",
"sX c #FCECAC",
"dX c #F7E5A2",
"fX c #FFF3A5",
"gX c #FFF6A8",
"hX c #FBEEB5",
"jX c #FAEBBB",
"kX c #FEF2B4",
"lX c #FDF2BC",
"zX c #FFFAB7",
"xX c #EFE3B5",
"cX c #D5D4D1",
"vX c #FDF3C4",
"bX c #FCF4CA",
"nX c #FEFBCC",
"mX c #FEFCC4",
"MX c #ECE9D6",
"NX c #FFFDD3",
"BX c #FEFCDC",
"VX c #FAF4D7",
"CX c #F5EACE",
"ZX c #FFFFE4",
"AX c #FFFFEB",
"SX c #F8F6E5",
"DX c #FEFDF4",
"FX c #FEFEFE",
"GX c #F0EEE2",
"HX c None",
/* pixels */
"HXHXHXHXHXHXHXHXHXHXHXHXHXHXHXHXHXHXHXHXHXHXHXHX                        HXHXHXHXHXHXHXHXHXHXHXHXHXHXHXHXHXHXHXHXHXHXHXHX",
"HXHXHXHXHXHXHXHXHXHXHXHXHXHXHXHXHXHXHXHXHX        o @ : & 9 9 = : @ X         HXHXHXHXHXHXHXHXHXHXHXHXHXHXHXHXHXHXHXHXHX",
"HXHXHXHXHXHXHXHXHXHXHXHXHXHXHXHXHXHX    . + 8 b :XuXCX,X/ v.v./ ,XMXyX1Xb > X       HXHXHXHXHXHXHXHXHXHXHXHXHXHXHXHXHXHX",
"HXHXHXHXHXHXHXHXHXHXHXHXHXHXHXHX    . j U.iXVXzX9X|.A.) x.s.x.x.T D.$XqXzXVXuXI :       HXHXHXHXHXHXHXHXHXHXHXHXHXHXHXHX",
"HXHXHXHXHXHXHXHXHXHXHXHXHXHX    X z <XVXfX}.p.i.i.i.i.Y s.$.$.x./ y.i.u.u.z. XzXVX:Xj .     HXHXHXHXHXHXHXHXHXHXHXHXHXHX",
"HXHXHXHXHXHXHXHXHXHXHXHXHX  . j 3XNX*Xk.i.i.i.i.u.u.d...` s.s.` X.i.u.i.i.d.i.u.M.tXVX:X:     HXHXHXHXHXHXHXHXHXHXHXHXHX",
"HXHXHXHXHXHXHXHXHXHXHX    @ Y.VX8Xk.u.i.i.i.u.-.&.o.Q C 9 y w 1 B D ..&.-.u.u.i.i.u.l.tXCXb +     HXHXHXHXHXHXHXHXHXHXHX",
"HXHXHXHXHXHXHXHXHXHX  . 6 yXzXM.i.i.i.y.-.&.! s 0 1 9 w a a d s i q 2 2 i D &.-.u.i.i.i.).nX>X; .   HXHXHXHXHXHXHXHXHXHX",
"HXHXHXHXHXHXHXHXHX  . > iX*Xy.i.i.y.-.&.B 0 1 i C ! ..~ ~ ! ! ~ ~ ..~ E g q 5 M o.-.y.i.i.a.gXyX:     HXHXHXHXHXHXHXHXHX",
"HXHXHXHXHXHXHXHX  + N ` ) ( f.y.y.;.B 2 0 B | ! B i 0 2 2 9 0 0 0 i s C ~ ..F i 2 N &.a.y.d./ R ` g O   HXHXHXHXHXHXHXHX",
"HXHXHXHXHXHXHX    g e.e.b./ o.a.X.e 2 C ..D q - 9 g E X.#.=.*.=.#.( Z d q i D ..E y 9 ^ p.X./ b.v.b.g .   HXHXHXHXHXHXHX",
"HXHXHXHXHXHX  . : ' e.q.x.q._ W * s ..F 0 - g #.i.f.n.J.}.|.|.}.J.z.f.d.=.W w y E ..B 1 Z ^ $.*.q.b.` : .   HXHXHXHXHXHX",
"HXHXHXHXHXHX  : cX} v.x.b.w.6 2 G ..a * N y.f.J.%XsXvXbXvXlXvXvXvXlXaX#XB.f.y.W 0 s ..E 0 2 ` r.s.b.R 3X;   HXHXHXHXHXHX",
"HXHXHXHXHX  O ,XnX<X/ w.w.> 5 ! ! 2 q #.f.'.aXbXhX0X].D.N.M.M.N.).@XrXlXbXwX).g.t.f q Q ~ q 1 ` q./ ( tX,X+   HXHXHXHXHX",
"HXHXHXHX    b FX[.$XcXuXm 5 ~ F - N |.tXhXvXeX'.k.i.i.i.i.i.i.i.i.i.i.l.@XgXbX9XB.z.S 2 D ~ 0 1 _ %.i.j.zXP .   HXHXHXHX",
"HXHXHXHX  ; MXFXFXXX&X:X2 ! E < T *XFXFXFXVXl.i.i.i.d.i.d.i.i.d.i.i.i.i.u.p. XlXlX'.H._ 7 D ~ 2 T N.u.i.).xX6   HXHXHXHX",
"HXHXHX  X Y.8XbXFXFX2X* E Q 4 T H.SXGX2.+XFXvXl.i.i.i.i.d.i.i.i.N.%X8XA.).M.i.M.aXvXXXH._ * E F * <.m.i.u.9XR.X   HXHXHX",
"HXHXHX  6 6Xp.p.vXFXj N ..q A A.%XFXsX7 u `.FXVXZ.i.i.i.i.p.).sXDXFXDXDXFXDX#Xi.p.9XbXXXJ.A 2 | M 2 7.j.d.m.sXk   HXHXHX",
"HXHX  . Y.|.i.u.V.P q ..M r Z.XXjXFXVXf , u (.BXDX0X).oXeXBXFXAXrX1.5.vXQ.jXAXl.i.p.wXvXoXZ.r i ..0 A S.i.u.%XR.o   HXHX",
"HXHX  = 7Xz.i.l.5.< F Q 4 5.].hXDXFXSXA { A 2 5.gXDXDXDXZXhX.XW u % H ~.$ Q.DXS.i.i.k.aXhX'.9.* D D - 4.j.i.Z.dX6   HXHX",
"HXHX  b #Xi.i.S.A i ..i A _.dXsX0XDXAXJ A ,.C 7 N 5.~.5.H a 7 c :X3 7.h & [ BX'.i.i.i.N.vXrX_.A 2 ..w A S.i.u.9XL.  HXHX",
"HX  O E.D.i.j.~.3 G F 3 7.XXvXDX].].SX] f (.oXO.a 5 5 2 y N <.NX-XN X.l Y.Z mX#Xi.i.d.i.#XvXoX7.- C C ; ~.j.i.|.2X@   HX",
"HX  ; +Xp.i.Z.{ 5 ..a A _.rXBXFXFXsXgX] u (.vXeX`.>.3.9.(.OXaXBXl ..9 +.P.d qX0Xi.i.d.i.k.hXrXS.A 0 ..2 { Z.i.m.6X8   HX",
"HX  c #Xi.i._.x K ~ 2 <.oXlX#XlXFXCXqXS a `.fX8XlXkXsXlXbXvXNXiXi y h >.5.f {.wXk.i.i.i.i.#XlX`.<.- ~ d x _.i.i.9XJ   HX",
"    L.}.i.k.{.e G C e 8.5XhXk.p.eXeX&Xe D OXsX}.@XtXgXgXqXqXNXT.O d >.rX7.x <.qXF.r.i.d.u.B.bXOX8.3 N G 4 {.k.u.@XE.. HX",
"  o E.J.u.M.!.5 ~ d h V.sX9Xi.B.{.#X) q :.dXtXf l h h J ] b c t B :.rXbX(.] g }.$X).j.d.i.p.fXrX8.A u | 2 !.M.i.'./.+   ",
"  + =XM.u.A.P.5 ..y H (.vX$XG.oX}.' 2 O.OXbX8X{ ; yXE.V V G _ :.V.sXeX9X6X:.p N A.|.'.C.M.i.&XjX8.H 5 ..2 { D.u.S.7X%   ",
"  : I.W Y 5.L.u ..3 L `.0X(.F.n.Z 9 <.oXnXeX@XqXL.b ZX0X5X0XrXsXbXfX X].vX.Xo.3 9 W G.J.J.C.C.&X^.+.5 | y L.5.Y R !.6   ",
"  % / s.x.` t a ~ 5 1.V.C.H.$.p x 3.OXbXeX#X&XkXSXb U.AXvXkXkXgX8X@X@X X9XbXOX9.S 7 < g ' h.H.C.m.1.1 Q s 9 ' s.x./ %   ",
"  e e.$.c.b.e d ! 5 O.a.C.Y 6 >XZXnXNXhX&X&XkXBXNX+X< iXnX&X#X@X@X#X@X@X#XwXnXhXXX7.[ L.b 1 h C.a.:.2 Q s w r.q.x.v.9   ",
"  9 e.q.x.b.e g ! 2 O.p.K.t k b U.<XVXZXnXkXBXBX{.>.S b BXeX9XeXaXfXeX%X#X@X%XgXvXhXVXAXT.6 ] G.t.0.5 Q M w r.q.x.v.9   ",
"  % / x.x.` r a ~ 9 O.h.e.j.6.' Y f j Y.VXZXBXOX%.K.K.r CXNXBXBXAXZXZXNXkX9X#X%XlXAX3Xk h G.g.e.,.0.0 ! M 6 ` x.x./ %   ",
"  = P./ Y P.I.w ..9 L `.+Xh.*.y.a.j.3.h z MXdX4.3.C. Xc cXZXnXkXdXaXlXBXZXnXsXvXZXY.r 4.B.t.h.%X^.0.q ~ i L.W.W Y P.6   ",
"  & {.k.u.}./.9 ..w H (.bX#Xi.u.y.*.*.B.} c :.W.(.$X+Xp Q.OX{.3.3.%.6.{.hXZXVXZXY.c _.t.=.y.8XjX^.+.y ..y I.|.u.N.+X%   ",
"  O !.M.i.Z.7X2 ! s h V.aXwXd.i.d.i.u.#.N.v N (.fXXXO.0 X.{.3.>.6.6.3.3.3.5XZXyXl '.=.=.u.i.aXrXV.H d | 0 /.D.i.S.Q.+   ",
"  . { Z.u.l.5Xl C C 3 8.5XlXl.i.i.i.d.y.#.Q.r :.rX>.w y 6.+X(.]. X].F.G.6.4.{.v L.G.&.i.i.Z.vXOX8.f B F r 7Xl.i._.{ . HX",
"HX  A _.i.i.9XP a | 2 <.[.vX].u.d.i.i.d.&.^.b G ,.B @ D OXtXoX[.[.].0X#XF.{.O.< R.:.V.k.i.%XlX`.9.e ! M v 9Xi.u.'.A   HX",
"HX  6 _.p.u.oX2X2 ..i h _.eXsXp.i.i.i.d.&.>.L.M o.= 2 :.9...V K K V @..X0XeXo.4 /.@.CXkXN.kX6XS.] a ..u T.#Xi.j.`.3   HX",
"HX  + W.M.i.N.dXk C F 4 7.oXvX@Xi.d.i.d.-.@./.u f j d B 5 j b U.-XI l V 9.OXO.j 4X&.CXFXBXkX[.V.r D F t dXZ.u.N.W.#   HX",
"HXHX  J Z.u.i.wXY.q ..y A D.rXlXN.i.i.i.u.@.=X, z 6 8 n >X7X7X^.^..XpXI u &.o.j 4X@.CXFXbX5XS.] y | a P wXu.u._.J . HXHX",
"HXHX  3 V.p.i.'.pX3 G F < 4._.hXaXp.i.d.d.o.9.Y.3XyX7X.X:. . .o.@. . .6X<X3 ! l 4X .CXAXaX_.V.9 D Q 3 iX).i.j.(.3   HXHX",
"HXHX  o [ m.i.i.eXY.5 ..s r Z.oXvX9Xp.i.i.;. .~.9.0. . .@.-.i.d.d.p.&.L +X3X4 > ^. .jXlX`.A.h a ..u P gXi.i.V.[ O   HXHX",
"HXHXHX  r V.i.i.).jXk M ..5 A J.XXbX9Xp.i.d.;.o.o.&.;.i.d.d.d.i.i.d.i.;.L .XcXm 4X .6XXXA.] 5 ~ Z k xXD.i.j.V.e   HXHXHX",
"HXHXHX  o [ m.i.i.9XyX* F Q < _ H.XXvXfXN.i.i.d.d.i.d.i.i.i.i.i.i.i.u.a.;.L W.CX^.L `.A.[ < E Q < <XDXj.i.m.] O   HXHXHX",
"HXHXHXHX  4 7.a.i.j.mXT.2 ~ F < ) H.'.kXvX#Xj.i.i.i.i.i.i.d.i.i.d.i.i.i.d.m. . . .>.H._ - D ~ q ;XFXFXBXS.7.4   HXHXHXHX",
"HXHXHXHX  . S m.r.f.4.,X> 5 ..D < H g.B.0XbXkX#XN.i.i.i.i.i.i.i.i.i.i.A.%XlXhX(.z.H.Z * C ..y j >XcXFXFXDXJ X   HXHXHXHX",
"HXHXHXHXHX  # _ l.( / w.$.1 5 ~ Q 5 g t.f.Z.0XlXbXaX%X X).D.D.).oX8XsXbXlX&XB.n.t.y < E ~ q 1 %.w./ >XFXuX@ . HXHXHXHXHX",
"HXHXHXHXHXHX  7 [ / x.x.b.w.> 2 Q | a 0 W i.f.M.].9XsXvXvXbXbXvXlXsX8X'.z.f.y.Z * u ..E 0 > ' e.e.b.} cX8   HXHXHXHXHXHX",
"HXHXHXHXHXHX  . * ' t.$.x.q.>XU.% B ..D y y W *.d.f.f.z.A.Z.Z.B.z.f.f.i.#.N - 1 C X.B * -X<X$.w.q.v.' , X HXHXHXHXHXHXHX",
"HXHXHXHXHXHXHX  X g e.e.b./ 5.BX>X; 5 E X.C i q d Y X.$.*.y.y.=.#.( N e - 0 C ..F 5 j yXBXQ.' v.v.b.g X   HXHXHXHXHXHXHX",
"HXHXHXHXHXHXHXHX  O a ' / ( d.j.zXMXn - q G ( ~ B a q e 0 0 9 2 < 2 y N Q ..D q 6 U.SXgXl.d.W ) ` g O   HXHXHXHXHXHXHXHX",
"HXHXHXHXHXHXHXHXHX  . * ^ p.u.d.u.|.NXcXI 6 2 d G ~ ..~ ! Q Q ! ~ ..~ G d 2 r U.MXBX'.i.i.u.i.2., X   HXHXHXHXHXHXHXHXHX",
"HXHXHXHXHXHXHXHXHXHX  X * W -.y.i.i.p.@XnXGX<Xb k 2 0 y s g K g u e 2 k n <XSXNX$Xi.i.i.-.a.^ < o   HXHXHXHXHXHXHXHXHXHX",
"HXHXHXHXHXHXHXHXHXHXHX  . @ d &.y.u.i.i.u.).tXNXSXcX<X:Xj e w j :X<XcXSXBXtXD.i.u.i.y.-.&.N @ . HXHXHXHXHXHXHXHXHXHXHXHX",
"HXHXHXHXHXHXHXHXHXHXHXHXHX  X - D &.y.i.i.i.u.p.B.|.qX4X` b.b.` /.qX|.B.i.p.i.i.u.-.;.! 2 X   HXHXHXHXHXHXHXHXHXHXHXHXHX",
"HXHXHXHXHXHXHXHXHXHXHXHXHXHX    O 5 D &.-.u.y.i.i.i.i.Y x.c.x.x.Y i.i.i.u.y.-.-.&.~ q O     HXHXHXHXHXHXHXHXHXHXHXHXHXHX",
"HXHXHXHXHXHXHXHXHXHXHXHXHXHXHXHX    O - M ..&.-.-.u.u.W s.q.q.x.R -.y.-.-.;.o.B 2 O     HXHXHXHXHXHXHXHXHXHXHXHXHXHXHXHX",
"HXHXHXHXHXHXHXHXHXHXHXHXHXHXHXHXHXHX    . @ 1 d D ..&.! / e.e.( ~ &.o.! M 0 # .     HXHXHXHXHXHXHXHXHXHXHXHXHXHXHXHXHXHX",
"HXHXHXHXHXHXHXHXHXHXHXHXHXHXHXHXHXHXHXHXHX      . + % * % 0 9 % < % + .       HXHXHXHXHXHXHXHXHXHXHXHXHXHXHXHXHXHXHXHXHX",
"HXHXHXHXHXHXHXHXHXHXHXHXHXHXHXHXHXHXHXHXHXHXHXHXHX                    HXHXHXHXHXHXHXHXHXHXHXHXHXHXHXHXHXHXHXHXHXHXHXHXHX"
};
