/* XPM */
static char *result[] = {
/* columns rows colors chars-per-pixel */
"60 60 231 2 ",
"   c #001C00",
".  c #230300",
"X  c #2A0C03",
"o  c #280802",
"O  c #2D1B01",
"+  c #2C1302",
"@  c #311807",
"#  c #381815",
"$  c #370403",
"%  c #012402",
"&  c #042B05",
"*  c #092B06",
"=  c #082E09",
"-  c #06320C",
";  c #0C330A",
":  c #0A3107",
">  c #12350B",
",  c #153A0D",
"<  c #173A0C",
"1  c #0B3B12",
"2  c #063B16",
"3  c #163312",
"4  c #332904",
"5  c #35310D",
"6  c #353630",
"7  c #490605",
"8  c #580C0A",
"9  c #52110F",
"0  c #561311",
"q  c #5B1311",
"w  c #541A1A",
"e  c #4D100E",
"r  c #671714",
"t  c #761A16",
"y  c #6E0B07",
"u  c #412F1A",
"i  c #4C2E2E",
"p  c #6D3331",
"a  c #1C420B",
"s  c #0D441A",
"d  c #194615",
"f  c #254B13",
"g  c #294C15",
"h  c #244713",
"j  c #2C5215",
"k  c #2E5617",
"l  c #35591A",
"z  c #21490F",
"x  c #3C641C",
"c  c #0A5426",
"v  c #175425",
"b  c #134E20",
"n  c #3D5E20",
"m  c #106C36",
"M  c #246E39",
"N  c #226A36",
"B  c #24733C",
"V  c #24783F",
"C  c #48571B",
"Z  c #454A12",
"A  c #476B1E",
"S  c #496C23",
"D  c #456823",
"F  c #586C22",
"G  c #497622",
"H  c #557A28",
"J  c #5B7E2B",
"K  c #577627",
"L  c #6A752E",
"P  c #565929",
"I  c #1F7D42",
"U  c #097A40",
"Y  c #237A41",
"T  c #287941",
"R  c #3D5340",
"E  c #514E4B",
"W  c #6A5352",
"Q  c #7B6665",
"!  c #861E1A",
"~  c #951D18",
"^  c #BB1C14",
"/  c #BF170F",
"(  c #98201A",
")  c #B6251D",
"_  c #A5251F",
"`  c #BA2A22",
"'  c #A72C26",
"]  c #CD1E15",
"[  c #C0170F",
"{  c #CA2119",
"}  c #D2241B",
"|  c #C92C24",
" . c #D32E25",
".. c #D73028",
"X. c #90603B",
"o. c #CE433A",
"O. c #825251",
"+. c #B35854",
"@. c #B14E49",
"#. c #8D7371",
"$. c #B6726F",
"%. c #B5605C",
"&. c #DA7D77",
"*. c #5D822C",
"=. c #568728",
"-. c #568927",
";. c #62852D",
":. c #648B2E",
">. c #6A8829",
",. c #68952D",
"<. c #72952E",
"1. c #698D31",
"2. c #678931",
"3. c #788836",
"4. c #6C9431",
"5. c #6F9B33",
"6. c #729C34",
"7. c #769938",
"8. c #708F2E",
"9. c #74A235",
"0. c #7AA535",
"q. c #7DAC38",
"w. c #78A936",
"e. c #7EB339",
"r. c #79B237",
"t. c #6DA231",
"y. c #0A8749",
"u. c #1B8A4B",
"i. c #0C9D59",
"p. c #089855",
"a. c #129F59",
"s. c #169553",
"d. c #10924F",
"f. c #0FA15B",
"g. c #13A25B",
"h. c #1BA35B",
"j. c #2EAB5E",
"k. c #3AB463",
"l. c #26B264",
"z. c #1F9955",
"x. c #47B663",
"c. c #58BA64",
"v. c #65BE66",
"b. c #6DC167",
"n. c #73C469",
"m. c #7AC669",
"M. c #86873C",
"N. c #85913B",
"B. c #81B53A",
"V. c #85BB3C",
"C. c #89BD3E",
"Z. c #85AB3D",
"A. c #85C33C",
"S. c #8BC53E",
"D. c #8DC93F",
"F. c #948A41",
"G. c #9D9044",
"H. c #89A944",
"J. c #99B048",
"K. c #ABB64C",
"L. c #BA817F",
"P. c #A89649",
"I. c #CAB457",
"U. c #D2B45A",
"Y. c #D8827C",
"T. c #8EC540",
"R. c #8ECA40",
"E. c #92C641",
"W. c #92CC42",
"Q. c #9BCA46",
"!. c #94D243",
"~. c #99D445",
"^. c #8FD141",
"/. c #A6CB4B",
"(. c #B4C94E",
"). c #A4D24D",
"_. c #A6DA4E",
"`. c #B6CC55",
"'. c #ADD752",
"]. c #BDDB5D",
"[. c #B6D958",
"{. c #A7C453",
"}. c #BCE25B",
"|. c #84C96B",
" X c #8BCC6C",
".X c #84C668",
"XX c #C9CB57",
"oX c #D5CD5C",
"OX c #C0DC5F",
"+X c #D1D15A",
"@X c #C4E55F",
"#X c #C2DD60",
"$X c #CCDD63",
"%X c #D7D964",
"&X c #EBCE64",
"*X c #E3CA61",
"=X c #ECD265",
"-X c #EAD96B",
";X c #F7D36A",
":X c #F3CF67",
">X c #CCEA64",
",X c #CAE463",
"<X c #D1F166",
"1X c #E6E16D",
"2X c #EDE171",
"3X c #F2E173",
"4X c #998A89",
"5X c #9D9491",
"6X c #A49A98",
"7X c #BE9997",
"8X c #BC8987",
"9X c #BAB6B5",
"0X c #B5ABAA",
"qX c #C6908D",
"wX c #C4B3B2",
"eX c #C1A09F",
"rX c #CDC5C5",
"tX c #DAD7D5",
"yX c #D2CDCB",
"uX c #E9D6D4",
"iX c #E2EAEA",
"pX c #E8E8E7",
"aX c #EBF4F4",
"sX c #EFFAFA",
"dX c #F2F3F3",
"fX c #F5FCFC",
"gX c #FDFEFE",
"hX c #FCF5F3",
"jX c #F6F0ED",
"kX c #DFE7E8",
"lX c None",
/* pixels */
"lXlXlXlXlXlXlXlXlXlXlXlXlXlXlXlXlXlXlXlXlXlXlXlXlXlXlXlXlXlXlXlXlXlXlXlXlXlXlXlXlXlXlXlXlXlXlXlXlXlXlXlXlXlXlXlXlXlXlXlX",
"lXlXlXlXlXlXlXlXlXlXlXlXlXlXlXlXlXlXlXlXlXlXlX    % = - , < d , - = %     lXlXlXlXlXlXlXlXlXlXlXlXlXlXlXlXlXlXlXlXlXlXlX",
"lXlXlXlXlXlXlXlXlXlXlXlXlXlXlXlXlXlXlXlX  & a D 2.H.{.`.#X#X#X].`.K.H.;.l ,     lXlXlXlXlXlXlXlXlXlXlXlXlXlXlXlXlXlXlXlX",
"lXlXlXlXlXlXlXlXlXlXlXlXlXlXlXlXlX    d J J.#X>X<X>X].[.).).).).'.@X>X>X>XOXH.S 3   lXlXlXlXlXlXlXlXlXlXlXlXlXlXlXlXlXlX",
"lXlXlXlXlXlXlXlXlXlXlXlXlXlXlX%   g H.].,X].'.W.=.-.T.T.E.E.E.T.D.t.G V.).'.}.>X].1.,   lXlXlXlXlXlXlXlXlXlXlXlXlXlXlXlX",
"lXlXlXlXlXlXlXlXlXlXlXlXlXlX  < H.,X@X).W.D.-.= % :.[.[.#XOX].].}.H.: & G T.R.E.'.>X#X1.;   lXlXlXlXlXlXlXlXlXlXlXlXlXlX",
"lXlXlXlXlXlXlXlXlXlXlXlX% % H #X,XQ.A.S.A.k % G T.#X#X].].].OX].].,X[.-.& d V.D.H.S.).>X`.n   lXlXlXlXlXlXlXlXlXlXlXlXlX",
"lXlXlXlXlXlXlXlXlXlXlX  > H.>X).A.A.T.T.f % 9.~.T.Q.].OX#X#XOXOX}.].Q.D.B.> , A.^.D.A.T.[.>X7.% % lXlXlXlXlXlXlXlXlXlXlX",
"lXlXlXlXlXlXlXlXlXlX  h `.}.S.A.S.S.!.-.& *.V.!.^.R.T.Q.).).).).Q.R.D.!.R.1.; A W.S.S.S.A.W.>XJ.> % lXlXlXlXlXlXlXlXlXlX",
"lXlXlXlXlXlXlXlXlX  g #X'.C.S.S.S.A.!.G & A D A G w.A.T.T.A.S.A.S.V.=.A A D ; k W.A.S.T.T.A.A.}.{.< % lXlXlXlXlXlXlXlXlX",
"lXlXlXlXlXlXlXlX  g #X).A.S.S.T.R.R.R.:., = = & & K B.T.S.T.T.T.V.J = & = = > H W.W.T.S.T.T.A.A.'.`.3 % lXlXlXlXlXlXlXlX",
"lXlXlXlXlXlXlX  < [.Q.A.S.S.W.W.q.0.R.B.4.:.4.6.; l w.R.S.S.S.R.0.x * ,.5.;.t.w.w.q.^.R.S.T.S.T.A.'.{.* lXlXlXlXlXlXlXlX",
"lXlXlXlXlXlXlX: {._.A.S.S.R.0.4 X o O <.^.T.R.!.k ; 1.S.S.T.S.A.1.< g W.D.!.8.4 X + 5 Z.W.T.T.R.T.A.'.H.% lXlXlXlXlXlXlX",
"lXlXlXlXlXlX% 7.'.V.T.A.W.0.. W 9XrXQ . ;.^.V.W.,.% S q.R.A.R.q.G % :.D.W.K . Q wX9XE X 0.R.A.T.S.S.A.}.J   lXlXlXlXlXlX",
"lXlXlXlXlX  D '.A.S.S.R.S.+ W fXpXfXfX5Xo w.D.S.T.d < 1.V.W.A.4.a < S.D.7.o 6XfXaXjXjXW O T.S.S.S.S.S.S.[.g   lXlXlXlXlX",
"lXlXlXlXlX> {.S.S.R.S.!.C u pXpXiXeX+.qXp 5 W.S.W.,.% k 4.e.7.S   >.D.D.u E qX+.7XpXpXpX# F ~.S.S.S.D.A.~.H.% lXlXlXlXlX",
"lXlXlXlX  J ).A.S.S.D.C.X 6XdXiX8X^ ] | @.. 6.D.D.D.A   f K D % g C.!.<.. @. .] [ $.iXhX4X+ T.S.S.S.S.S.C._.n   lXlXlXlX",
"lXlXlXlX> E.D.S.S.S.!.J # tXaXwX^  .} uXhXq C D.S.D.C.S : & % h w.D.!.C 0 jXuX ...^ wXsXyX# >.W.S.D.S.D.A.E.H.& lXlXlXlX",
"lXlXlX  D W.S.S.S.S.!.Z W hXiX+. .{ @.gXgX#.O E.S.S.D.S.4.H J q.D.S.S.+ #.gXgX+.]  .@.iXdXW Z !.S.S.S.S.S.S.W.j % lXlXlX",
"lXlXlX= 0.W.S.S.S.S.E.O 5XfXyX`  .y O.gXgXqXo B.D.S.S.D.D.S.S.D.S.D.Z.o qXhXgXO.y ..` rXdX4X4 W.S.S.S.S.S.S.W.;.% lXlXlX",
"lXlX% g S.S.S.S.S.D.B.+ 0XfXeX] ' 7 O.hXgX&.$ 4.W.S.S.S.S.S.S.S.S.R.,.$ &.gXhXO.7 _ { eXfX0X@ C.D.S.S.S.R.S.D.q., lXlXlX",
"lXlX% S R.S.S.S.S.D.0.@ yXfX8X] ! 8 q tXfXo.$ *.!.S.T.S.S.S.S.D.S.!.K 7 o.dXuXq 0 t } $.sXrX+ w.R.S.D.T.S.S.S.S.l % lXlX",
"lXlX; 4.R.S.S.T.T.R.<.# tXaX$.{ t 0 8 p p ) 8 F !.S.T.D.D.T.S.S.S.!.F 8 ) p p 8 0 t ] $.sXyX@ 6.W.S.S.T.S.S.T.T.H & lXlX",
"lX% d 0.D.S.S.S.S.!.,.e tXdX$.] r 0 q 8 8 ` 8 F !.S.S.S.S.S.D.S.S.W.F 8 ` 8 8 q 0 r { +.aXtX# 4.!.S.D.S.S.S.S.T.4.> lXlX",
"lX% k r.D.S.S.S.S.^.<.# tXsX$.} t q q q 0 ) 8 K !.S.S.S.A.A.S.S.T.^.S 8 | 0 q q 0 t } %.aXtX# 6.R.S.S.D.S.S.S.D.6.h   lX",
"lX& K K.R.S.S.S.T.R.6.@ yXsX$.] t 9 q 9 q | 7 J !.S.S.T././.S.S.T.^.K 7 | q q q 0 t } $.fXrX+ 0.R.S.T.T.T.S.S.W.J.l % lX",
"lX= X.*X(.A.R.A.T.R.B.+ 9XfXeX] _ 9 r 9 t | $ 8.W.A.W.oX:X:XXXD.T.R.:.7  .t q q e _ { eXfX0X+ V.R.S.S.S.S.D.A.+XU.L & lX",
"lX, N.*X+XA.S.Q.E.A.R.O 6XfXrX`  .t e q ` ) + q.R.A.XX:X&X&X;X(.T.W.0.X ) ` q e r  .` rXfX4XO W.D.S.A.W.W.A.S.=XI.L : lX",
"lX5 M.*X+XT.oX=X&XK.9.4 Q dXiX@.} | ( ) ..~ 4 W.S.S.*X&X=X&X=XXXA.E.C.4 ~ ..) ( | } @.iXsXW 4 7.C.D.+X=X&XXXE.=XI.X.s lX",
"  g G.*X(.oX:X&X:X&X3.Z u pXaXwX^  . . . .e 5 oXoXD.oX:X&X&X;XXXQ.&XoX5 y  . .....^ eXaXuXu C :.B.+X:X=X&X;X(.+XXXX.: lX",
"% h N./.(.:X=X-X-X3XK.K . 0XdXiX$.[ { { ' X L I.;X(./.;X=X=X;X/.XX;XoXP X ' [ ] [ $.iXdX6XX J t./.-X-X-X=X&X*X/.J.2.> lX",
"% f :.r.`.-X2X3X3X3X3XH.4 i pXpXiX8X@.qXW 4 X.U.;X(.A.XX&XoX(.A.XX;XU.L O Q qX@.7XiXpXpXi 5 0.Q.OX3X2X2X2X-X=XQ.t.*., lX",
"  g 2.r.[.3X2X2X3X-X1X}.7.. #.fXpXaXfX9Xo P 1.XXXXS.S.A.S.D.S.A.S.oXXX8.C o 9XfXaXpXfX#.. 5.R.[.$X2X2X2X2X2X=XW.6.*., lX",
"% f ;.w.[.2X2X2X2X3X%X]._.:.o Q yXtX4Xo g 9.V.S.S.(.E.S.S.S.S././.S.S.V.6.Z X 5XtXtXQ . 4.^.Q.#X].-X2X2X2X3X%XA.,.*.; lX",
"% f ;.H.,X$X2X3X3X-X].OX).R.4.O + # X F C.D.E.S.XX;X+XS.D.S.D.*X;X(.A.S.D.S.F o # X O <.^.V.).#X].$X2X3X3X1XOX{.3.H ; lX",
"  < 3.P.3X$X].$X$XOX].OX).A.W.T.8.>.C.!.D.S.D.S.XX;XXXA.D.S.D.*X:X/.S.S.D.D.D.C.>.8.T.W.T.T.).OX].].].$X$X].1X*XM.J = lX",
"lX> F.F.-X1X].].].].].OXE.A.S.T.!.!.C.A.S.S.S.S.S./.D.S.D.D.S.Q./.S.D.S.S.D.C.r.!.R.R.A.T.A.E.OX].].].].].#X;XK.G.L % lX",
"lX= L F.I.1X].].OXOX#X).T.T.R.A.S.D.,.6.R.S.S.T.S.S.S.D.S.S.S.S.S.S.S.S.S.D.e.:.R.S.S.T.A.T.T.).#X].#X].#X].&XP.G.l % lX",
"lX% S 3.7.Q.'.].].[.Q.R.D.S.T.S.S.D.6.> t.!.S.S.S.S.S.S.S.S.S.S.S.S.S.S.S.~.A g V.R.S.S.T.R.T.A.).[.].].`.R.B.3.3.a % lX",
"lX% f :.H w.R.T.E.T.A.T.S.S.T.S.S.D.9.* G W.T.T.D.S.S.S.S.S.S.S.S.D.D.D.S.S.l , 6.S.S.S.S.A.T.R.A.T.W.E.S.A.*.*.J * lXlX",
"lXlX> ;.;.;.V.T.T.A.S.T.S.S.S.S.S.S.4., j 4.9.B.B.C.S.S.T.T.R.H.A.V.e.w.7.:.j % S q.R.S.S.S.S.S.S.S.S.S.R.4.*.1.x % lXlX",
"lXlX% x :.*.:.A.R.T.S.S.S.S.S.S.R.e.D % & : j D J :.4.4.5.5.5.2.1.;.H A g = : a % S e.R.S.S.S.S.S.S.S.D.5.*.;.;., % lXlX",
"lXlXlX; ;.;.*.;.e.R.D.S.S.S.S.S.V.*.% A r.x a & & * , d d < 3 d > = & & d A r.T.=.*.:.A.S.S.S.S.T.R.V.,.J *.1.k % lXlXlX",
"lXlXlX% h :.;.J *.9.S.W.R.R.D.!.e.5.w.D.R.!.R.r.,.=.l 1 R E R 3 x =.5.e.D.!.R.S.~.~.D.!.W.R.R.W.T.0.:.*.*.1.S % lXlXlXlX",
"lXlXlXlX% j :.1.J x g g z a a f k G t.A.W.S.D.W.D.~.~.6 9XfX9X6 W.~.~.R.R.T.R.!.r.=.A j a z a f f j S *.:.S & & lXlXlXlX",
"lXlXlXlXlX% f j & & - 2 s c v s 1 - & > =.C.B.B.e.e.S.D E jXW n V.e.e.V.B.B.r.l % & - 1 s c b s 2 - & > j & % lXlXlXlXlX",
"lXlXlXlXlXlX% - m i.u.T s.g.g.s.V s.p.m   g ;.J *.*.*.J 6 6 6 J *.*.*.*.*.J ; 2 U s.u.T s.g.g.s.T s.p.m % & lXlXlXlXlXlX",
"lXlXlXlXlXlX- p.k.m.k.d.g.v.v.h.p.j.n.x.y.% D 1.;.;.;.:.;.D J ;.;.;.;.;.1.k - f.x.m.j.p.h.v.v.g.p.k.n.k.m % lXlXlXlXlXlX",
"lXlXlXlXlX  c l.m. Xb.i.k. X Xx.p.v. X.Xl.c > H H H H K H H H H H H H H H > m l..X Xv.p.x. X Xk.i.v. Xm.l.s % lXlXlXlXlX",
"lXlXlXlXlX% m k.|.|.n.p.c..X Xc.p.v.|..Xx.y.& = = = & & = & = = = = = = & % y.x.|.|.v.p.c.|.|.x.i.m..X Xk.m % lXlXlXlXlX",
"lXlXlXlXlX= p.k.|. Xc.p.x. X Xx.p.x. X Xx.p.: lXlXlXlXlXlXlXlXlXlXlXlXlXlX: p.x. X Xx.p.x. X Xx.p.c. X Xk.y.= lXlXlXlXlX",
"lXlXlXlXlX- s.g.b.b.h.i.h.b.b.h.i.g.v.n.h.s.- lXlXlXlXlXlXlXlXlXlXlXlXlXlX- s.h.m.c.g.i.h.m.b.h.i.h.b.v.g.u.: lXlXlXlXlX",
"lXlXlXlXlX: u.g.g.a.f.g.f.g.h.i.g.f.a.a.g.u.; lXlXlXlXlXlXlXlXlXlXlXlXlXlX- u.g.g.a.a.g.f.g.g.f.g.f.i.g.f.I - lXlXlXlXlX",
"lXlXlXlXlX- M s.f.g.g.I u.f.f.s.V s.g.g.u.B 1 lXlXlXlXlXlXlXlXlXlXlXlXlXlX1 B a.f.g.a.I s.g.f.u.V s.g.g.u.B - lXlXlXlXlX",
"lXlXlXlXlX& N B u.u.V M M Y V B M B I Y M M : lXlXlXlXlXlXlXlXlXlXlXlXlXlX: B B u.u.V M M Y Y B M B I V N N = lXlXlXlXlX",
"lXlXlXlXlX% N B M M B V B M M B B B M M B N & lXlXlXlXlXlXlXlXlXlXlXlXlXlX& N B M M B B B M M B V B N M B N % lXlXlXlXlX",
"lXlXlXlXlX% s V M B v b N B B M b v B M V b & lXlXlXlXlXlXlXlXlXlXlXlXlXlX% v V B V v b M B B M s v B B B s % lXlXlXlXlX",
"lXlXlXlXlXlX- N T b % % 1 B B s % % s T N - lXlXlXlXlXlXlXlXlXlXlXlXlXlXlXlX- M V s % % d V B - & % b T N = lXlXlXlXlXlX",
"lXlXlXlXlXlX& - s = lXlX% 1 1 % lXlX& s - & lXlXlXlXlXlXlXlXlXlXlXlXlXlXlXlX& - 1 & lXlX& 1 1 % lXlX& s - % lXlXlXlXlXlX",
"lXlXlXlXlXlXlX% % lXlXlXlX& % lXlXlXlX% % lXlXlXlXlXlXlXlXlXlXlXlXlXlXlXlXlXlX% % lXlXlXlX% % lXlXlXlX% & lXlXlXlXlXlXlX"
};
